<svg width="24" height="24" viewBox="0 0 24 24" fill="none" xmlns="http://www.w3.org/2000/svg">
<path d="M20.4848 3.51515C18.2172 1.24747 15.2071 0 12 0C8.79293 0 5.78283 1.24747 3.51515 3.51515C1.24747 5.78283 0 8.79293 0 12C0 15.2071 1.24747 18.2172 3.51515 20.4848C5.78283 22.7525 8.79293 24 12 24C15.2071 24 18.2172 22.7525 20.4848 20.4848C22.7525 18.2172 24 15.2071 24 12C24 8.79293 22.7525 5.78283 20.4848 3.51515ZM19.5202 19.5202C17.5101 21.5303 14.8384 22.6364 12 22.6364C9.16162 22.6364 6.4899 21.5303 4.4798 19.5202C0.333333 15.3737 0.333333 8.62626 4.4798 4.4798C6.4899 2.4697 9.16162 1.36364 12 1.36364C14.8384 1.36364 17.5101 2.4697 19.5202 4.4798C23.6667 8.62626 23.6667 15.3737 19.5202 19.5202Z" fill="white"/>
<path d="M17.288 6.71223C17.0203 6.44456 16.591 6.44456 16.3233 6.71223L12.0001 11.0355L7.67688 6.71223C7.4092 6.44456 6.97991 6.44456 6.71223 6.71223C6.44456 6.97991 6.44456 7.4092 6.71223 7.67688L11.0355 12.0001L6.71223 16.3233C6.44456 16.591 6.44456 17.0203 6.71223 17.288C6.84355 17.4193 7.02031 17.49 7.19203 17.49C7.36375 17.49 7.54051 17.4244 7.67183 17.288L11.9951 12.9648L16.3183 17.288C16.4496 17.4193 16.6264 17.49 16.7981 17.49C16.9749 17.49 17.1466 17.4244 17.2779 17.288C17.5456 17.0203 17.5456 16.591 17.2779 16.3233L12.9648 12.0001L17.288 7.67688C17.5557 7.4092 17.5557 6.97991 17.288 6.71223Z" fill="white"/>
</svg>
