<svg width="356" height="356" viewBox="0 0 356 356" fill="none" xmlns="http://www.w3.org/2000/svg">
<path opacity="0.79" d="M273.839 69.7281C273.839 69.7281 200.345 46.7842 163.429 62.5617C126.513 78.3393 92.0893 44.6334 53.0188 76.1845C13.9484 107.736 59.1139 134.263 18.2416 172.262C-22.6307 210.261 25.055 306.343 122.569 251.478C192.838 221.364 155.553 316.739 243.745 299.878C331.938 283.017 264.391 180.138 307.558 163.647C350.724 147.155 356.294 94.827 273.839 69.7281Z" fill="#D1D6F0"/>
<path d="M61.8721 40.1553H282.623V208.476H61.8721L61.8721 40.1553Z" fill="white"/>
<path opacity="0.47" d="M282.623 208.471V40.1553H263.233C263.361 44.2064 264.731 48.2206 269.673 48.2206C279.663 48.2206 266.845 174.228 271.865 190.547C276.885 206.867 103.906 203.813 61.8721 199.868V208.488L282.623 208.471Z" fill="#7A819F"/>
<path fill-rule="evenodd" clip-rule="evenodd" d="M61.8721 40.1553H282.623V208.476H61.8721L61.8721 40.1553Z" stroke="#141414" stroke-width="1.31" stroke-linecap="round"/>
<path d="M61.8721 40.1553H282.623V48.2206H61.8721L61.8721 40.1553Z" fill="#353535" stroke="#141414" stroke-width="1.31" stroke-linecap="round"/>
<path opacity="0.47" d="M77.6497 69.2642H215.014V189.472H77.6497L77.6497 69.2642Z" fill="#565967"/>
<path d="M73.4836 64.1992H210.848V184.407H73.4836V64.1992Z" fill="white" stroke="#141414"/>
<path d="M225.3 207.043C225.3 207.043 225.842 200.624 227.738 206.793C229.573 212.765 230.927 227.561 230.426 229.679C229.926 231.797 221.15 223.563 221.15 223.662C221.15 223.76 225.3 207.043 225.3 207.043Z" fill="#141414" stroke="#141414"/>
<path d="M102.831 84.3317H214.214" stroke="#141414"/>
<path d="M78.45 93.0866H214.214" stroke="#141414"/>
<path d="M78.45 101.845H214.214" stroke="#141414"/>
<path d="M78.45 110.6H214.214" stroke="#141414"/>
<path d="M78.45 119.359H214.214" stroke="#141414"/>
<path d="M78.45 128.114H214.214" stroke="#141414"/>
<path d="M78.45 136.869H130.659" stroke="#141414"/>
<path d="M137.361 136.869H146.325" stroke="#141414"/>
<path d="M89.9263 194.849H271.865" stroke="white"/>
<path d="M92.988 57.1642H183.955" stroke="white"/>
<path d="M72.8557 198.793H271.865" stroke="white"/>
<path opacity="0.53" d="M78.4502 148.78H127.745V175.57H78.4502V148.78Z" fill="#C3C3C3"/>
<path opacity="0.53" d="M78.4502 72.5024H91.2808V78.3965H78.4502V72.5024Z" fill="#DFDFDF"/>
<path fill-rule="evenodd" clip-rule="evenodd" d="M76.5498 145.985H125.844V172.775H76.5498V145.985Z" stroke="#141414" stroke-width="1.31" stroke-linecap="round"/>
<path fill-rule="evenodd" clip-rule="evenodd" d="M131.816 145.985H181.111V172.775H131.816V145.985Z" stroke="#141414" stroke-width="1.31" stroke-linecap="round"/>
<path opacity="0.53" d="M133.877 148.78H183.172V175.57H133.877V148.78Z" fill="#C3C3C3"/>
<path d="M72.8557 202.737H271.865" stroke="white" stroke-width="1.31" stroke-linecap="round"/>
<path d="M225.23 218.24C224.524 211.476 225.751 205.849 225.973 204.17C212.613 207.454 202.418 204.441 194.906 199.462C199.807 183.155 216.754 157.141 215.4 153.619C213.61 148.961 184.928 135.482 172.919 143.477C172.919 143.477 150.693 169.93 150.155 200.045C149.864 216.274 159.522 227.865 177.122 232.667C190.318 236.267 207.971 236.053 229.248 231.112C227.019 227.151 225.65 222.765 225.23 218.24Z" fill="#4769C2"/>
<path opacity="0.56" d="M225.973 204.17C212.613 207.453 202.417 204.441 194.906 199.462C195.758 196.724 196.757 194.035 197.898 191.405C192.435 191.278 187.916 191.31 185.901 191.261C178.447 191.085 199.36 154.247 195.579 145.628C194.905 144.144 193.748 142.933 192.296 142.192C185.027 140.513 177.672 140.316 172.923 143.477C172.923 143.477 172.639 143.809 172.143 144.446C172.373 147.056 181.55 151.013 175.701 157.383C169.606 164.016 154.637 197.537 166.109 211.069C177.581 224.602 212.716 209.727 215.404 219.689C218.092 229.65 229.261 231.124 229.261 231.124C227.029 227.164 225.657 222.778 225.234 218.252C224.524 211.476 225.751 205.848 225.973 204.17Z" fill="#4F5359"/>
<path fill-rule="evenodd" clip-rule="evenodd" d="M225.23 218.24C224.524 211.476 225.751 205.849 225.973 204.17C212.613 207.454 202.418 204.441 194.906 199.462C199.807 183.155 216.754 157.141 215.4 153.619C213.61 148.961 184.928 135.482 172.919 143.477C172.919 143.477 150.693 169.93 150.155 200.045C149.864 216.274 159.522 227.865 177.122 232.667C190.318 236.267 207.971 236.053 229.248 231.112C227.019 227.151 225.65 222.765 225.23 218.24V218.24Z" stroke="#141414" stroke-width="1.31" stroke-linecap="round"/>
<path d="M159.173 70.3192C159.173 70.3192 160.897 68.308 163.392 71.805C165.715 75.0598 168.297 75.0886 167.841 76.4348C167.386 77.7811 159.591 77.4938 158.483 75.0065C157.375 72.5192 159.173 70.3192 159.173 70.3192Z" fill="#141414" stroke="#141414" stroke-width="1.31" stroke-linecap="round"/>
<path d="M173.276 94.0636C169.171 95.1431 166.298 94.1498 165.21 91.7733C164.123 89.3968 164.8 85.7069 167.804 81.3028C168.116 80.8924 168.412 80.5312 168.703 80.1823C163.343 78.8689 161.204 76.279 160.084 73.6152C159.671 72.5759 159.333 71.5088 159.07 70.4219C146.096 82.3659 143.522 92.1017 143.522 92.1017C141.22 99.2681 142.291 107.038 148.55 112.062C149.683 110.867 158.59 110.949 161.64 108.314C166.261 104.325 166.097 97.1173 173.276 94.0636Z" fill="#A0C0FE"/>
<path opacity="0.52" d="M161.172 79.6116C163.589 84.3851 148.953 109.32 157.556 107.604C160.04 104.836 162.725 102.254 165.588 99.8795C167.347 98.3452 168.825 96.516 169.955 94.4739C167.62 94.4123 165.97 93.4272 165.215 91.7567C164.143 89.4008 164.804 85.6903 167.809 81.2862C168.121 80.8758 168.416 80.5146 168.708 80.1657C163.347 78.8523 161.209 76.2624 160.088 73.5986C159.676 72.5593 159.337 71.4922 159.074 70.4053C158.997 73.6008 159.717 76.7651 161.172 79.6116Z" fill="#7293DF"/>
<path d="M173.276 94.0636C169.171 95.1431 166.298 94.1498 165.21 91.7733C164.123 89.3968 164.8 85.7069 167.804 81.3028C168.116 80.8924 168.412 80.5312 168.703 80.1823C163.343 78.8689 161.204 76.279 160.084 73.6152C159.671 72.5759 159.333 71.5088 159.07 70.4219C146.096 82.3659 143.522 92.1017 143.522 92.1017C141.22 99.2681 142.291 107.038 148.55 112.062" stroke="#141414" stroke-width="1.31" stroke-linecap="round"/>
<path d="M261.407 57.6527C262.191 59.9191 262.042 62.4043 260.991 64.5602C259.941 66.7162 258.076 68.3658 255.808 69.1453L134.726 110.867L129.099 103.282L128.841 93.7885L249.922 52.0666C252.186 51.2843 254.668 51.4333 256.822 52.481C258.975 53.5286 260.625 55.389 261.407 57.6527Z" fill="#4769C2"/>
<path opacity="0.74" d="M255.808 69.1371C259.205 67.9635 261.582 64.8878 261.862 61.3053C262.141 57.7228 260.27 54.3154 257.097 52.6289C258.681 55.6498 260.606 60.5013 258.353 63.1199C254.926 67.1095 244.201 59.1017 244.726 64.5524C245.252 70.0031 197.238 74.7397 179.564 86.7535C161.89 98.7673 150.012 94.6464 134.271 103.742C133.146 104.449 131.931 105.001 130.659 105.384L134.718 110.855L255.808 69.1371Z" fill="#A0C0FE"/>
<path fill-rule="evenodd" clip-rule="evenodd" d="M261.407 57.6527C262.191 59.9191 262.042 62.4043 260.991 64.5602C259.941 66.7162 258.076 68.3658 255.808 69.1453L134.726 110.867L129.099 103.282L128.841 93.7885L249.922 52.0666C252.186 51.2843 254.668 51.4333 256.822 52.481C258.975 53.5286 260.625 55.389 261.407 57.6527Z" stroke="#141414" stroke-width="1.31"/>
<path d="M244.435 63.5016C245.219 65.7679 245.07 68.2531 244.019 70.4091C242.969 72.565 241.104 74.2146 238.836 74.9941L134.718 110.859L129.091 103.274L128.833 93.7803L232.955 57.9072C235.219 57.1266 237.701 57.2774 239.854 58.3266C242.007 59.3758 243.655 61.2373 244.435 63.5016Z" fill="#97A7BF"/>
<path opacity="0.74" d="M238.836 74.9819C243.146 73.4942 245.67 69.028 244.722 64.5688C245.133 70.0114 198.009 75.1173 180.356 87.1188C162.703 99.1203 147.376 93.5587 134.271 103.742C133.184 104.516 131.957 105.074 130.659 105.384L134.718 110.855L238.836 74.9819Z" fill="#353535"/>
<path opacity="0.47" d="M224.582 147.421H256.518V189.472H224.582V147.421Z" fill="#565967"/>
<path fill-rule="evenodd" clip-rule="evenodd" d="M244.435 63.5016C245.219 65.7679 245.07 68.2531 244.019 70.4091C242.969 72.565 241.104 74.2146 238.836 74.9941L134.718 110.859L129.091 103.274L128.833 93.7803L232.955 57.9072C235.219 57.1266 237.701 57.2774 239.854 58.3266C242.007 59.3758 243.655 61.2373 244.435 63.5016V63.5016Z" stroke="#141414" stroke-width="1.31"/>
<path d="M134.829 106.065L244.927 67.4458L134.829 106.065Z" fill="white"/>
<path d="M134.829 106.065L244.927 67.4458" stroke="#141414" stroke-width="1.31" stroke-linecap="round"/>
<path d="M168.707 80.1699C174.281 73.4427 176.186 76.283 176.346 78.1997C176.514 80.215 178.808 79.8415 177.577 75.577C179.042 78.602 179.58 79.9154 180.118 78.1997C180.491 77.0136 179.945 75.7617 179.572 75.105C179.391 74.8218 179.281 74.6371 179.281 74.6371C179.385 74.788 179.483 74.9442 179.572 75.105C180.274 76.1886 181.998 78.7292 182.236 77.7975C182.515 76.6195 181.283 73.7956 181.283 73.7956C181.283 73.7956 183.369 77.3255 183.771 76.8535C184.173 76.3815 182.761 72.9214 182.761 72.9214C182.761 72.9214 186.66 73.496 186.455 72.1005C186.291 70.9471 175.525 64.302 160.076 73.6109C161.209 76.2665 163.347 78.877 168.707 80.1699Z" fill="#FC9E7A" stroke="#141414" stroke-width="1.31"/>
<path d="M221.499 143.477H253.436V185.527H221.499V143.477Z" fill="#DFDFDF" stroke="#141414" stroke-width="1.31" stroke-linecap="round"/>
<path opacity="0.34" d="M221.499 78.4419H253.436V137.3H221.499V78.4419Z" fill="white"/>
<path d="M148.538 112.061C155.585 117.73 169.216 119.901 191.98 113.736C210.561 101.546 206.44 81.2901 206.44 81.2901C206.44 81.2901 189.23 80.5185 164.829 100.483C164.808 103.073 161.894 105.445 161.894 105.445L148.538 112.061Z" fill="#A0C0FE"/>
<path opacity="0.52" d="M148.538 112.062C148.787 111.86 149.079 111.72 149.392 111.651L148.538 112.062C155.585 117.73 169.216 119.901 191.98 113.736C200.599 108.076 204.342 100.672 205.865 94.3673C203.325 90.8703 198.773 89.442 197.566 90.5214C197.566 90.5214 193.593 86.5647 180.356 104.325C171.396 116.351 157.428 118.764 148.661 112.16" fill="#7293DF"/>
<path d="M130.782 101.846L243.93 62.3237L130.782 101.846Z" fill="white"/>
<path d="M130.782 101.846L243.93 62.3237" stroke="#141414" stroke-width="1.31" stroke-linecap="round"/>
<path d="M197.291 214.029C199.803 197.357 225.969 171.022 225.969 171.022C225.969 156.694 194.512 141.975 194.512 141.975C194.512 141.975 168.342 171.088 163.002 202.011C163 202.028 163 202.044 163.002 202.06C159.53 219.981 163.597 241.094 174.716 270.314C179.855 269.8 184.867 268.412 189.538 266.209C195.345 263.468 200.455 259.445 204.482 254.442C202.746 250.134 201.272 245.724 200.07 241.238C197.336 231.03 196.232 221.109 197.291 214.029Z" fill="#4769C2"/>
<path opacity="0.49" d="M197.291 214.029C199.803 197.356 225.969 171.022 225.969 171.022C225.969 170.8 225.961 170.579 225.944 170.357C225.944 170.279 225.944 170.201 225.924 170.123C225.924 169.98 225.899 169.836 225.879 169.692C225.858 169.549 225.85 169.516 225.838 169.426C225.825 169.335 225.797 169.159 225.772 169.015C225.747 168.871 225.727 168.822 225.706 168.728C225.686 168.633 225.653 168.477 225.62 168.35C225.587 168.223 225.567 168.153 225.538 168.055C225.509 167.956 225.468 167.808 225.431 167.689C225.394 167.57 225.361 167.484 225.329 167.381C225.296 167.279 225.251 167.143 225.205 167.024L225.082 166.712C225.037 166.598 224.992 166.483 224.943 166.368C224.894 166.253 224.848 166.154 224.799 166.048L224.643 165.707C224.59 165.6 224.536 165.493 224.479 165.387C224.422 165.28 224.368 165.161 224.311 165.05L224.13 164.722C224.069 164.615 224.011 164.508 223.945 164.398C223.88 164.287 223.814 164.176 223.744 164.065L223.551 163.749C223.482 163.638 223.404 163.523 223.33 163.412L223.125 163.101C223.051 162.99 222.969 162.875 222.891 162.764C222.813 162.653 222.747 162.559 222.673 162.46L222.419 162.115L222.193 161.82L221.922 161.471L221.688 161.184L221.397 160.835L221.163 160.556C221.06 160.437 220.957 160.318 220.851 160.203L220.613 159.932L220.28 159.571L220.042 159.312L219.689 158.947L219.451 158.701L219.082 158.327L218.848 158.097L218.437 157.715L218.203 157.498L217.793 157.112L217.567 156.903L217.136 156.513L216.919 156.32L216.459 155.909L216.258 155.741L215.773 155.331L215.585 155.175L215.08 154.764L214.903 154.625L214.374 154.214L214.218 154.091L213.66 153.652C213.614 153.62 213.57 153.586 213.528 153.549L212.937 153.102L212.835 153.024L212.211 152.56L212.141 152.507C211.923 152.347 211.706 152.187 211.484 152.031L211.443 152.002L210.754 151.505C203.448 147.302 196.199 144.421 191.955 144.979C191.779 145.189 191.598 145.414 191.409 145.648L191.356 145.714L190.744 146.473C194.943 149.137 210.413 159.636 212.966 171.293C215.921 184.805 194.048 187.629 187.777 204.839C183.217 217.345 186.956 242.711 198.383 260.586C199.635 259.56 200.827 258.464 201.954 257.302C202.196 257.052 202.422 256.81 202.643 256.572L202.684 256.522C202.894 256.301 203.095 256.079 203.275 255.866L203.345 255.788C203.522 255.587 203.682 255.377 203.842 255.209C203.87 255.168 203.907 255.131 203.936 255.094C204.117 254.876 204.289 254.684 204.449 254.462C202.713 250.154 201.239 245.744 200.037 241.258C197.336 231.029 196.232 221.109 197.291 214.029Z" fill="#4F5359"/>
<path fill-rule="evenodd" clip-rule="evenodd" d="M197.291 214.029C199.803 197.357 225.969 171.022 225.969 171.022C225.969 156.694 194.512 141.975 194.512 141.975C194.512 141.975 168.342 171.088 163.002 202.011C163 202.028 163 202.044 163.002 202.06C159.53 219.981 163.597 241.094 174.716 270.314C179.855 269.8 184.867 268.412 189.538 266.209C195.345 263.468 200.455 259.445 204.482 254.442C202.746 250.134 201.272 245.724 200.07 241.238C197.336 231.03 196.232 221.109 197.291 214.029Z" stroke="#141414" stroke-width="1.31" stroke-linecap="round"/>
<path d="M148.538 112.061C155.585 117.73 169.216 119.901 191.98 113.736C210.561 101.546 206.44 81.2901 206.44 81.2901C206.44 81.2901 189.23 80.5185 164.829 100.483C164.829 100.483 158.426 105.683 157.539 107.604" stroke="#141414" stroke-width="1.31" stroke-linecap="round"/>
<path d="M192.817 91.8265C192.817 91.8265 192.903 111.138 176.235 135.695C183.763 136.68 214.772 148.333 230.004 166.889C235.828 163.125 247.39 127.453 235.75 97.4292C230.283 84.8818 213.155 80.1001 206.444 81.2945" fill="#A0C0FE"/>
<path opacity="0.52" d="M240.187 115.878C239.806 115.616 239.334 115.522 238.881 115.62C241.931 124.133 236.731 159.267 229.741 152.884C217.981 138.58 184.329 135.576 176.649 135.067C176.51 135.276 176.379 135.477 176.239 135.695C183.767 136.68 214.776 148.333 230.008 166.889C234.666 163.876 242.986 140.481 240.187 115.878Z" fill="#A0C0FE"/>
<path d="M192.817 91.8265C192.817 91.8265 192.903 111.138 176.235 135.695C183.763 136.68 214.772 148.333 230.004 166.889C235.828 163.125 247.39 127.453 235.75 97.4292C230.283 84.8818 213.155 80.1001 206.444 81.2945" stroke="#141414" stroke-width="1.31" stroke-linecap="round"/>
<path d="M174.61 144.138C174.61 144.138 167.981 145.217 168.424 139.656C168.884 133.828 179.551 129.616 209.842 145.213C240.133 160.81 235.926 172.011 227.409 171.383C218.893 170.755 207.425 143.046 174.61 144.138Z" fill="#A0C0FE"/>
<path opacity="0.52" d="M232.651 163.142C232.651 163.142 228.136 170.559 218.897 159.534C209.658 148.509 183.369 136.848 171.601 144.027C172.592 144.227 173.609 144.259 174.61 144.122C207.425 143.046 218.897 170.739 227.41 171.367C232.027 171.708 235.376 168.568 232.651 163.142Z" fill="#7293DF"/>
<path fill-rule="evenodd" clip-rule="evenodd" d="M174.61 144.138C174.61 144.138 167.981 145.217 168.424 139.656C168.884 133.828 179.551 129.616 209.842 145.213C240.133 160.81 235.926 172.011 227.409 171.383C218.893 170.755 207.425 143.046 174.61 144.138Z" stroke="#141414" stroke-width="1.31"/>
<path d="M189.702 135.137C189.702 135.137 190.596 142.463 194.43 142.192C198.264 141.921 201.736 133.856 196.503 131.439C191.27 129.021 189.702 135.137 189.702 135.137Z" fill="#141414" stroke="#141414" stroke-width="1.31" stroke-linecap="round"/>
<path d="M193.248 125.315C184.009 127.568 180.233 131.061 179.675 131.369C178.854 131.841 180.179 133.011 182.63 132.65C180.348 134.8 178.599 138.999 179.203 139.808C179.806 140.616 182.26 137.119 182.26 137.119C182.26 137.119 179.506 142.193 180.311 142.866C181.115 143.539 183.943 138.026 183.943 138.026C183.943 138.026 181.657 143.268 183.204 143.469C184.752 143.67 185.556 138.597 185.556 138.597C185.556 138.597 185.556 143.477 186.767 143.477C189.386 143.477 184.715 135.831 195.817 138.519L196.228 138.593C197.336 133.877 194.947 128.418 193.248 125.315Z" fill="#FC9E7A" stroke="#141414" stroke-width="1.31" stroke-linecap="round"/>
<path d="M221.138 106.377C225.706 110.408 229.921 122.955 208.948 123.402C206.317 123.46 203.895 123.62 201.675 123.858C198.837 124.153 196.022 124.635 193.248 125.303C194.947 128.406 197.353 133.881 196.211 138.581C195.906 139.903 195.296 141.135 194.43 142.18C198.124 143.613 232.602 141.614 239.99 138.105C251.408 134.324 258.152 126.382 253.945 112.304C239.624 72.6957 210.63 79.6118 210.63 79.6118" fill="#A0C0FE"/>
<path opacity="0.52" d="M253.966 112.312C244.357 85.7599 228.161 80.108 218.528 79.2871C215.154 84.4259 212.416 96.8419 214.214 95.9554C214.214 95.9554 220.153 96.0908 221.138 87.6684C222.123 79.2461 239.78 92.7744 247.846 106.139C255.911 119.503 241.751 127.56 232.249 127.74C222.747 127.921 231.978 135.379 217.727 136.889C203.476 138.4 197.513 128.902 194.713 128.364C195.994 131.389 197.028 135.206 196.212 138.625C195.906 139.948 195.296 141.18 194.43 142.225C198.124 143.658 232.602 141.659 239.99 138.149C251.421 134.332 258.164 126.39 253.966 112.312Z" fill="#4769C2"/>
<path d="M221.138 106.377C225.706 110.408 229.921 122.955 208.948 123.402C206.317 123.46 203.895 123.62 201.675 123.858C198.837 124.153 196.022 124.635 193.248 125.303C194.947 128.406 197.353 133.881 196.211 138.581C195.906 139.903 195.296 141.135 194.43 142.18C198.124 143.613 232.602 141.614 239.99 138.105C251.408 134.324 258.152 126.382 253.945 112.304C239.624 72.6957 210.63 79.6118 210.63 79.6118" stroke="#141414" stroke-width="1.31" stroke-linecap="round"/>
<path d="M133.286 95.849L239.982 58.3916L133.286 95.849Z" fill="white"/>
<path d="M133.286 95.849L239.982 58.3916" stroke="#141414" stroke-width="1.31" stroke-linecap="round"/>
<path d="M207.4 96.1486C207.4 96.1486 195.637 87.677 207.704 75.9464C216.048 67.836 229.01 76.0162 226.174 80.8718C222.891 80.1658 218.95 81.0729 218.885 85.1076C218.819 89.1423 217.978 95.4262 213.372 96.165" fill="#7293DF"/>
<path d="M139.11 92.4422C139.11 92.4422 137.271 92.6803 137.362 94.9049C137.452 97.1295 143.875 92.6926 144.68 94.7366C145.484 96.7806 151.941 94.9131 150.599 90.8661C149.256 86.8191 139.11 92.4422 139.11 92.4422Z" fill="white"/>
<path d="M155.331 89.0435C155.331 89.0435 152.097 89.3554 152.458 91.7893C152.819 94.2233 160.618 89.0599 155.331 89.0435Z" fill="white"/>
<path opacity="0.52" d="M205.541 79.3982C205.541 79.3982 220.514 71.1893 226.474 80.1616C227.812 75.2896 215.667 68.2135 207.708 75.9463C206.451 77.1454 205.337 78.4855 204.387 79.94C204.782 79.7815 205.167 79.6006 205.541 79.3982Z" fill="#A0C0FE"/>
<path d="M207.4 96.1481C207.4 96.1481 195.637 87.6765 207.704 75.9459C216.048 67.8355 229.01 76.0157 226.174 80.8713C222.891 80.1653 218.95 81.0724 218.885 85.1071C218.819 89.1418 217.978 95.4257 213.372 96.1645" stroke="#141414" stroke-width="1.31" stroke-linecap="round"/>
<path d="M201.063 66.4153C201.063 66.4153 197.119 83.9783 206.44 81.2899C206.707 88.9981 206.707 93.0328 212.264 91.51C217.821 89.9873 212.083 69.8179 208.16 65.2414C204.236 60.6649 200.985 64.6217 201.063 66.4153Z" fill="#FC9E7A" stroke="#141414" stroke-width="1.31"/>
<path d="M209.35 69.461C209.35 69.461 208.377 69.5267 208.681 72.5886C208.985 75.6506 207.134 70.0438 207.638 67.6633C208.143 65.2827 197.923 71.2588 194.061 67.6633C190.199 64.0677 192.074 56.9424 196.749 57.4021C201.424 57.8618 203.337 61.0345 204.679 58.5103C206.021 55.986 213.857 56.967 214.193 61.9088C214.53 66.8506 211.234 68.2584 213.249 69.3338C215.265 70.4091 212.888 73.9513 211.333 72.72C209.777 71.4886 210.294 69.3953 209.35 69.461Z" fill="#0D0D0E" stroke="#141414" stroke-width="1.31"/>
<path d="M217.173 59.6472C218.808 59.6472 220.133 58.3222 220.133 56.6878C220.133 55.0534 218.808 53.7285 217.173 53.7285C215.539 53.7285 214.214 55.0534 214.214 56.6878C214.214 58.3222 215.539 59.6472 217.173 59.6472Z" fill="#0D0D0E" stroke="#141414" stroke-width="1.31"/>
<path d="M179.564 75.1046C179.475 74.9439 179.377 74.7877 179.272 74.6367C179.272 74.6367 179.383 74.8214 179.564 75.1046Z" fill="white" stroke="#141414" stroke-width="1.31"/>
<path d="M214.53 272.944C210.643 267.695 207.24 261.263 204.482 254.45C200.455 259.453 195.345 263.476 189.538 266.217C196.987 272.784 203.903 277.115 207.265 280.123C210.53 278.77 213.138 276.194 214.53 272.944Z" fill="#FC9E7A"/>
<path fill-rule="evenodd" clip-rule="evenodd" d="M214.53 272.944C210.643 267.695 207.24 261.263 204.482 254.45C200.455 259.453 195.345 263.476 189.538 266.217C196.987 272.784 203.903 277.115 207.265 280.123C210.53 278.77 213.138 276.194 214.53 272.944V272.944Z" stroke="#141414" stroke-width="1.31" stroke-linecap="round"/>
<path d="M208.41 281.248C214.505 288.061 207.335 304.192 207.872 305.628C208.41 307.065 219.701 285.011 218.807 278.022C217.268 276.427 215.839 274.731 214.53 272.944C213.138 276.194 210.53 278.77 207.265 280.123C207.666 280.477 208.048 280.853 208.41 281.248Z" fill="#141414" stroke="#141414" stroke-width="1.31" stroke-linecap="round"/>
<path d="M237.465 218.429C234.403 218.462 230.036 218.449 225.23 218.236C225.652 222.762 227.024 227.148 229.256 231.107C232.273 230.406 235.364 229.618 238.524 228.723C239.735 224.77 238.36 220.543 237.465 218.429Z" fill="#FC9E7A" stroke="#141414" stroke-width="1.31" stroke-linecap="round"/>
<path d="M253.584 243.248C253.916 239.796 242.961 218.24 242.961 218.24C242.961 218.24 240.228 218.4 237.466 218.433C238.36 220.542 239.735 224.77 238.525 228.727C247.308 235.179 253.309 246.068 253.584 243.248Z" fill="#141414" stroke="#141414" stroke-width="1.31" stroke-linecap="round"/>
<path d="M132.486 103.274C127.815 102.601 134.3 98.0981 133.159 95.3071C132.018 92.5161 128.882 93.9198 128.603 93.8623L114.327 105.256C115.538 106.241 117.451 108.253 116.811 110.777L134.493 110.953C139.656 108.249 137.156 103.943 132.486 103.274Z" fill="#4769C2"/>
<path opacity="0.51" d="M115.94 106.947C116.795 108.026 117.115 109.434 116.811 110.777L134.493 110.953C138.946 108.622 137.698 105.1 134.271 103.742C127.971 107.649 123.542 104.94 115.94 106.947H115.94Z" fill="#1CA4E8"/>
<path fill-rule="evenodd" clip-rule="evenodd" d="M132.485 103.274C127.814 102.601 134.3 98.0981 133.158 95.3071C132.017 92.5161 128.882 93.9198 128.602 93.8623L114.327 105.256C115.538 106.241 117.451 108.253 116.81 110.777L134.492 110.953C139.656 108.249 137.156 103.943 132.485 103.274V103.274Z" stroke="#141414"/>
<path d="M114.327 105.256L107.522 110.686L116.81 110.776C117.451 108.252 115.538 106.241 114.327 105.256Z" fill="#141414" stroke="#141414"/>
<path d="M243.745 236.788C243.745 236.788 240.581 239.349 241.98 240.945C243.38 242.542 243.745 236.788 243.745 236.788Z" fill="white" stroke="white"/>
<path d="M242.243 235.306C242.243 235.306 238.27 234.436 237.896 236.537C237.523 238.639 242.243 235.306 242.243 235.306Z" fill="white" stroke="white"/>
<path d="M207.018 288.992C207.018 288.992 202.967 289.403 203.263 291.508C203.558 293.614 207.018 288.992 207.018 288.992Z" fill="white" stroke="white"/>
<path d="M206.571 286.932C206.571 286.932 203.723 284.026 202.265 285.573C200.808 287.12 206.571 286.932 206.571 286.932Z" fill="white" stroke="white"/>
<path d="M206.44 81.2899C206.44 81.2899 209.42 80.5306 209.957 79.5455C210.495 78.5604 210.581 82.8619 206.53 83.8223C206.493 82.747 206.44 81.2899 206.44 81.2899H206.44Z" fill="#141414" stroke="#141414"/>
<path d="M71.1728 46.3857C72.1022 46.3857 72.8557 45.6323 72.8557 44.7029C72.8557 43.7734 72.1022 43.02 71.1728 43.02C70.2434 43.02 69.49 43.7734 69.49 44.7029C69.49 45.6323 70.2434 46.3857 71.1728 46.3857Z" fill="white"/>
<path d="M80.8923 46.3857C81.8217 46.3857 82.5751 45.6323 82.5751 44.7029C82.5751 43.7734 81.8217 43.02 80.8923 43.02C79.9629 43.02 79.2095 43.7734 79.2095 44.7029C79.2095 45.6323 79.9629 46.3857 80.8923 46.3857Z" fill="white"/>
<path d="M90.6115 46.3857C91.5409 46.3857 92.2944 45.6323 92.2944 44.7029C92.2944 43.7734 91.5409 43.02 90.6115 43.02C89.6821 43.02 88.9287 43.7734 88.9287 44.7029C88.9287 45.6323 89.6821 46.3857 90.6115 46.3857Z" fill="white"/>
<path d="M239.936 175.131C242.054 175.131 243.77 173.414 243.77 171.297C243.77 169.18 242.054 167.463 239.936 167.463C237.819 167.463 236.103 169.18 236.103 171.297C236.103 173.414 237.819 175.131 239.936 175.131Z" fill="white" stroke="#141414"/>
<path d="M270.433 74.9279H283.07" stroke="white"/>
<path d="M332.229 82.7267H340.43" stroke="white"/>
<path d="M262.815 82.7267H283.07" stroke="white"/>
<path d="M262.815 90.525H283.07" stroke="white"/>
<path d="M262.815 98.3195H283.07" stroke="white"/>
<path d="M262.815 106.118H283.07" stroke="white"/>
<path d="M262.815 113.916H283.07" stroke="white"/>
<path fill-rule="evenodd" clip-rule="evenodd" d="M336.33 77.3907C338.594 77.3907 340.43 75.5549 340.43 73.2903C340.43 71.0257 338.594 69.1899 336.33 69.1899C334.065 69.1899 332.229 71.0257 332.229 73.2903C332.229 75.5549 334.065 77.3907 336.33 77.3907Z" stroke="white"/>
<path d="M271.073 44.1857H276.897H271.073Z" fill="#5CC9FF"/>
<path d="M271.073 44.1857H276.897" stroke="#141414" stroke-linecap="round"/>
<path fill-rule="evenodd" clip-rule="evenodd" d="M72.8557 55.481H86.8766V59.9836H72.8557V55.481Z" stroke="white"/>
<path d="M70.8691 63.1196H75.1953V67.4457H70.8691V63.1196Z" fill="#141414" stroke="#141414" stroke-linecap="round"/>
<path d="M70.6353 183.364H74.9614V187.69H70.6353V183.364Z" fill="#141414" stroke="#141414" stroke-linecap="round"/>
<path d="M214.242 315.721C241.166 315.721 262.991 314.514 262.991 313.025C262.991 311.535 241.166 310.328 214.242 310.328C187.319 310.328 165.494 311.535 165.494 313.025C165.494 314.514 187.319 315.721 214.242 315.721Z" fill="#141414" stroke="#141414" stroke-linecap="round"/>
<path d="M195.366 66.9081C195.366 66.9081 192.805 65.2951 193.248 62.6723C193.691 60.0495 194.631 65.8984 195.711 64.7902C196.79 63.682 197.381 67.9835 195.366 66.9081Z" fill="white"/>
<path d="M161.172 107.038C161.172 107.038 166.347 100.179 169.574 100.38C172.8 100.581 164.464 104.686 166.549 106.065C168.634 107.444 157.74 112.23 161.172 107.038Z" fill="white"/>
<path d="M170.977 99.3704C170.977 99.3704 171.909 96.8216 172.919 97.4249C173.928 98.0283 171.322 100.844 170.977 99.3704Z" fill="white"/>
<path d="M154.096 78.1337C154.096 78.1337 157.194 72.921 157.839 73.9635C158.483 75.0061 156.472 77.1527 157.839 77.4729C159.206 77.793 152.889 81.5609 154.096 78.1337Z" fill="white"/>
<path d="M197.923 126.529C197.923 126.529 204.375 123.706 205.118 126.529C205.861 129.353 205.988 125.709 207.4 127.539C208.812 129.37 192.008 130.363 197.923 126.529Z" fill="white"/>
<path d="M208.492 126.932C208.492 126.932 207.671 124.851 209.822 124.986C211.973 125.122 211.87 127.338 208.492 126.932Z" fill="white"/>
<path d="M214.214 125.98C214.214 125.98 224.676 124.917 227.434 117.118C230.192 109.32 224.233 105.022 224.233 105.022" stroke="white" stroke-width="1.31" stroke-linecap="round"/>
<path d="M175.127 96.8219C175.127 96.8219 181.514 91.4861 188.101 89.0234" stroke="white" stroke-width="1.31" stroke-linecap="round"/>
<path d="M161.96 74.4441C161.96 74.4441 170.23 69.4613 176.736 70.4012" stroke="white" stroke-width="1.31" stroke-linecap="round"/>
<path d="M203.099 61.0432C203.576 61.0301 204.032 60.845 204.384 60.522" stroke="white" stroke-width="1.31" stroke-linecap="round"/>
<path d="M194.007 60.5218C194.007 60.5218 194.75 57.5625 197.771 59.0442C198.83 59.5573 199.778 60.0498 200.644 60.4151" stroke="white" stroke-width="1.31" stroke-linecap="round"/>
<path d="M191.134 112.062C189.628 116.872 187.317 122.134 183.795 126.394" stroke="white" stroke-width="1.31" stroke-linecap="round"/>
<path d="M192.71 106.065C192.505 107.038 192.263 108.076 191.98 109.156" stroke="white" stroke-width="1.31" stroke-linecap="round"/>
<path d="M170.308 141.815C169.696 140.867 169.566 139.688 169.955 138.63C170.632 136.881 172.984 136.142 172.717 137.488C172.451 138.835 171.371 140.805 172.516 140.994C173.661 141.183 172.209 143.317 170.308 141.815Z" fill="white"/>
<path d="M173.928 138.158C173.928 138.158 173.723 136.438 175.541 136.795C177.36 137.152 174.396 139.303 173.928 138.158Z" fill="white"/>
<path d="M166.097 222.275C166.097 222.275 162.514 212.424 166.097 207.753C169.68 203.082 170.423 229.802 166.097 222.275Z" fill="white"/>
<path d="M166.795 204.112C166.795 204.112 165.51 201.12 166.795 198.777C168.079 196.433 171.264 201.953 166.795 204.112Z" fill="white"/>
<path d="M168.617 238.693C169.483 243.243 170.586 247.745 171.921 252.18" stroke="white" stroke-width="1.31" stroke-linecap="round"/>
<path d="M167.665 232.885C167.769 233.626 167.88 234.373 167.997 235.126" stroke="white" stroke-width="1.31" stroke-linecap="round"/>
<path d="M167.029 227.307C167.09 227.984 167.156 228.666 167.23 229.359" stroke="white" stroke-width="1.31" stroke-linecap="round"/>
<path d="M169.996 191.709C169.723 192.743 169.449 193.8 169.175 194.878" stroke="white" stroke-width="1.31" stroke-linecap="round"/>
<path d="M171.934 185.482C171.638 186.303 171.351 187.186 171.072 188.06" stroke="white" stroke-width="1.31" stroke-linecap="round"/>
<path d="M186.693 159.045C183.307 163.064 177.536 170.948 173.046 182.478" stroke="white" stroke-width="1.31" stroke-linecap="round"/>
<path d="M189.534 155.951C189.534 155.951 189.123 156.32 188.454 157.055" stroke="white" stroke-width="1.31" stroke-linecap="round"/>
<path d="M152.618 204.708C152.618 204.708 151.206 197.045 153.291 191.935C155.376 186.824 152.618 196.979 155.04 196.708C157.461 196.437 153.628 209.949 152.618 204.708Z" fill="white"/>
<path d="M154.568 188.056C154.568 188.056 154.732 185.076 155.828 183.664C156.924 182.252 155.171 190.305 154.568 188.056Z" fill="white"/>
<path d="M158.972 173.506C160.823 169.081 163.782 162.555 166.224 159.669" stroke="white" stroke-width="1.31" stroke-linecap="round"/>
<path d="M157.19 177.955C157.19 177.955 157.445 177.282 157.88 176.182" stroke="white" stroke-width="1.31" stroke-linecap="round"/>
<path d="M303.74 74.9282C303.74 74.9282 293.643 80.108 293.914 86.7531C294.185 93.3983 299.427 77.8628 305.407 77.3908C311.387 76.9188 307.636 72.4039 303.74 74.9282Z" fill="white"/>
<path d="M293.377 90.0122C292.037 90.482 291.201 91.8157 291.361 93.226C291.563 95.742 296.738 90.8044 293.377 90.0122V90.0122Z" fill="white"/>
<path d="M170.616 84.9598L197.385 75.9136" stroke="white" stroke-width="1.31" stroke-linecap="round"/>
<path d="M165.112 86.8188L167.447 86.0308" stroke="white" stroke-width="1.31" stroke-linecap="round"/>
<path d="M221.438 67.4377L234.761 62.9351" stroke="white" stroke-width="1.31" stroke-linecap="round"/>
<path d="M215.938 69.2968L218.269 68.5088" stroke="white" stroke-width="1.31" stroke-linecap="round"/>
<path d="M158.524 89.0437L161.377 88.0791" stroke="white" stroke-width="1.31" stroke-linecap="round"/>
<path d="M124.428 100.376C124.428 100.376 117.861 102.744 118.785 104.505C119.708 106.266 127.433 101.168 124.428 100.376Z" fill="white"/>
<path d="M126.316 99.3417C126.316 99.3417 127.527 96.5999 128.443 97.9338C129.358 99.2678 127.482 100.22 126.316 99.3417Z" fill="white"/>
<path d="M243.163 58.3914C243.163 58.3914 248.338 55.6168 250.021 57.16C251.704 58.7033 245.248 58.7649 246.59 60.5134C247.932 62.2619 240.999 59.36 243.163 58.3914Z" fill="white"/>
<path d="M251.564 55.9494C251.564 55.9494 253.247 54.6073 254.524 55.2106C255.8 55.814 250.239 57.9647 251.564 55.9494Z" fill="white"/>
<path d="M204.383 83.8228C204.383 83.8228 202.512 89.4459 208.328 94.6462" stroke="white"/>
<path d="M202.676 71.9692C202.676 72.2401 202.631 74.5715 202.138 75.6633C201.646 76.7551 203.325 76.1353 204.043 75.9095" stroke="#141414"/>
<path d="M240.61 232.671C240.61 232.671 243.86 232.261 243.745 228.838" stroke="white"/>
<path d="M242.687 234.285C242.687 234.285 245.937 233.874 245.822 230.455" stroke="white"/>
<path d="M244.763 235.901C244.763 235.901 248.01 235.491 247.899 232.068" stroke="white"/>
<path d="M208.615 286.51C208.615 286.51 210.622 289.1 213.512 287.253" stroke="white"/>
<path d="M208.287 289.12C208.287 289.12 210.294 291.706 213.183 289.859" stroke="white"/>
<path d="M207.963 291.73C207.963 291.73 209.97 294.316 212.859 292.469" stroke="white"/>
<path d="M203.554 77.8755C203.416 77.911 203.302 78.0108 203.249 78.144C203.197 78.2772 203.211 78.4276 203.288 78.5486C203.749 79.2911 204.64 79.6475 205.486 79.4284C206.333 79.2092 206.938 78.4655 206.982 77.5922C206.989 77.4502 206.928 77.3133 206.818 77.2234C206.708 77.1334 206.561 77.1012 206.423 77.1366L203.554 77.8755Z" fill="white" stroke="#141414"/>
<path d="M205.334 71.7334C206.294 71.6097 207.034 71.216 206.987 70.8541C206.941 70.4921 206.125 70.2989 205.165 70.4226C204.205 70.5462 203.464 70.9399 203.511 71.3019C203.558 71.6639 204.374 71.857 205.334 71.7334Z" fill="white" stroke="#141414"/>
<path d="M204.552 70.5366C203.912 70.7131 203.476 71.0086 203.513 71.2877C203.55 71.5668 204.043 71.7433 204.708 71.7556C205.057 71.612 205.287 71.3452 205.25 71.0661C205.213 70.787 204.925 70.5818 204.552 70.5366V70.5366Z" fill="#141414"/>
<path d="M199.667 72.6348C200.627 72.5111 201.367 72.1174 201.321 71.7554C201.274 71.3935 200.458 71.2003 199.498 71.3239C198.538 71.4476 197.798 71.8413 197.844 72.2033C197.891 72.5652 198.707 72.7584 199.667 72.6348Z" fill="white" stroke="#141414" stroke-width="1.31"/>
<path d="M198.883 71.4438C198.243 71.6203 197.808 71.9159 197.845 72.195C197.882 72.4741 198.374 72.6506 199.039 72.6588C199.388 72.5192 199.618 72.2483 199.581 71.9692C199.492 71.6582 199.207 71.444 198.883 71.4438Z" fill="#141414"/>
</svg>
