<svg width="367" height="367" viewBox="0 0 367 367" fill="none" xmlns="http://www.w3.org/2000/svg">
<mask id="mask0_13_2262" style="mask-type:alpha" maskUnits="userSpaceOnUse" x="18" y="40" width="335" height="276">
<path fill-rule="evenodd" clip-rule="evenodd" d="M65.5623 90.4059C65.5623 90.4059 124.04 27.8648 217.175 42.4864C310.31 57.108 217.175 128.853 305.703 150.51C394.232 172.167 338.734 288.856 286.212 305.91C233.69 322.964 202.553 319.988 178.46 282.088C154.366 244.188 91.2818 273.695 50.9407 248.514C10.5996 223.334 -0.226709 161.069 65.5623 90.4059Z" fill="white"/>
</mask>
<g mask="url(#mask0_13_2262)">
<path d="M65.5623 90.4059C65.5623 90.4059 124.04 27.8648 217.175 42.4864C310.31 57.108 217.175 128.853 305.703 150.51C394.232 172.167 338.734 288.856 286.212 305.91C233.69 322.964 202.553 319.988 178.46 282.088C154.366 244.188 91.2818 273.695 50.9407 248.514C10.5996 223.334 -0.226709 161.069 65.5623 90.4059Z" fill="#D1D6F0"/>
<g opacity="0.59">
<path d="M302.135 144.197C302.135 144.197 325.052 197.886 287.91 232.563C250.769 267.24 300.03 285.085 319.793 264.239C339.556 243.393 352.54 179.38 326.836 150.056C301.133 120.732 302.135 144.197 302.135 144.197Z" fill="#4466C5"/>
<path d="M86.9511 191.411C86.9511 191.411 81.5339 226.858 122.686 230.378C163.838 233.897 199.585 246.893 202.829 266.384C206.073 285.876 271.318 258.96 239.103 225.175C206.888 191.391 180.507 191.926 150.652 193.017C120.796 194.108 86.9511 191.411 86.9511 191.411Z" fill="#4466C5"/>
<path d="M215.598 323.236C215.598 323.236 217.402 293.186 248.036 297.249C278.67 301.312 268.902 273.962 314.94 291.292C360.978 308.623 245.7 334.877 215.598 323.236Z" fill="#4466C5"/>
<path d="M245.87 158.125C245.87 158.125 285.36 160.12 289.577 184.826C293.794 209.532 275.92 239.456 260.743 225.175C245.566 210.894 265.84 173.521 221.87 169.19C177.9 164.86 219.34 148.953 245.87 158.125Z" fill="#4466C5"/>
<path d="M6.54052 177.446C7.04737 178.294 24.6817 208.988 43.6338 197.347C62.5858 185.706 25.4926 177.041 36.0513 163.773C46.61 150.506 41.8091 127.495 27.8282 127.495C13.8473 127.495 -3.20314 161.069 6.54052 177.446Z" fill="#4466C5"/>
<path d="M72.4307 262.593C72.4307 262.593 102.667 234.98 114.978 252.862C127.288 270.743 138.09 243.941 147.582 257.727C157.074 271.514 109.621 284.254 72.4307 262.593H72.4307Z" fill="#4466C5"/>
<path d="M188.074 35.4473C188.074 35.4473 241.536 39.8711 246.41 74.0732C251.284 108.275 206.081 91.3588 202.829 75.4519C199.577 59.5449 186.346 52.745 171.709 56.8201C157.071 60.8951 130.07 46.2776 153.316 35.4473C176.562 24.6169 188.074 35.4473 188.074 35.4473Z" fill="#4466C5"/>
<path d="M265.017 91.0508C265.017 91.0508 247.423 97.8791 252.739 115.266C258.055 132.653 241.094 134.007 251.738 141.046C262.382 148.085 275.661 137.888 271.606 122.8C267.551 107.712 265.017 91.0508 265.017 91.0508Z" fill="#4466C5"/>
<path d="M167.889 95.3161C167.889 95.3161 179.842 84.1005 185.385 93.3455C190.928 102.59 212.175 109.808 202.63 124.069C193.085 138.329 148.831 143.633 167.889 95.3161Z" fill="#4466C5"/>
</g>
</g>
<path d="M60.3965 54.2168H158.372V215.212H60.3965L60.3965 54.2168Z" fill="white" stroke="#111111" stroke-width="1.34"/>
<path d="M84.4697 122.804H105.21V143.536H84.4697C78.7435 143.536 74.1016 138.894 74.1016 133.168C74.1038 127.443 78.7451 122.804 84.4697 122.804V122.804Z" fill="#353535" stroke="#111111" stroke-width="1.34"/>
<path d="M71.9038 73.2744H110.737V107.777H71.9038L71.9038 73.2744Z" fill="#111111" stroke="#111111" stroke-width="1.34"/>
<path d="M75.3706 68.4775H124.608V102.98H75.3706L75.3706 68.4775Z" fill="white" stroke="#111111" stroke-width="1.34"/>
<rect x="67.8818" y="202.038" width="94.1928" height="7.78926" rx="3.89463" fill="#111111" stroke="#111111" stroke-width="1.34"/>
<rect x="69.897" y="199.873" width="94.1928" height="7.78926" rx="3.89463" fill="white" stroke="#111111" stroke-width="1.34"/>
<path d="M310.394 201.864C309.199 201.864 308.229 200.894 308.229 199.698V180.207C308.227 178.215 306.613 176.601 304.62 176.598H170.322C169.525 176.633 168.774 176.227 168.365 175.543C167.956 174.858 167.956 174.004 168.365 173.319C168.774 172.635 169.525 172.229 170.322 172.264H304.62C309.006 172.268 312.559 175.822 312.564 180.207V199.719C312.55 200.907 311.583 201.864 310.394 201.864Z" fill="white" stroke="#111111" stroke-width="1.34"/>
<path fill-rule="evenodd" clip-rule="evenodd" d="M83.7685 126.214H104.509V146.946H83.7685C78.0471 146.939 73.4126 142.299 73.4126 136.578C73.4148 130.858 78.0487 126.221 83.7685 126.214V126.214Z" stroke="#111111" stroke-width="1.34"/>
<path d="M92.5025 129.664C87.4138 132.264 91.7686 140.207 97.1047 133.59C116.722 147.745 133.018 155.043 146.046 158.486C145.493 155.055 145.222 151.585 145.235 148.11C145.213 144.4 145.521 140.695 146.156 137.04L146.078 136.971C123.108 136.724 101.488 125.066 92.5025 129.664Z" fill="white"/>
<path d="M101.273 74.0732H176.072V193.017H101.273V74.0732Z" fill="white" stroke="#111111" stroke-width="1.34"/>
<path d="M107.4 89.98H141.821V122.804H107.4V89.98Z" fill="#111111" stroke="#111111" stroke-width="1.34"/>
<path d="M109.743 87.6079H144.164V120.431H109.743V87.6079Z" fill="white" stroke="#111111" stroke-width="1.34"/>
<path d="M106.885 156.126H128.854V187.397H106.885V156.126Z" fill="#111111" stroke="#111111" stroke-width="1.34"/>
<path d="M109.743 153.555H131.712V184.826H109.743V153.555Z" fill="white" stroke="#111111" stroke-width="1.34"/>
<path d="M109.743 106.532L122.325 93.7471L130.269 105.656L138.674 98.4385L144.164 104.022L143.443 117.208" fill="white"/>
<path d="M109.743 106.532L122.325 93.7471L130.269 105.656L138.674 98.4385L144.164 104.022L143.443 117.208" stroke="#111111" stroke-width="1.34"/>
<path d="M125.585 98.4385H188.074V172.078H125.585V98.4385Z" fill="white" stroke="#111111" stroke-width="1.34"/>
<path d="M125.585 98.4385H188.074V106.532H125.585V98.4385Z" fill="#353535" stroke="#3C3C3C" stroke-width="1.34"/>
<path d="M195.786 220.902C200.335 217.986 204.264 217.126 207.658 217.751C211.308 196.212 213.4 175.922 208.49 175.419C197.947 174.332 182.604 164.512 167.763 182.186C167.763 182.186 141.508 203.677 145.701 226.858C146.095 229.021 146.726 231.134 147.583 233.159C155.506 234.359 173.874 234.935 195.786 220.902Z" fill="#4769C2" stroke="#111111" stroke-width="1.34"/>
<path d="M184.688 176.789L181.704 173.65C180.487 174.81 152.663 201.592 155.518 228.589C156.888 228.54 158.356 228.455 159.848 228.309C157.095 203.368 184.404 177.06 184.688 176.789Z" fill="white" stroke="#111111" stroke-width="1.34"/>
<path d="M196.617 172.779C198.835 175.171 189.019 210.748 181.302 218.736C173.586 226.724 167.63 226.991 162.383 228.009C167.293 226.184 171.689 221.306 170.002 207.662C168.315 194.018 190.049 182.928 186.221 174.514C187.214 174.332 193.84 169.782 196.617 172.779Z" fill="#333333" stroke="#111111" stroke-width="1.34"/>
<path d="M145.993 228.337C145.993 228.337 168.534 230.77 178.294 221.712" stroke="#111111" stroke-width="1.34"/>
<path d="M197.266 268.821C197.266 268.821 203.478 242.465 207.658 217.751C204.264 217.126 200.335 217.986 195.786 220.901C173.89 234.935 155.506 234.359 147.583 233.159C157.719 257.297 197.266 268.821 197.266 268.821Z" fill="#FC9E7A"/>
<path d="M187.968 265.483C204.593 272.251 191.038 239.626 185.166 226.752C168.047 234.72 154.184 234.16 147.583 233.159C147.583 233.159 160.4 237.777 167.715 238.949C175.029 240.121 167.337 257.09 187.968 265.483Z" fill="#F97A53"/>
<path fill-rule="evenodd" clip-rule="evenodd" d="M197.266 268.821C197.266 268.821 203.478 242.465 207.658 217.751C204.264 217.126 200.335 217.986 195.786 220.901C173.89 234.935 155.506 234.359 147.583 233.159C157.719 257.297 197.266 268.821 197.266 268.821V268.821Z" stroke="#111111" stroke-width="1.34"/>
<path d="M219.219 240.3C220.512 226.785 225.025 212.208 234.773 197.347C237.66 176.047 208.51 169.304 208.51 169.304C208.51 169.304 174.77 172.954 176.112 229.112C176.26 236.18 177.212 243.208 178.951 250.059C183.849 251.653 199.585 254.945 219.219 240.3Z" fill="#4769C2"/>
<path fill-rule="evenodd" clip-rule="evenodd" d="M219.218 240.3C220.512 226.785 225.025 212.208 234.773 197.347C237.66 176.047 208.51 169.304 208.51 169.304C208.51 169.304 196.131 170.646 186.667 184.185C184.798 186.882 183.207 189.761 181.918 192.777C178.196 201.382 175.731 213.116 176.112 229.112C176.259 236.18 177.212 243.208 178.95 250.059C183.849 251.653 199.585 254.945 219.218 240.3V240.3Z" stroke="#111111" stroke-width="1.34"/>
<path d="M223.715 177.446L224.701 179.676L222.726 175.216C222.369 175.374 213.903 179.218 206.673 190.04C200.591 199.127 194.367 215.001 197.42 240.105C197.607 241.632 197.827 243.196 198.081 244.796C199.634 244.492 201.224 244.115 202.829 243.649C202.575 242.027 202.359 240.434 202.18 238.872C200.048 220.39 202.902 204.633 210.554 193.008C216.985 183.232 224.636 179.7 224.709 179.668L223.715 177.446Z" fill="white" stroke="#111111" stroke-width="1.34"/>
<path d="M192.656 177.365C192.433 177.568 192.214 177.77 191.991 177.985C198.811 179.583 217.739 184.667 219.069 192.201C220.691 201.406 208.932 197.671 211.896 207.662C214.86 217.653 204.913 222.259 207.658 236.739C208.786 242.671 214.146 239.537 220.099 233.771C222.089 222.138 226.586 209.848 234.773 197.347C235.213 194.344 234.952 191.279 234.011 188.394C227.9 182.04 215.817 176.976 192.656 177.365Z" fill="#333333" stroke="#111111" stroke-width="1.34"/>
<path d="M229.522 311.055C234.388 314.486 234.035 334.168 234.035 334.168C234.035 334.168 237.1 323.881 240.891 311.968C239.144 310.086 215.436 279.728 219.202 240.312C199.569 254.957 183.832 251.665 178.942 250.071C189.448 290.952 225.321 308.087 229.522 311.055Z" fill="#FC9E7A"/>
<path d="M207.659 251.535C217.986 247.16 203.908 266.473 214.917 281.273C225.925 296.073 238.629 310.468 236.216 318.273C234.951 322.352 234.343 328.045 234.051 332.546V334.168C234.051 334.168 237.117 323.881 240.908 311.968C239.16 310.086 215.452 279.728 219.219 240.312C201.049 253.867 186.221 252.07 180.236 250.449C180.06 250.426 179.888 250.378 179.725 250.307C179.725 250.307 196.455 257.179 207.659 251.535Z" fill="#F97A53"/>
<path fill-rule="evenodd" clip-rule="evenodd" d="M229.522 311.055C234.388 314.486 234.035 334.168 234.035 334.168C234.035 334.168 237.1 323.881 240.891 311.968C239.144 310.086 215.436 279.728 219.202 240.312C199.569 254.957 183.832 251.665 178.942 250.071C189.448 290.952 225.321 308.087 229.522 311.055V311.055Z" stroke="#111111" stroke-width="1.34"/>
<path d="M252.289 146.946C248.498 129.62 218.797 115.043 218.797 115.043C207.443 113.015 198.628 119.239 168.578 132.64C166.111 133.736 163.555 134.622 160.939 135.288C158.818 140.247 155.797 150.782 162.382 161.093C164.613 161.198 166.848 161.175 169.077 161.024C185.774 152.408 189.918 133.09 191.455 130.272C191.289 144.387 185.758 156.008 184.83 157.845L184.805 157.898L184.696 158.113C183.346 160.72 179.368 167.268 167.767 182.17C216.092 167.431 234.793 197.347 234.793 197.347C234.793 197.347 256.076 164.272 252.289 146.946Z" fill="#A0C0FE"/>
<path fill-rule="evenodd" clip-rule="evenodd" d="M252.289 146.946C248.498 129.62 218.797 115.043 218.797 115.043C207.443 113.015 198.628 119.239 168.578 132.64C166.111 133.736 163.555 134.622 160.939 135.288C158.818 140.247 155.797 150.782 162.382 161.093C177.766 161.782 185.373 156.6 185.373 156.6C185.373 156.6 184.416 160.797 167.763 182.186C216.092 167.431 234.793 197.347 234.793 197.347C234.793 197.347 256.076 164.272 252.289 146.946V146.946Z" stroke="#111111" stroke-width="1.34"/>
<path d="M184.83 157.857C185.759 156.008 191.289 144.387 191.456 130.285C189.919 133.123 185.779 152.42 169.077 161.036C179.972 160.29 185.373 156.612 185.373 156.612C185.232 157.044 185.05 157.461 184.83 157.857Z" fill="#353535" stroke="#111111" stroke-width="1.34"/>
<path d="M232.47 147.262C232.563 144.829 228.009 139.533 222.179 135.888C222.722 137.583 226.311 145.908 223.132 149.902C219.953 153.896 231.051 155.651 232.47 147.262Z" fill="#353535" stroke="#111111" stroke-width="1.34"/>
<path d="M150.652 167.905C153.637 167.905 156.057 159.042 156.057 148.109C156.057 137.177 153.637 128.314 150.652 128.314C147.667 128.314 145.247 137.177 145.247 148.109C145.247 159.042 147.667 167.905 150.652 167.905Z" fill="#353535" stroke="#111111" stroke-width="1.34"/>
<path d="M145.247 148.11C145.234 151.585 145.505 155.055 146.058 158.486C151.395 159.934 156.872 160.808 162.395 161.093C155.81 150.782 158.83 140.248 160.951 135.289C156.097 136.499 151.104 137.065 146.102 136.971L146.179 137.04C145.541 140.695 145.229 144.4 145.247 148.11Z" fill="#FC9E7A"/>
<path d="M146.046 158.486C151.383 159.934 156.86 160.808 162.382 161.093C155.797 150.782 158.818 140.248 160.939 135.289L160.712 135.345C158.94 137.693 156.341 142.559 155.988 151.187C155.988 155.433 150.615 149.797 145.251 148.787C145.266 152.036 145.532 155.278 146.046 158.486Z" fill="#F97A53"/>
<path fill-rule="evenodd" clip-rule="evenodd" d="M145.247 148.11C145.234 151.585 145.506 155.055 146.058 158.486C151.396 159.934 156.872 160.808 162.395 161.093C155.81 150.782 158.831 140.248 160.951 135.289C156.097 136.499 151.105 137.065 146.103 136.971L146.18 137.04C145.542 140.695 145.23 144.4 145.247 148.11V148.11Z" stroke="#111111" stroke-width="1.34"/>
<path fill-rule="evenodd" clip-rule="evenodd" d="M92.5025 129.664C87.4138 132.264 91.7686 140.207 97.1047 133.59C116.722 147.745 133.018 155.043 146.046 158.486C145.493 155.055 145.222 151.585 145.235 148.11C145.213 144.4 145.521 140.695 146.156 137.04L146.078 136.971C123.108 136.724 101.488 125.066 92.5025 129.664V129.664Z" stroke="#111111" stroke-width="1.34"/>
<path d="M259.933 136.704C243.961 115.177 218.781 115.043 218.781 115.043C213.104 121.81 204.703 130.609 213.793 132.369C222.884 134.129 232.587 143.723 232.445 147.262C250.287 144.793 257.236 157.501 259.102 161.933C266.571 155.761 267.094 146.33 259.933 136.704Z" fill="#A0C0FE"/>
<path d="M232.47 147.262C192.129 154.155 194.16 166.753 197.266 168.647C200.372 170.541 202.282 168.108 201.199 164.045C230.158 172.203 249.926 169.559 259.126 161.932C257.261 157.5 250.303 144.793 232.47 147.262Z" fill="#FC9E7A"/>
<path fill-rule="evenodd" clip-rule="evenodd" d="M232.47 147.262C192.129 154.155 194.16 166.753 197.266 168.647C200.372 170.541 202.282 168.108 201.199 164.045C230.158 172.203 249.926 169.559 259.126 161.932C257.261 157.5 250.303 144.793 232.47 147.262Z" stroke="#111111" stroke-width="1.34"/>
<path d="M259.122 161.932C257.257 157.5 250.299 144.793 232.466 147.262L232.295 147.29C236.922 148.207 248.551 150.993 250.063 156.126C251.957 162.557 231.886 149.995 230.398 159.714C229.489 165.671 200.518 154.974 199.435 164.175C199.18 166.352 198.596 167.881 197.854 168.955C200.603 170.208 202.209 167.832 201.195 164.037C230.159 172.203 249.926 169.559 259.122 161.932Z" fill="#F97A53"/>
<path d="M222.179 135.889C227.997 139.538 232.563 144.838 232.47 147.262C192.129 154.155 194.16 166.754 197.266 168.647C200.372 170.541 202.282 168.108 201.199 164.045C253.587 178.801 275.921 158.226 259.949 136.704C243.977 115.181 218.797 115.043 218.797 115.043" stroke="#111111" stroke-width="1.34" stroke-linecap="round"/>
<path d="M212.491 96.2124C212.491 96.2124 201.75 108.636 212.341 111.9C211.847 117.739 210.067 128.578 210.067 128.578C210.067 128.578 220.609 119.442 221.509 114.491C222.409 109.541 221.4 95.6691 221.4 95.6691C221.4 95.6691 215.37 93.0781 212.491 96.2124Z" fill="#FC9E7A"/>
<path d="M221.518 114.492C222.3 110.157 221.627 98.9779 221.449 96.2652C220.334 95.8407 219.075 96.0894 218.205 96.9059C218.205 96.9059 222.763 98.7427 221.226 101.974C219.689 105.206 219.332 108.815 220.326 110.623C221.21 112.245 216.729 120.452 211.267 120.712C210.667 124.92 210.051 128.578 210.051 128.578C210.051 128.578 220.626 119.434 221.518 114.492Z" fill="#F97A53"/>
<path fill-rule="evenodd" clip-rule="evenodd" d="M212.491 96.2124C212.491 96.2124 201.75 108.636 212.341 111.9C211.847 117.739 210.067 128.578 210.067 128.578C210.067 128.578 220.609 119.442 221.509 114.491C222.409 109.541 221.4 95.6691 221.4 95.6691C221.4 95.6691 215.37 93.0781 212.491 96.2124Z" stroke="#111111" stroke-width="1.34"/>
<path d="M211.478 89.3109C198.645 89.0311 200.125 80.9418 202.485 75.6665C200.641 76.9006 199.091 78.5242 197.943 80.4228C192.007 90.0245 205.222 98.6693 212.747 96.7068C220.273 94.7443 215.468 101.11 216.705 103.884C216.705 103.884 219.231 98.1422 220.119 99.018C221.007 99.8939 217.796 105.449 222.296 105.056C226.521 104.683 224.393 99.1802 226.108 98.2476C225.191 97.6394 223.501 97.457 221.1 97.1569C216.766 96.6338 230.576 89.7285 211.478 89.3109Z" fill="#525358"/>
<path fill-rule="evenodd" clip-rule="evenodd" d="M216.705 103.884C216.705 103.884 219.231 98.1427 220.119 99.0185C221.007 99.8943 217.796 105.449 222.296 105.056C226.797 104.663 224.08 98.4225 226.505 98.1265C228.93 97.8305 235.142 92.5106 232.344 86.546C229.473 80.4232 224.085 86.546 220.565 80.1597C215.914 71.7217 203.884 70.8053 197.943 80.407C192.003 90.0088 205.222 98.6536 212.747 96.6911C220.273 94.7285 215.468 101.111 216.705 103.884V103.884Z" stroke="#111111" stroke-width="1.34"/>
<path d="M218.213 109.971C218.213 109.971 216.506 112.809 212.35 111.901L218.213 109.971Z" fill="#FC9E7A"/>
<path d="M218.213 109.971C218.213 109.971 216.506 112.809 212.35 111.901" stroke="#111111" stroke-width="1.34" stroke-linecap="round"/>
<path d="M212.35 111.901C216.506 112.793 218.213 109.971 218.213 109.971C218.12 110.713 217.471 114.682 212.046 115.043C212.269 112.777 212.35 111.901 212.35 111.901Z" fill="#111111" stroke="#111111" stroke-width="1.34"/>
<path d="M211.478 130.151C210.854 130.504 210.225 130.84 209.593 131.152" stroke="#111111" stroke-width="1.34" stroke-linecap="round"/>
<path d="M214.434 128.314C213.877 128.687 213.312 129.051 212.739 129.405" stroke="#111111" stroke-width="1.34" stroke-linecap="round"/>
<path d="M221.315 115.254C221.315 115.254 223.748 115.177 223.805 118.092C223.841 119.548 222.102 121.908 219.454 124.361C218.231 125.481 216.943 126.529 215.598 127.499" stroke="#111111" stroke-width="1.34" stroke-linecap="round"/>
<path d="M206.815 127.949C206.783 128.679 206.762 129.454 206.754 130.273" stroke="#111111" stroke-width="1.34" stroke-linecap="round"/>
<path d="M211.547 114.873C211.547 114.873 207.809 115.063 206.929 125.991" stroke="#111111" stroke-width="1.34" stroke-linecap="round"/>
<path d="M184.696 158.125C184.696 158.125 191.273 145.681 191.456 130.272" stroke="#111111" stroke-width="1.34" stroke-linecap="round"/>
<path d="M184.805 157.91L184.692 158.129L184.805 157.91Z" fill="#FC3F3F" stroke="#111111" stroke-linecap="round"/>
<path d="M130.269 103.929C131.066 103.929 131.712 103.282 131.712 102.485C131.712 101.688 131.066 101.042 130.269 101.042C129.471 101.042 128.825 101.688 128.825 102.485C128.825 103.282 129.471 103.929 130.269 103.929Z" fill="white" stroke="#111111"/>
<path d="M135.504 103.929C136.301 103.929 136.947 103.282 136.947 102.485C136.947 101.688 136.301 101.042 135.504 101.042C134.706 101.042 134.06 101.688 134.06 102.485C134.06 103.282 134.706 103.929 135.504 103.929Z" fill="white" stroke="#111111"/>
<path d="M140.738 103.929C141.535 103.929 142.181 103.282 142.181 102.485C142.181 101.688 141.535 101.042 140.738 101.042C139.941 101.042 139.294 101.688 139.294 102.485C139.294 103.282 139.941 103.929 140.738 103.929Z" fill="white" stroke="#111111"/>
<path d="M184.696 102.485H179.36H184.696Z" fill="white"/>
<path d="M184.696 102.485H179.36" stroke="white"/>
<path d="M101.273 74.0732H176.072V82.1666H101.273V74.0732Z" fill="#353535" stroke="#3C3C3C"/>
<path d="M105.956 79.5633C106.753 79.5633 107.4 78.917 107.4 78.1198C107.4 77.3225 106.753 76.6763 105.956 76.6763C105.159 76.6763 104.513 77.3225 104.513 78.1198C104.513 78.917 105.159 79.5633 105.956 79.5633Z" fill="white" stroke="#3C3C3C"/>
<path d="M111.187 79.5633C111.984 79.5633 112.63 78.917 112.63 78.1198C112.63 77.3225 111.984 76.6763 111.187 76.6763C110.389 76.6763 109.743 77.3225 109.743 78.1198C109.743 78.917 110.389 79.5633 111.187 79.5633Z" fill="white" stroke="#3C3C3C"/>
<path d="M116.422 79.5633C117.219 79.5633 117.865 78.917 117.865 78.1198C117.865 77.3225 117.219 76.6763 116.422 76.6763C115.624 76.6763 114.978 77.3225 114.978 78.1198C114.978 78.917 115.624 79.5633 116.422 79.5633Z" fill="white" stroke="#3C3C3C"/>
<path d="M171.709 78.1197H166.373H171.709Z" fill="white"/>
<path d="M171.709 78.1197H166.373" stroke="white"/>
<path d="M60.3965 54.2168H158.372V62.3102H60.3965L60.3965 54.2168Z" fill="#353535" stroke="#3C3C3C"/>
<path d="M65.0758 59.7112C65.8731 59.7112 66.5193 59.0649 66.5193 58.2677C66.5193 57.4705 65.8731 56.8242 65.0758 56.8242C64.2786 56.8242 63.6323 57.4705 63.6323 58.2677C63.6323 59.0649 64.2786 59.7112 65.0758 59.7112Z" fill="white" stroke="#3C3C3C"/>
<path d="M70.3107 59.7112C71.1079 59.7112 71.7542 59.0649 71.7542 58.2677C71.7542 57.4705 71.1079 56.8242 70.3107 56.8242C69.5135 56.8242 68.8672 57.4705 68.8672 58.2677C68.8672 59.0649 69.5135 59.7112 70.3107 59.7112Z" fill="white" stroke="#3C3C3C"/>
<path d="M75.5451 59.7112C76.3423 59.7112 76.9886 59.0649 76.9886 58.2677C76.9886 57.4705 76.3423 56.8242 75.5451 56.8242C74.7478 56.8242 74.1016 57.4705 74.1016 58.2677C74.1016 59.0649 74.7478 59.7112 75.5451 59.7112Z" fill="white" stroke="#3C3C3C"/>
<path d="M153.316 58.2677H147.984H153.316Z" fill="white"/>
<path d="M153.316 58.2677H147.984" stroke="white"/>
<path d="M151.925 112.902H182.028H151.925Z" fill="white"/>
<path d="M151.925 112.902H182.028" stroke="#111111"/>
<path d="M164.99 118.473H182.028H164.99Z" fill="white"/>
<path d="M164.99 118.473H182.028" stroke="#111111"/>
<path d="M161.381 87.608H174.369H161.381Z" fill="white"/>
<path d="M161.381 87.608H174.369" stroke="#111111"/>
<path d="M153.815 91.0382H174.369H153.815Z" fill="white"/>
<path d="M153.815 91.0382H174.369" stroke="#111111"/>
<path d="M170.338 124.068H182.028H170.338Z" fill="white"/>
<path d="M170.338 124.068H182.028" stroke="#111111"/>
<path d="M151.925 118.473H160.217H151.925Z" fill="white"/>
<path d="M151.925 118.473H160.217" stroke="#111111"/>
<path d="M136.367 95.6529C137.641 95.6529 138.674 94.62 138.674 93.3457C138.674 92.0715 137.641 91.0386 136.367 91.0386C135.093 91.0386 134.06 92.0715 134.06 93.3457C134.06 94.62 135.093 95.6529 136.367 95.6529Z" fill="white" stroke="#111111"/>
<path d="M166.141 177.446H139.291" stroke="#111111"/>
<path d="M166.142 181.915H153.815" stroke="#111111"/>
<path d="M128.334 114.102H144.4V125.678H128.334V114.102Z" fill="#111111" stroke="#111111"/>
<path d="M130.269 112.488H146.334V124.065H130.269V112.488Z" fill="white" stroke="#111111"/>
<path d="M134.06 68.4776H153.815" stroke="#111111"/>
<path d="M71.9043 117.208H91.6633" stroke="#111111"/>
<path d="M69.897 163.774H93.4472" stroke="#111111"/>
<path d="M69.897 158.125H81.7856" stroke="#111111"/>
<path d="M69.897 169.304H93.4472" stroke="#111111"/>
<path d="M69.897 174.831H93.4472" stroke="#111111"/>
<path d="M69.897 180.357H93.4472" stroke="#111111"/>
<path d="M69.897 185.884H93.4472" stroke="#111111"/>
<path d="M69.897 191.411H93.4472" stroke="#111111"/>
<path d="M146.33 71.1861H153.815" stroke="#111111"/>
<path d="M177.852 245.19C184.568 246.217 191.411 246.08 198.081 244.784L177.852 245.19Z" fill="#F9B132"/>
<path d="M177.852 245.19C184.568 246.217 191.411 246.08 198.081 244.784" stroke="#111111"/>
<path d="M202.829 243.653C209.195 241.862 215.069 238.646 220.009 234.25" stroke="#111111"/>
<path d="M64.208 227.397H93.4471V243.653H64.208V227.397Z" fill="white" stroke="#111111"/>
<path d="M72.4312 227.397H93.4471V243.653H72.4312L72.4312 227.397Z" fill="#353535" stroke="#111111"/>
<path fill-rule="evenodd" clip-rule="evenodd" d="M285.563 157.444L290.789 155.736C293.541 154.836 296.502 156.338 297.401 159.09C298.301 161.842 296.799 164.803 294.047 165.702L288.821 167.411L285.563 157.444Z" stroke="#111111"/>
<path d="M286.629 152.538V164.463C286.632 167.897 284.332 170.907 281.018 171.806C281.663 171.986 282.33 172.077 283 172.078C287.206 172.078 290.615 168.668 290.615 164.463V152.538H286.629Z" fill="#111111" stroke="#111111"/>
<path d="M286.629 164.463V152.538H275.377V164.463C275.378 167.905 277.692 170.917 281.018 171.806C284.332 170.907 286.632 167.897 286.629 164.463Z" fill="#4769C2"/>
<path fill-rule="evenodd" clip-rule="evenodd" d="M275.378 152.538H290.603V164.467C290.603 168.672 287.194 172.082 282.988 172.082C278.783 172.082 275.374 168.672 275.374 164.467V152.538H275.378Z" stroke="#111111" stroke-width="1.34"/>
<path d="M289.577 153.324C290.226 153.004 290.603 152.631 290.603 152.234C290.603 151.017 287.193 150.056 282.988 150.056C278.783 150.056 275.377 151.029 275.377 152.234C275.377 152.639 275.755 153.004 276.403 153.324C277.721 152.671 280.174 152.234 282.988 152.234C285.802 152.234 288.26 152.684 289.577 153.324Z" fill="white" stroke="#111111" stroke-width="1.34"/>
<path d="M282.988 154.415C286.625 154.415 289.573 153.927 289.573 153.324C289.573 152.722 286.625 152.233 282.988 152.233C279.352 152.233 276.403 152.722 276.403 153.324C276.403 153.927 279.352 154.415 282.988 154.415Z" fill="#2E3536" stroke="#111111" stroke-width="1.34"/>
<path d="M287.396 95.8555C293.77 100.518 299.897 109.257 296.012 114.212C290.936 120.699 279.769 120.156 288.738 127.949C294.82 133.241 287.428 133.934 282.364 137.612C282.295 137.746 282.23 137.879 282.145 138.017C277.575 145.547 283.329 148.345 283.329 148.345C282.311 136.253 302.614 138.443 293.649 130.646C284.683 122.848 295.846 123.383 300.923 116.908C305.833 110.647 294.755 98.3492 287.396 95.8555Z" fill="#D5D9F8"/>
<path d="M288.722 127.949C279.753 120.156 290.92 120.687 295.996 114.212C299.881 109.257 293.754 100.519 287.38 95.8557C287.133 95.7746 286.889 95.6975 286.65 95.6367C279.327 93.7796 272.653 100.206 283.313 108.908C293.973 117.61 275.868 112.387 273.837 121.693C271.846 130.824 286.131 130.512 282.352 137.612C287.429 133.934 294.804 133.241 288.722 127.949Z" fill="#85AAF8"/>
<path fill-rule="evenodd" clip-rule="evenodd" d="M283.329 148.345C283.329 148.345 277.575 145.547 282.145 138.017C286.715 130.488 271.821 130.999 273.853 121.693C275.884 112.387 293.993 117.606 283.329 108.892C272.665 100.178 279.343 93.7634 286.666 95.6205C293.989 97.4776 305.999 110.416 300.923 116.892C295.846 123.367 284.667 122.853 293.648 130.646C302.63 138.439 282.311 136.254 283.329 148.345V148.345Z" stroke="#111111" stroke-width="1.34"/>
<path d="M213.664 102.015C214.557 102.015 215.282 101.742 215.282 101.407C215.282 101.071 214.557 100.798 213.664 100.798C212.77 100.798 212.046 101.071 212.046 101.407C212.046 101.742 212.77 102.015 213.664 102.015Z" fill="white" stroke="#161515" stroke-width="1.34"/>
<path d="M213.084 100.839C212.476 100.928 212.046 101.147 212.046 101.407C212.046 101.666 212.476 101.885 213.084 101.974C213.42 101.885 213.664 101.666 213.664 101.407C213.664 101.147 213.42 100.928 213.084 100.839Z" fill="#161515"/>
<path d="M207.93 102.015C208.823 102.015 209.548 101.742 209.548 101.407C209.548 101.071 208.823 100.798 207.93 100.798C207.036 100.798 206.312 101.071 206.312 101.407C206.312 101.742 207.036 102.015 207.93 102.015Z" fill="white" stroke="#161515" stroke-width="1.34"/>
<path d="M207.35 100.839C206.742 100.928 206.308 101.147 206.308 101.407C206.308 101.666 206.742 101.885 207.35 101.974C207.687 101.885 207.93 101.666 207.93 101.407C207.93 101.147 207.687 100.928 207.35 100.839Z" fill="#161515"/>
<path d="M210.845 101.407C210.466 102.423 209.956 103.385 209.329 104.269C209.229 104.378 209.196 104.532 209.242 104.672C209.289 104.811 209.407 104.915 209.552 104.943C210.249 105.048 211.06 105.093 211.06 105.093" stroke="#161515" stroke-linecap="round"/>
<path d="M209.017 107.732C209.017 107.732 210.93 108.75 213.663 107.327" stroke="#161515" stroke-linecap="round"/>
<path d="M121.786 305.488C121.786 305.488 124.851 295.923 133.699 291.949C142.546 287.976 132.048 274.631 141.897 272.458C151.747 270.285 136.764 262.625 143.896 260.772C151.029 258.919 157.079 268.127 152.699 272.997C148.32 277.867 143.418 282.96 148.576 285.47C153.733 287.98 147.947 310.849 136.582 314.664C125.216 318.48 108.968 329.854 121.786 305.488Z" fill="#97A7BF" stroke="#111111"/>
<path d="M213.663 106.175C213.418 106.925 213.764 107.741 214.474 108.085" stroke="#161515" stroke-linecap="round"/>
<path d="M153.145 310.18C153.145 310.18 154.589 294.682 164.811 296.823C182.028 300.432 162.378 313.067 161.381 322.368C160.732 328.414 175.881 321.622 175.455 335.023C164.56 335.068 112.508 335.023 112.508 335.023C112.508 335.023 113.575 309.458 153.145 310.18Z" fill="#97A7BF" stroke="#111111"/>
<path d="M122.824 315.84C122.824 315.84 100.928 309.843 97.1408 320.662C93.3536 331.48 77.8278 323.127 76.3843 335.064C94.793 335.089 118.554 335.064 118.554 335.064C118.554 335.064 141.468 322.405 122.824 315.84Z" fill="#97A7BF" stroke="#111111"/>
<path d="M232.36 86.5618C229.49 80.4391 224.101 86.5618 220.581 80.1755C218.906 77.0459 215.985 74.7706 212.541 73.9117C209.097 73.0527 205.45 73.6902 202.501 75.6666C200.145 80.9378 198.661 89.0474 211.494 89.311C230.592 89.7165 216.766 96.6339 221.116 97.1732C223.517 97.4733 225.208 97.6557 226.124 98.264C226.251 98.1991 226.388 98.1579 226.53 98.1423C228.93 97.8463 235.142 92.5264 232.36 86.5618Z" fill="#2D2D2D"/>
<path d="M265.018 322.388C265.018 322.388 281.423 315.593 271.736 303.684C262.049 291.775 289.208 283.815 293.494 299.892C297.78 315.97 319.445 298.388 325.219 307.532C330.993 316.675 321.975 326.443 337.854 324.627C353.732 322.81 349.402 335.072 349.402 335.072H265.018V322.388Z" fill="#97A7BF" stroke="#111111" stroke-width="1.34"/>
<path fill-rule="evenodd" clip-rule="evenodd" d="M265.017 335.073H329.168C328.985 329.627 325.783 324.736 320.864 322.39C312.426 318.266 321.926 304.869 311.83 296.695C301.734 288.52 290.903 294.667 293.429 303.324C295.956 311.981 288.377 315.842 276.399 307.533C265.386 299.874 252.253 316.336 259.122 324.628C265.991 332.92 246.499 326.396 246.146 335.073C257.334 334.745 265.017 335.073 265.017 335.073Z" stroke="#111111"/>
<path d="M310.67 304.654C310.67 310.801 307.783 319.73 313.285 322.39C320.325 325.792 318.236 332.203 318.236 332.203" stroke="#111111" stroke-linecap="round"/>
<path d="M309.766 293.819C310.15 294.459 310.402 295.169 310.508 295.908" stroke="#111111" stroke-linecap="round"/>
<path d="M305.715 290.803C306.524 291.091 307.29 291.487 307.994 291.979" stroke="#111111" stroke-linecap="round"/>
<path d="M260.983 310.529C260.773 311.685 260.699 312.86 260.76 314.033" stroke="#111111" stroke-linecap="round"/>
<path d="M266.311 302.529C264.398 303.689 262.881 305.401 261.96 307.44" stroke="#111111" stroke-linecap="round"/>
<path d="M228.918 252.895C229.326 254.5 229.821 256.14 230.402 257.813" stroke="white"/>
<path d="M240.369 205.936C240.369 205.936 223.338 222.24 228.006 248.673" stroke="white"/>
<path d="M140.102 221.713C140.102 221.713 139.384 232.426 146.33 239.927" stroke="white"/>
<path d="M284.075 225.099H294.97C300.73 225.099 305.399 229.768 305.399 235.528C305.393 241.283 300.725 245.944 294.97 245.944H284.075V225.099V225.099Z" fill="white" stroke="#111111"/>
<path d="M284.075 245.746C289.776 245.746 294.398 241.124 294.398 235.422C294.398 229.721 289.776 225.099 284.075 225.099C278.373 225.099 273.751 229.721 273.751 235.422C273.751 241.124 278.373 245.746 284.075 245.746Z" fill="#353535" stroke="#111111"/>
<path fill-rule="evenodd" clip-rule="evenodd" d="M234.335 73.2747C238.879 73.2747 242.562 69.5912 242.562 65.0475C242.562 60.5037 238.879 56.8203 234.335 56.8203C229.791 56.8203 226.108 60.5037 226.108 65.0475C226.108 69.5912 229.791 73.2747 234.335 73.2747Z" stroke="white"/>
<path d="M54.4606 135.889V173.651" stroke="white"/>
<path d="M54.4606 121.376V128.854" stroke="white"/>
<path d="M363.099 335.044H24.1387" stroke="#111111"/>
</svg>
