<svg width="32" height="32" viewBox="0 0 32 32" fill="none" xmlns="http://www.w3.org/2000/svg">
  <path d="M0.999974 6.99995H30.9999C31.552 6.99995 31.9999 6.55191 31.9999 5.99997C31.9999 5.44795 31.5519 5 30.9999 5H0.999974C0.448035 5 0 5.44795 0 5.99997C0 6.552 0.448035 6.99995 0.999974 6.99995Z" fill="white"/>
  <path d="M31.2188 15H7.78123C7.34996 15 7 15.448 7 16C7 16.552 7.35003 17 7.78123 17H31.2188C31.65 17 32 16.552 32 16C32 15.448 31.65 15 31.2188 15Z" fill="white"/>
  <path d="M31.4063 25H13.5937C13.266 25 13 25.448 13 26C13 26.552 13.266 27 13.5937 27H31.4063C31.734 27 32 26.552 32 26C32 25.448 31.734 25 31.4063 25Z" fill="white"/>
</svg>
