<svg width="11" height="16" viewBox="0 0 11 16" fill="none" xmlns="http://www.w3.org/2000/svg">
<path opacity="0.89" d="M4.03142 0.0273622C4.31638 -0.0408072 4.63339 0.0212208 4.82208 0.181996L10.5109 5.03059C10.7187 5.20765 10.7187 5.45929 10.5109 5.63636L4.82203 10.4847C4.68445 10.602 4.47856 10.6667 4.2666 10.6667C4.188 10.6667 4.10845 10.6577 4.03137 10.6393C3.74636 10.5712 3.55564 10.3877 3.55564 10.1818V0.484863C3.55568 0.278933 3.7464 0.0954993 4.03142 0.0273622Z" fill="#6B63DD"/>
<path opacity="0.89" d="M4.03142 5.36086C4.31638 5.29269 4.63339 5.35472 4.82208 5.51549L10.5109 10.3641C10.7187 10.5411 10.7187 10.7928 10.5109 10.9699L4.82203 15.8182C4.68445 15.9355 4.47856 16.0002 4.2666 16.0002C4.188 16.0002 4.10845 15.9912 4.03137 15.9728C3.74636 15.9046 3.55564 15.7212 3.55564 15.5153V5.81836C3.55568 5.61243 3.7464 5.429 4.03142 5.36086Z" fill="#6B63DD"/>
<path opacity="0.89" d="M0.535252 2.69387C0.855838 2.6257 1.21248 2.68772 1.42474 2.8485L7.82473 7.69709C8.05843 7.87416 8.05843 8.12579 7.82467 8.30286L1.42469 13.1512C1.26992 13.2685 1.03829 13.3332 0.799838 13.3332C0.711411 13.3332 0.621919 13.3242 0.535199 13.3058C0.21456 13.2377 -1.67144e-07 13.0542 -1.67144e-07 12.8483V3.15137C5.31661e-05 2.94544 0.214612 2.762 0.535252 2.69387Z" fill="#6B63DD"/>
</svg>
