<svg width="16" height="16" viewBox="0 0 16 16" fill="none" xmlns="http://www.w3.org/2000/svg">
  <path d="M5.3335 9.33337C5.77211 10.1144 6.85945 10.6667 8.00174 10.6667C9.13918 10.6667 10.2244 10.113 10.6668 9.33532" stroke="#6B63DD" stroke-width="1.5" stroke-linecap="round"/>
  <path fill-rule="evenodd" clip-rule="evenodd" d="M6.00016 6.66671C6.36835 6.66671 6.66683 6.36823 6.66683 6.00004C6.66683 5.63185 6.36835 5.33337 6.00016 5.33337C5.63197 5.33337 5.3335 5.63185 5.3335 6.00004C5.3335 6.36823 5.63197 6.66671 6.00016 6.66671Z" fill="#6B63DD"/>
  <path fill-rule="evenodd" clip-rule="evenodd" d="M10.0002 6.66671C10.3684 6.66671 10.6668 6.36823 10.6668 6.00004C10.6668 5.63185 10.3684 5.33337 10.0002 5.33337C9.63197 5.33337 9.3335 5.63185 9.3335 6.00004C9.3335 6.36823 9.63197 6.66671 10.0002 6.66671Z" fill="#6B63DD"/>
  <path fill-rule="evenodd" clip-rule="evenodd" d="M8 14C11.3137 14 14 11.3137 14 8C14 4.68629 11.3137 2 8 2C4.68629 2 2 4.68629 2 8C2 11.3137 4.68629 14 8 14Z" stroke="#6B63DD" stroke-width="1.5"/>
</svg>
