<svg width="16" height="16" viewBox="0 0 16 16" fill="none" xmlns="http://www.w3.org/2000/svg">
  <path d="M6.6665 8.76024C6.93019 9.11522 7.2666 9.40895 7.65292 9.6215C8.03925 9.83404 8.46645 9.96043 8.90554 9.9921C9.34464 10.0238 9.78537 9.95997 10.1978 9.80503C10.6103 9.6501 10.9848 9.40764 11.2961 9.09412L13.1381 7.23922C13.6973 6.65615 14.0067 5.87523 13.9997 5.06465C13.9927 4.25406 13.6699 3.47867 13.1007 2.90548C12.5315 2.33229 11.7615 2.00716 10.9565 2.00012C10.1516 1.99307 9.37609 2.30468 8.79708 2.86782L7.741 3.92512" stroke="#000000" stroke-width="1.5" stroke-linecap="round" stroke-linejoin="round"/>
  <path d="M9.33333 7.23976C9.06965 6.88478 8.73324 6.59105 8.34691 6.3785C7.96059 6.16596 7.53339 6.03957 7.09429 6.0079C6.6552 5.97623 6.21447 6.04003 5.80201 6.19497C5.38955 6.3499 5.01501 6.59236 4.70378 6.90588L2.86178 8.76078C2.30256 9.34385 1.99312 10.1248 2.00012 10.9354C2.00711 11.7459 2.32998 12.5213 2.89918 13.0945C3.46838 13.6677 4.23838 13.9928 5.04332 13.9999C5.84826 14.0069 6.62375 13.6953 7.20276 13.1322L8.25269 12.0749" stroke="#000000" stroke-width="1.5" stroke-linecap="round" stroke-linejoin="round"/>
</svg>
