<svg width="444" height="336" viewBox="0 0 444 336" fill="none" xmlns="http://www.w3.org/2000/svg">
<path d="M401.066 333.166H42.666C40.7006 333.166 39.2447 332.501 38.2775 331.5C37.3029 330.491 36.633 328.94 36.633 326.833C36.633 310.517 24.5014 297.833 8.533 297.833C6.56757 297.833 5.11172 297.168 4.14453 296.167C3.16986 295.158 2.5 293.607 2.5 291.5V44.166C2.5 42.0587 3.16986 40.5079 4.14454 39.499C5.11172 38.4978 6.56757 37.833 8.533 37.833C24.5014 37.833 36.633 25.1486 36.633 8.83299C36.633 6.72566 37.3029 5.17492 38.2775 4.16597C39.2447 3.16478 40.7006 2.5 42.666 2.5H401.066C403.031 2.5 404.487 3.16478 405.454 4.16597C406.429 5.17491 407.099 6.72566 407.099 8.83299C407.099 25.1486 419.231 37.833 435.199 37.833C437.164 37.833 438.62 38.4978 439.587 39.499C440.562 40.5079 441.232 42.0587 441.232 44.166V291.499C441.232 293.606 440.562 295.157 439.587 296.166C438.62 297.167 437.164 297.832 435.199 297.832C419.231 297.832 407.099 310.516 407.099 326.832C407.099 328.94 406.429 330.491 405.454 331.5C404.487 332.501 403.031 333.166 401.066 333.166Z" stroke="black" stroke-width="5"/>
<path d="M392.327 326H50.6726C48.4681 326 46.7048 325.249 45.4922 324.002C44.2771 322.752 43.5382 320.924 43.5382 318.632C43.5382 303.88 32.5423 292.527 18.1343 292.527C15.9298 292.527 14.1665 291.776 12.9539 290.528C11.7389 289.278 11 287.45 11 285.158V50.8415C11 48.5499 11.7389 46.7216 12.9539 45.4716C14.1665 44.2242 15.9298 43.4734 18.1343 43.4734C32.5423 43.4734 43.5382 32.1202 43.5382 17.3681C43.5382 15.0764 44.2771 13.2482 45.4922 11.9982C46.7048 10.7507 48.4681 10 50.6726 10H392.327C394.532 10 396.295 10.7507 397.508 11.9982C398.723 13.2482 399.462 15.0764 399.462 17.3681C399.462 32.1202 410.458 43.4734 424.866 43.4734C427.07 43.4734 428.833 44.2242 430.046 45.4716C431.261 46.7216 432 48.5499 432 50.8415V285.158C432 287.449 431.261 289.277 430.046 290.527C428.833 291.775 427.07 292.526 424.866 292.526C410.458 292.526 399.462 303.879 399.462 318.631C399.462 320.923 398.723 322.752 397.508 324.002C396.295 325.249 394.532 326 392.327 326Z" stroke="black" stroke-width="2"/>
</svg>
