<svg width="104" height="104" viewBox="0 0 104 104" fill="none" xmlns="http://www.w3.org/2000/svg">
<path d="M52 9.75C49.9688 9.75 47.9502 10.4355 46.2109 11.6797L40.8281 15.4375L34.6328 16.25H34.5312L34.4297 16.3516C30.291 17.2783 27.0283 20.541 26.1016 24.6797L26 24.7812V24.8828L25.1875 31.1797L21.4297 36.0547L21.3281 36.1562V36.2578C19.0557 39.8887 18.9541 44.5732 21.4297 48.0391L25.2891 53.4219L26.3047 59.0078L15.8438 74.9531L12.4922 79.9297H28.0312L31.7891 88.6641L34.125 94.25L37.4766 89.1719L47.7344 73.7344C50.4893 74.8643 53.5996 74.9658 56.2656 73.7344L66.5234 89.1719L69.875 94.25L72.2109 88.6641L75.9688 79.9297H91.5078L88.1562 74.9531L78 59.5156L78.8125 53.4219L82.5703 48.0391L82.6719 47.9375V47.8359C84.9443 44.2051 85.0459 39.6221 82.5703 36.1562L78.8125 30.7734L77.5938 24.6797H77.6953C77.6826 24.6035 77.6064 24.5527 77.5938 24.4766C77.0098 20.2236 73.6455 16.7705 69.3672 16.25H69.2656L63.1719 15.4375L57.7891 11.6797C56.0498 10.4355 54.0312 9.75 52 9.75ZM52 16.3516C52.749 16.3516 53.4854 16.5801 54.0312 16.9609L59.8203 21.125L60.5312 21.6328L61.3438 21.7344L68.4531 22.75H68.5547C70.0146 22.915 71.0303 23.9307 71.1953 25.3906V25.5938L72.5156 32.8047L72.6172 33.5156L73.125 34.125L77.2891 39.9141C78.0635 40.9932 78.165 42.8213 77.1875 44.3828L72.6172 50.7812L72.5156 51.5938L71.5 58.7031V58.8047C71.4365 59.3379 71.2588 59.833 70.9922 60.2266L70.7891 60.3281V60.4297C70.3193 60.9883 69.6719 61.3564 68.8594 61.4453H68.6562L61.2422 62.7656L60.4297 62.8672L59.8203 63.375L54.0312 67.5391C52.9521 68.3135 51.0225 68.415 49.4609 67.4375L44.1797 63.375L43.5703 62.8672L42.6562 62.7656L35.5469 61.75H35.4453C34.4424 61.6357 33.668 61.1152 33.2109 60.3281C33.0078 59.9727 32.8555 59.5537 32.8047 59.1094V58.9062L31.4844 51.4922L31.3828 50.6797L30.875 50.0703L26.7109 44.2812C25.9365 43.2021 25.835 41.2725 26.8125 39.7109L30.875 34.4297L31.3828 33.8203L31.4844 32.9062L32.3984 26.1016C32.4111 26.0508 32.4873 26.0508 32.5 26C32.9062 24.4131 34.1631 23.1562 35.75 22.75C35.8008 22.7373 35.8008 22.6611 35.8516 22.6484L42.6562 21.7344L43.4688 21.6328L44.1797 21.125L49.9688 16.9609C50.5146 16.5801 51.251 16.3516 52 16.3516ZM74.4453 65.8125L79.4219 73.4297H71.6016L70.7891 75.4609L68.5547 80.6406L61.6484 70.0781L63.1719 68.9609L69.5703 67.8438V67.9453C69.6465 67.9326 69.6973 67.8564 69.7734 67.8438C71.5254 67.6025 73.1123 66.8662 74.4453 65.8125ZM29.5547 65.9141C30.9385 67.1582 32.7031 68.0215 34.6328 68.25C34.6709 68.25 34.6963 68.25 34.7344 68.25L40.9297 69.0625L42.3516 70.1797L35.4453 80.6406L33.2109 75.4609L32.3984 73.4297H24.5781L29.5547 65.9141Z" fill="black"/>
</svg>
