<svg width="28" height="28" viewBox="0 0 28 28" fill="none" xmlns="http://www.w3.org/2000/svg">
  <path d="M26.0865 12.4058H15.5941V1.91334C15.5941 1.02481 14.8754 0.306152 13.9869 0.306152C13.0984 0.306152 12.3797 1.02481 12.3797 1.91334V12.4058H1.88728C0.998751 12.4058 0.28009 13.1244 0.28009 13.9999C0.28009 14.8884 0.998751 15.6071 1.88728 15.6071H12.3797V26.0995C12.3797 26.9881 13.0984 27.7067 13.9869 27.7067C14.8754 27.7067 15.5941 26.9881 15.5941 26.0995V15.6071H26.0865C26.9751 15.6071 27.6937 14.8884 27.6937 13.9999C27.6937 13.1114 26.9751 12.4058 26.0865 12.4058Z" fill="white"/>
</svg>
