<svg width="18" height="19" viewBox="0 0 18 19" fill="none" xmlns="http://www.w3.org/2000/svg">
  <path d="M16.9447 8.4485H10.0553V1.55579C10.0553 0.972102 9.58341 0.5 9 0.5C8.41659 0.5 7.94471 0.972102 7.94471 1.55579V8.4485H1.05529C0.471878 8.4485 0 8.9206 0 9.49571C0 10.0794 0.471878 10.5515 1.05529 10.5515H7.94471V17.4442C7.94471 18.0279 8.41659 18.5 9 18.5C9.58341 18.5 10.0553 18.0279 10.0553 17.4442V10.5515H16.9447C17.5281 10.5515 18 10.0794 18 9.49571C18 8.91202 17.5281 8.4485 16.9447 8.4485Z" fill="#4364F7"/>
</svg>
