<svg width="24" height="24" viewBox="0 0 24 24" fill="none" xmlns="http://www.w3.org/2000/svg">
<g clip-path="url(#clip0_4041_12703)">
<path d="M0 1.324C0 0.593333 0.593333 0 1.324 0H22.676C23.4067 0 24 0.593333 24 1.324V22.676C23.9996 23.027 23.86 23.3636 23.6118 23.6118C23.3636 23.86 23.027 23.9996 22.676 24H1.324C0.972962 23.9996 0.636402 23.86 0.38818 23.6118C0.139959 23.3636 0.00035298 23.027 0 22.676V1.324Z" fill="#7A819F"/>
</g>
<g clip-path="url(#clip1_4041_12703)">
<path d="M15.1466 9.89727C15.1234 9.84259 15.0886 9.79122 15.0456 9.74979L13.3571 8.12593C13.3157 8.08616 13.2676 8.05468 13.2146 8.03314C13.1616 8.0116 13.1052 8 13.0472 8H9.80612C9.25931 8 8.81689 8.44242 8.81689 8.98923V15.0108C8.81689 15.5576 9.25931 16 9.80612 16H14.1939C14.7407 16 15.1831 15.5576 15.1831 15.0108V10.0729C15.1831 10.0133 15.1698 9.9536 15.1466 9.89727Z" fill="white"/>
<path d="M9.82275 10.9006C9.82275 11.0282 9.92714 11.1343 10.0564 11.1343H13.9851C14.1127 11.1343 14.2188 11.0299 14.2188 10.9006C14.2188 10.773 14.1144 10.667 13.9851 10.667H10.0564C9.92714 10.667 9.82275 10.773 9.82275 10.9006Z" fill="#7A819F"/>
<path d="M9.82275 10.9006C9.82275 11.0282 9.92714 11.1343 10.0564 11.1343H13.9851C14.1127 11.1343 14.2188 11.0299 14.2188 10.9006C14.2188 10.773 14.1144 10.667 13.9851 10.667H10.0564C9.92714 10.667 9.82275 10.773 9.82275 10.9006Z" fill="#7A819F"/>
<path d="M13.9835 11.5986H10.0564C9.9288 11.5986 9.82275 11.703 9.82275 11.8323C9.82275 11.9599 9.92714 12.0659 10.0564 12.0659H13.9851C14.1127 12.0659 14.2188 11.9615 14.2188 11.8323C14.2171 11.703 14.1127 11.5986 13.9835 11.5986Z" fill="#7A819F"/>
<path d="M13.9835 12.5322H10.0564C9.9288 12.5322 9.82275 12.6366 9.82275 12.7659C9.82275 12.8935 9.92714 12.9995 10.0564 12.9995H13.9851C14.1127 12.9995 14.2188 12.8951 14.2188 12.7659C14.2171 12.6366 14.1127 12.5322 13.9835 12.5322Z" fill="#7A819F"/>
<path d="M12.2272 13.4639H10.0366C9.90903 13.4639 9.80298 13.5683 9.80298 13.6975C9.80298 13.8267 9.90737 13.9311 10.0366 13.9311H12.2288C12.3564 13.9311 12.4625 13.8267 12.4625 13.6975C12.4625 13.5683 12.3564 13.4639 12.2272 13.4639Z" fill="#7A819F"/>
</g>
<defs>
<clipPath id="clip0_4041_12703">
<rect width="24" height="24" fill="white"/>
</clipPath>
<clipPath id="clip1_4041_12703">
<rect width="8" height="8" fill="white" transform="translate(8 8)"/>
</clipPath>
</defs>
</svg>
