<svg width="24" height="24" viewBox="0 0 24 24" fill="none" xmlns="http://www.w3.org/2000/svg">
  <path fill-rule="evenodd" clip-rule="evenodd" d="M10.6649 20.4947C11.207 21.0985 11.903 21.4302 12.6251 21.4302H12.6261C13.3513 21.4302 14.0504 21.0985 14.5936 20.4936C14.8845 20.1723 15.3805 20.1462 15.7018 20.436C16.0241 20.7259 16.0503 21.223 15.7604 21.5443C14.9148 22.483 13.8024 23 12.6261 23H12.624C11.4509 22.999 10.3405 22.482 9.49809 21.5433C9.20821 21.222 9.23437 20.7249 9.55669 20.436C9.87902 20.1451 10.3751 20.1713 10.6649 20.4947ZM12.6772 0.5C17.3289 0.5 20.4538 4.12302 20.4538 7.5064C20.4538 9.24674 20.8965 9.98454 21.3664 10.7673C21.831 11.5397 22.3574 12.4166 22.3574 14.0743C21.9922 18.3095 17.5707 18.6549 12.6772 18.6549C7.78369 18.6549 3.36114 18.3095 3.00007 14.1413C2.99695 12.4166 3.52334 11.5397 3.988 10.7673L4.15203 10.4912C4.55591 9.79706 4.90055 9.042 4.90055 7.5064C4.90055 4.12302 8.02544 0.5 12.6772 0.5ZM12.6772 2.06977C9.01962 2.06977 6.47032 4.93512 6.47032 7.5064C6.47032 9.68209 5.86648 10.6878 5.33276 11.5752C4.90474 12.2879 4.56672 12.8509 4.56672 14.0743C4.74148 16.048 6.04439 17.0851 12.6772 17.0851C19.2733 17.0851 20.6171 16.002 20.7908 14.0063C20.7876 12.8509 20.4496 12.2879 20.0216 11.5752C19.4879 10.6878 18.884 9.68209 18.884 7.5064C18.884 4.93512 16.3347 2.06977 12.6772 2.06977Z" fill="#6B63DD"/>
</svg>
