<svg width="20" height="23" viewBox="0 0 20 23" fill="none" xmlns="http://www.w3.org/2000/svg">
<path fill-rule="evenodd" clip-rule="evenodd" d="M7.66501 20.4947C8.2071 21.0985 8.90303 21.4302 9.62513 21.4302H9.62617C10.3514 21.4302 11.0505 21.0985 11.5936 20.4936C11.8845 20.1723 12.3806 20.1462 12.7019 20.436C13.0242 20.7259 13.0504 21.223 12.7605 21.5443C11.9149 22.483 10.8025 23 9.62617 23H9.62408C8.45094 22.999 7.34059 22.482 6.49815 21.5433C6.20827 21.222 6.23443 20.7249 6.55675 20.436C6.87908 20.1451 7.37513 20.1713 7.66501 20.4947ZM9.67724 0.5C14.329 0.5 17.4539 4.12302 17.4539 7.5064C17.4539 9.24674 17.8965 9.98454 18.3664 10.7673C18.8311 11.5397 19.3575 12.4166 19.3575 14.0743C18.9922 18.3095 14.5707 18.6549 9.67724 18.6549C4.78375 18.6549 0.361196 18.3095 0.000135922 14.1413C-0.00298964 12.4166 0.523406 11.5397 0.988057 10.7673L1.15209 10.4912C1.55597 9.79706 1.90061 9.042 1.90061 7.5064C1.90061 4.12302 5.0255 0.5 9.67724 0.5ZM9.67724 2.06977C6.01968 2.06977 3.47038 4.93512 3.47038 7.5064C3.47038 9.68209 2.86655 10.6878 2.33282 11.5752C1.9048 12.2879 1.56678 12.8509 1.56678 14.0743C1.74155 16.048 3.04445 17.0851 9.67724 17.0851C16.2734 17.0851 17.6171 16.002 17.7908 14.0063C17.7877 12.8509 17.4497 12.2879 17.0217 11.5752C16.4879 10.6878 15.8841 9.68209 15.8841 7.5064C15.8841 4.93512 13.3348 2.06977 9.67724 2.06977Z" fill="white"/>
</svg>
