<svg width="23" height="24" viewBox="0 0 23 24" fill="none" xmlns="http://www.w3.org/2000/svg">
  <g clip-path="url(#clip0_602_9401)">
    <path d="M22.8819 17.1856C23.009 17.0443 23.0812 16.4366 22.5143 16.3904H3.50731C1.57343 16.3904 0 17.9302 0 19.8231C0 21.7155 1.57343 23.2553 3.50731 23.2553H22.5143C23.1846 23.1813 23.007 22.5953 22.8771 22.455C21.241 20.6851 21.2428 19.0111 22.8819 17.1856ZM21.5053 22.1296L3.45 21.9619C2.05578 21.9619 1.15 21.2428 1.15 19.8785C1.15 18.5142 2.05578 17.6275 3.45 17.6275H21.5053C20.372 19.2898 20.3806 20.5015 21.5053 22.1296Z" fill="white"/>
    <path d="M0.485722 15.4319H19.4926C21.4265 15.4319 23 13.8921 23 11.9996C23 10.1068 21.4266 8.56695 19.4926 8.56695H8.85965V7.60906H22.5143C23.1846 7.5351 23.007 6.94913 22.8771 6.80878C21.241 5.0389 21.2429 3.36488 22.8819 1.53936C23.009 1.39814 23.0812 0.790356 22.5143 0.744141H3.50731C1.57343 0.744187 0 2.28405 0 4.17687C0 6.06933 1.57343 7.6091 3.50731 7.6091H4.13254V8.567H0.485722C-0.0811571 8.61322 -0.0089653 9.22091 0.118145 9.36218C1.75715 11.1877 1.75903 12.8618 0.122933 14.6316C-0.00704081 14.7719 -0.18461 15.3579 0.485722 15.4319ZM3.45 6.37235C2.05578 6.37235 1.15 5.54102 1.15 4.17665C1.15 2.81232 2.05578 1.87022 3.45 1.87022H21.5053C20.372 3.53252 20.3806 4.74414 21.5053 6.37235H8.85965V4.17665C8.85965 3.91194 8.64072 3.69767 8.37022 3.69767H4.62197C4.35141 3.69767 4.13254 3.91194 4.13254 4.17665V6.37235H3.45ZM7.88079 4.65562V10.6407L6.79814 9.81046C6.70924 9.74261 6.60264 9.70852 6.49609 9.70852C6.38949 9.70852 6.2829 9.74261 6.19399 9.81046L5.1114 10.6407V4.65562H7.88079ZM4.13254 9.5249V11.6243C4.10419 12.0412 4.42816 12.4494 4.92402 12.0013L6.49609 10.796L8.06812 12.0013C8.58313 12.4098 8.89903 12.0253 8.85965 11.6243V9.5249H19.4926C20.8869 9.5249 22.0211 10.6353 22.0211 11.9996C22.0211 13.364 20.8869 14.4739 19.4926 14.4739H1.49472C2.61942 12.8458 2.61458 11.1872 1.48134 9.52485L4.13254 9.5249Z" fill="white"/>
  </g>
  <defs>
    <clipPath id="clip0_602_9401">
      <rect width="23" height="22.5106" fill="white" transform="translate(0 0.744629)"/>
    </clipPath>
  </defs>
</svg>
