<svg width="32" height="32" viewBox="0 0 32 32" fill="none" xmlns="http://www.w3.org/2000/svg">
  <path d="M0.999974 6.99999H30.9999C31.552 6.99999 31.9999 6.55195 31.9999 6.00001C31.9999 5.44799 31.5519 5.00004 30.9999 5.00004H0.999974C0.448035 5.00004 0 5.44799 0 6.00001C0 6.55203 0.448035 6.99999 0.999974 6.99999Z" fill="#13013F"/>
  <path d="M30.9999 15H0.999974C0.447952 15 0 15.4481 0 16C0 16.5519 0.448035 17 0.999974 17H30.9999C31.552 17 31.9999 16.5519 31.9999 16C31.9999 15.4481 31.552 15 30.9999 15Z" fill="#13013F"/>
  <path d="M30.9999 25H0.999974C0.447952 25 0 25.4481 0 26C0 26.552 0.448035 27 0.999974 27H30.9999C31.552 27 31.9999 26.5519 31.9999 26C32 25.448 31.552 25 30.9999 25Z" fill="#13013F"/>
</svg>
