<svg width="16" height="18" viewBox="0 0 16 18" fill="none" xmlns="http://www.w3.org/2000/svg">
<path fill-rule="evenodd" clip-rule="evenodd" d="M11.3177 0C11.6574 0 11.9331 0.281301 11.9331 0.627904L11.9335 1.3377C13.1315 1.4215 14.1265 1.84022 14.8307 2.56026C15.5995 3.34807 16.004 4.48081 16 5.83959V13.4774C16 16.267 14.2637 18 11.4699 18H4.53003C1.7362 18 0 16.2427 0 13.4138V5.83792C0 3.20674 1.54835 1.5178 4.07357 1.33798L4.07408 0.627904C4.07408 0.281301 4.34977 0 4.68946 0C5.02915 0 5.30484 0.281301 5.30484 0.627904L5.30459 1.32195H10.7019L10.7023 0.627904C10.7023 0.281301 10.978 0 11.3177 0ZM14.7692 7.45448H1.23076V13.4138C1.23076 15.5621 2.40245 16.7442 4.53003 16.7442H11.4699C13.5975 16.7442 14.7692 15.5838 14.7692 13.4774L14.7692 7.45448ZM11.6522 12.7224C11.9919 12.7224 12.2676 13.0037 12.2676 13.3503C12.2676 13.6969 11.9919 13.9782 11.6522 13.9782C11.3125 13.9782 11.0336 13.6969 11.0336 13.3503C11.0336 13.0037 11.3051 12.7224 11.6448 12.7224H11.6522ZM8.01121 12.7224C8.3509 12.7224 8.62659 13.0037 8.62659 13.3503C8.62659 13.6969 8.3509 13.9782 8.01121 13.9782C7.67152 13.9782 7.39255 13.6969 7.39255 13.3503C7.39255 13.0037 7.66413 12.7224 8.00383 12.7224H8.01121ZM4.36257 12.7224C4.70226 12.7224 4.97795 13.0037 4.97795 13.3503C4.97795 13.6969 4.70226 13.9782 4.36257 13.9782C4.02288 13.9782 3.74308 13.6969 3.74308 13.3503C3.74308 13.0037 4.01549 12.7224 4.35518 12.7224H4.36257ZM11.6522 9.46846C11.9919 9.46846 12.2676 9.74976 12.2676 10.0964C12.2676 10.443 11.9919 10.7243 11.6522 10.7243C11.3125 10.7243 11.0336 10.443 11.0336 10.0964C11.0336 9.74976 11.3051 9.46846 11.6448 9.46846H11.6522ZM8.01121 9.46846C8.3509 9.46846 8.62659 9.74976 8.62659 10.0964C8.62659 10.443 8.3509 10.7243 8.01121 10.7243C7.67152 10.7243 7.39255 10.443 7.39255 10.0964C7.39255 9.74976 7.66413 9.46846 8.00383 9.46846H8.01121ZM4.36257 9.46846C4.70226 9.46846 4.97795 9.74976 4.97795 10.0964C4.97795 10.443 4.70226 10.7243 4.36257 10.7243C4.02288 10.7243 3.74308 10.443 3.74308 10.0964C3.74308 9.74976 4.01549 9.46846 4.35518 9.46846H4.36257ZM10.7019 2.57776H5.30459L5.30484 3.38315C5.30484 3.72975 5.02915 4.01105 4.68946 4.01105C4.34977 4.01105 4.07408 3.72975 4.07408 3.38315L4.07364 2.59676C2.23551 2.75432 1.23076 3.89121 1.23076 5.83792V6.19867H14.7692L14.7692 5.83792C14.7725 4.80397 14.5 4.00025 13.9593 3.4477C13.4847 2.96196 12.7908 2.67186 11.9338 2.59716L11.9331 3.38315C11.9331 3.72975 11.6574 4.01105 11.3177 4.01105C10.978 4.01105 10.7023 3.72975 10.7023 3.38315L10.7019 2.57776Z" fill="#7A819F"/>
</svg>
