<svg width="20" height="20" viewBox="0 0 20 20" fill="none" xmlns="http://www.w3.org/2000/svg">
  <g clip-path="url(#clip0_230_205)">
    <path d="M2.32492 13.6971C2.32492 15.0466 3.27872 16.1769 4.54741 16.4504C3.92047 16.7517 3.48674 17.3928 3.48674 18.1335C3.48674 19.1628 4.32371 20 5.35273 20C6.38155 20 7.21879 19.1628 7.21879 18.1335C7.21879 17.4412 6.83926 16.8361 6.27771 16.5141H13.7224C13.1608 16.8361 12.7814 17.4412 12.7814 18.1335C12.7814 19.1628 13.6185 20 14.6473 20C15.6763 20 16.5135 19.1628 16.5135 18.1335C16.5135 17.4412 16.134 16.8361 15.5725 16.5141H16.971C17.3599 16.5141 17.6752 16.1986 17.6752 15.8098C17.6752 15.4211 17.3599 15.1055 16.971 15.1055H5.14148C4.36472 15.1055 3.73313 14.4737 3.73313 13.6971V12.6494C4.14775 12.8898 4.62862 13.0283 5.14148 13.0283H14.6473C16.13 13.0283 17.61 11.9115 18.0171 10.4861L19.7605 4.3835C19.8213 4.17131 19.7787 3.94263 19.6455 3.7662C19.5125 3.58963 19.3044 3.48586 19.0836 3.48586H3.73313V2.81704C3.73313 1.26391 2.46977 0 0.916501 0C0.527814 0 0.212326 0.315488 0.212326 0.704242C0.212326 1.09333 0.527814 1.40842 0.916501 1.40842C1.69313 1.40842 2.32492 2.04047 2.32492 2.8171V13.6971ZM14.6474 18.5915C14.3952 18.5915 14.1898 18.3861 14.1898 18.1335C14.1898 17.8813 14.3952 17.6758 14.6474 17.6758C14.8997 17.6758 15.1051 17.8813 15.1051 18.1335C15.1051 18.3861 14.8997 18.5915 14.6474 18.5915ZM5.35273 18.5915C5.10041 18.5915 4.89502 18.3861 4.89502 18.1335C4.89502 17.8813 5.10041 17.6758 5.35273 17.6758C5.60499 17.6758 5.81044 17.8813 5.81044 18.1335C5.81044 18.3861 5.60499 18.5915 5.35273 18.5915ZM16.663 10.099C16.4317 10.9092 15.4896 11.6197 14.6473 11.6197H5.14148C4.36472 11.6197 3.73313 10.9879 3.73313 10.2112V4.89448H18.1499L16.663 10.099Z" fill="#6B63DD"/>
  </g>
  <defs>
    <clipPath id="clip0_230_205">
      <rect width="20" height="20" fill="white"/>
    </clipPath>
  </defs>
</svg>
