<svg width="24" height="25" viewBox="0 0 24 25" fill="none" xmlns="http://www.w3.org/2000/svg">
  <g clip-path="url(#clip0_7_885)">
    <path d="M2.78987 16.4365C2.78987 18.0559 3.93444 19.4123 5.45686 19.7405C4.70454 20.1021 4.18405 20.8714 4.18405 21.7602C4.18405 22.9953 5.18842 24 6.42325 24C7.65783 24 8.66252 22.9953 8.66252 21.7602C8.66252 20.9295 8.20708 20.2033 7.53323 19.8169H16.4668C15.7929 20.2033 15.3377 20.9295 15.3377 21.7602C15.3377 22.9953 16.3422 24 17.5768 24C18.8115 24 19.8162 22.9953 19.8162 21.7602C19.8162 20.9295 19.3608 20.2033 18.6869 19.8169H20.3651C20.8318 19.8169 21.2102 19.4383 21.2102 18.9717C21.2102 18.5054 20.8318 18.1266 20.3651 18.1266H6.16975C5.23763 18.1266 4.47973 17.3685 4.47973 16.4365V15.1792C4.97727 15.4678 5.55432 15.6339 6.16975 15.6339H17.5768C19.3559 15.6339 21.132 14.2938 21.6205 12.5833L23.7125 5.2602C23.7856 5.00558 23.7344 4.73115 23.5746 4.51943C23.4149 4.30756 23.1652 4.18303 22.9003 4.18303H4.47973V3.38044C4.47973 1.51669 2.96369 0 1.09977 0C0.633347 0 0.254761 0.378586 0.254761 0.845091C0.254761 1.312 0.633347 1.6901 1.09977 1.6901C2.03173 1.6901 2.78987 2.44857 2.78987 3.38053V16.4365ZM17.5769 22.3098C17.2742 22.3098 17.0277 22.0634 17.0277 21.7602C17.0277 21.4575 17.2742 21.211 17.5769 21.211C17.8797 21.211 18.1261 21.4575 18.1261 21.7602C18.126 22.0634 17.8797 22.3098 17.5769 22.3098ZM6.42325 22.3098C6.12046 22.3098 5.87399 22.0634 5.87399 21.7602C5.87399 21.4575 6.12046 21.211 6.42325 21.211C6.72595 21.211 6.9725 21.4575 6.9725 21.7602C6.9725 22.0634 6.72595 22.3098 6.42325 22.3098ZM19.9956 12.1188C19.718 13.0911 18.5875 13.9436 17.5768 13.9436H6.16975C5.23763 13.9436 4.47973 13.1855 4.47973 12.2535V5.87337H21.7799L19.9956 12.1188Z" fill="white"/>
  </g>
  <defs>
    <clipPath id="clip0_7_885">
      <rect width="24" height="24" fill="white"/>
    </clipPath>
  </defs>
</svg>
