<svg width="842" height="595" viewBox="0 0 842 595" fill="none" xmlns="http://www.w3.org/2000/svg">
<g clip-path="url(#clip0_2_269)">
<rect width="842" height="595" fill="url(#paint0_linear_2_269)"/>
<rect x="393" y="743.734" width="473.468" height="126.459" transform="rotate(-30 393 743.734)" fill="#555D7F"/>
<rect x="605" y="650.734" width="473.468" height="175.25" transform="rotate(-30 605 650.734)" fill="url(#paint1_linear_2_269)"/>
<rect x="774.732" y="478.015" width="270.566" height="97.6279" transform="rotate(-30 774.732 478.015)" stroke="url(#paint2_linear_2_269)" stroke-width="4"/>
<rect x="-268" y="101.734" width="473.468" height="175.25" transform="rotate(-30 -268 101.734)" fill="#555D7F"/>
<rect x="-71" y="-77.2657" width="473.468" height="175.25" transform="rotate(-30 -71 -77.2657)" fill="url(#paint3_linear_2_269)"/>
<rect x="99.7321" y="40.0151" width="270.566" height="97.6279" transform="rotate(-30 99.7321 40.0151)" stroke="url(#paint4_linear_2_269)" stroke-width="4"/>
<rect x="-108.268" y="183.015" width="270.566" height="61.268" transform="rotate(-30 -108.268 183.015)" stroke="url(#paint5_linear_2_269)" stroke-width="4"/>
<rect x="-4.87868" y="549.221" width="94.7373" height="94.7373" transform="rotate(-45 -4.87868 549.221)" stroke="url(#paint6_linear_2_269)" stroke-width="3"/>
<rect x="41.1213" y="491.225" width="45.4012" height="45.4012" transform="rotate(-45 41.1213 491.225)" stroke="url(#paint7_linear_2_269)" stroke-width="3"/>
<rect x="87.1213" y="524.654" width="92.6771" height="92.6771" transform="rotate(-45 87.1213 524.654)" stroke="url(#paint8_linear_2_269)" stroke-width="3"/>
</g>
<defs>
<linearGradient id="paint0_linear_2_269" x1="0" y1="0" x2="748" y2="838.5" gradientUnits="userSpaceOnUse">
<stop stop-color="#D7E0FD"/>
<stop offset="1" stop-color="#8D98C6"/>
</linearGradient>
<linearGradient id="paint1_linear_2_269" x1="1088.04" y1="737.088" x2="483.012" y2="774.024" gradientUnits="userSpaceOnUse">
<stop stop-color="#A5B0DF"/>
<stop offset="1" stop-color="#555D7F"/>
</linearGradient>
<linearGradient id="paint2_linear_2_269" x1="1263.72" y1="562.145" x2="849.877" y2="537.824" gradientUnits="userSpaceOnUse">
<stop stop-color="#8D98C6"/>
<stop offset="1" stop-color="#A5B0DF"/>
</linearGradient>
<linearGradient id="paint3_linear_2_269" x1="412.038" y1="9.08815" x2="38.887" y2="34.4044" gradientUnits="userSpaceOnUse">
<stop stop-color="#D7E0FD"/>
<stop offset="1" stop-color="#858FB7"/>
</linearGradient>
<linearGradient id="paint4_linear_2_269" x1="588.719" y1="124.145" x2="174.877" y2="99.8243" gradientUnits="userSpaceOnUse">
<stop stop-color="#8D98C6"/>
<stop offset="1" stop-color="#A5B0DF"/>
</linearGradient>
<linearGradient id="paint5_linear_2_269" x1="380.719" y1="236.783" x2="-31.1042" y2="199.099" gradientUnits="userSpaceOnUse">
<stop stop-color="#8D98C6"/>
<stop offset="1" stop-color="#A5B0DF"/>
</linearGradient>
<linearGradient id="paint6_linear_2_269" x1="90.7778" y1="549.262" x2="-7.04046" y2="647.08" gradientUnits="userSpaceOnUse">
<stop stop-color="#555D7F"/>
<stop offset="1" stop-color="#8D98C6"/>
</linearGradient>
<linearGradient id="paint7_linear_2_269" x1="87.4212" y1="491.245" x2="38.98" y2="539.686" gradientUnits="userSpaceOnUse">
<stop stop-color="#555D7F"/>
<stop offset="1" stop-color="#8D98C6"/>
</linearGradient>
<linearGradient id="paint8_linear_2_269" x1="180.717" y1="524.694" x2="84.9604" y2="620.45" gradientUnits="userSpaceOnUse">
<stop stop-color="#555D7F"/>
<stop offset="1" stop-color="#8D98C6"/>
</linearGradient>
<clipPath id="clip0_2_269">
<rect width="842" height="595" fill="white"/>
</clipPath>
</defs>
</svg>
