<svg width="16" height="16" viewBox="0 0 16 16" fill="none" xmlns="http://www.w3.org/2000/svg">
  <g clip-path="url(#clip0_288_151)">
    <path d="M15.3333 13.8334H1V0.833354C1 0.741687 0.925 0.666687 0.833333 0.666687H-0.333333C-0.425 0.666687 -0.5 0.741687 -0.5 0.833354V15.1667C-0.5 15.2584 -0.425 15.3334 -0.333333 15.3334H15.3333C15.425 15.3334 15.5 15.2584 15.5 15.1667V14C15.5 13.9084 15.425 13.8334 15.3333 13.8334ZM2.5 12.5H13.6667C13.7583 12.5 13.8333 12.425 13.8333 12.3334V3.25002C13.8333 3.10002 13.6521 3.0271 13.5479 3.13127L9.16667 7.51252L6.55417 4.92919C6.52284 4.89817 6.48054 4.88077 6.43646 4.88077C6.39238 4.88077 6.35007 4.89817 6.31875 4.92919L2.38125 8.87919C2.36596 8.89451 2.35385 8.91271 2.34562 8.93273C2.3374 8.95275 2.33322 8.97421 2.33333 8.99585V12.3334C2.33333 12.425 2.40833 12.5 2.5 12.5Z" fill="#13013F"/>
  </g>
  <defs>
    <clipPath id="clip0_288_151">
      <rect width="16" height="14.6667" fill="white" transform="translate(0 0.666687)"/>
    </clipPath>
  </defs>
</svg>
