<svg width="17" height="17" viewBox="0 0 17 17" fill="none" xmlns="http://www.w3.org/2000/svg">
<path d="M16.0077 9C16.0119 4.5888 12.4266 0.996545 8.01539 0.992299C3.60419 0.988053 0.0119349 4.5734 0.0076887 8.98459C0.00344251 13.3958 3.58879 16.988 7.99998 16.9923C12.4112 16.9965 16.0034 13.4112 16.0077 9ZM7.49067 11.9303L3.61552 8.04775C3.4737 7.90565 3.40285 7.71945 3.40303 7.53332C3.40321 7.34718 3.47437 7.16112 3.61656 7.01929C3.90081 6.73554 4.36132 6.73598 4.64507 7.02028L8.00649 10.388L11.3742 7.02676C11.6584 6.74301 12.1189 6.74345 12.4027 7.02775C12.6864 7.312 12.686 7.77251 12.4017 8.05626L8.51928 11.9313C8.38276 12.0676 8.19772 12.144 8.00484 12.1439C7.81187 12.1436 7.62693 12.0668 7.49067 11.9303Z" fill="#7A819F"/>
</svg>
