<svg width="16" height="16" viewBox="0 0 16 16" fill="none" xmlns="http://www.w3.org/2000/svg">
  <g clip-path="url(#clip0_288_142)">
    <path d="M7.49934 14.6667C4.20379 14.6232 1.54278 11.9622 1.49934 8.66668C1.54278 5.37113 4.20379 2.71011 7.49934 2.66668C10.7949 2.71011 13.4559 5.37113 13.4993 8.66668C13.4559 11.9622 10.7949 14.6232 7.49934 14.6667ZM7.49934 4.00001C4.93612 4.03376 2.86642 6.10346 2.83268 8.66668C2.86642 11.2299 4.93612 13.2996 7.49934 13.3333C10.0626 13.2996 12.1323 11.2299 12.166 8.66668C12.1323 6.10346 10.0626 4.03376 7.49934 4.00001ZM10.8327 9.33334H6.83268V5.33334H8.16601V8.00001H10.8327V9.33334ZM13.0273 4.47201L11.0213 2.47201L11.9607 1.52734L13.9673 3.52734L13.0273 4.47201ZM1.97068 4.47201L1.02734 3.52734L3.02134 1.52734L3.96468 2.47201L1.97201 4.47201H1.97068Z" fill="#13013F"/>
  </g>
  <defs>
    <clipPath id="clip0_288_142">
      <rect width="16" height="16" fill="white"/>
    </clipPath>
  </defs>
</svg>
