<svg width="26" height="24" viewBox="0 0 26 24" fill="none" xmlns="http://www.w3.org/2000/svg">
<path fill-rule="evenodd" clip-rule="evenodd" d="M13.4184 14.0663C11.781 14.0663 10.4528 12.8286 10.4528 11.3011C10.4528 10.5272 10.7926 9.82955 11.3421 9.32693C11.5461 9.14031 11.5492 8.83483 11.3491 8.6446C11.1489 8.45438 10.8213 8.45145 10.6173 8.63807C9.8778 9.31449 9.41785 10.2573 9.41785 11.3011C9.41785 13.3617 11.2096 15.0312 13.4184 15.0312C14.5369 15.0312 15.549 14.6024 16.2745 13.9129C16.4747 13.7227 16.4715 13.4172 16.2675 13.2306C16.0635 13.0439 15.7359 13.0469 15.5357 13.2371C14.9967 13.7494 14.2476 14.0663 13.4184 14.0663Z" fill="#677185"/>
<path fill-rule="evenodd" clip-rule="evenodd" d="M5.21351 15.2958C6.87668 17.2002 9.51738 19.1562 13.3288 19.1562C15.9137 19.1562 17.9713 18.2541 19.5494 17.0769C19.7702 16.9122 19.8049 16.6131 19.627 16.4087C19.449 16.2044 19.1258 16.1723 18.9051 16.3369C17.4719 17.406 15.6351 18.2059 13.3288 18.2059C9.94235 18.2059 7.56624 16.478 6.01204 14.6984C5.23607 13.8099 4.67531 12.9191 4.30862 12.2496C4.12558 11.9154 3.99173 11.6379 3.90425 11.4455C3.88248 11.3976 3.8636 11.355 3.84755 11.3182C3.88673 11.2328 3.94183 11.1166 4.01318 10.9749C4.17703 10.6497 4.42591 10.1915 4.76346 9.66599C5.44078 8.61151 6.4639 7.30344 7.857 6.24933C8.07653 6.08323 8.109 5.78387 7.92954 5.58069C7.75008 5.37751 7.42664 5.34745 7.20712 5.51355C5.68973 6.66169 4.59439 8.06949 3.88086 9.18033C3.523 9.73747 3.25836 10.2243 3.08255 10.5734C2.99459 10.748 2.9287 10.8885 2.88436 10.9864C2.86218 11.0353 2.84538 11.0737 2.83388 11.1003C2.82814 11.1137 2.82371 11.1241 2.82061 11.1315L2.81694 11.1402L2.81585 11.1429L2.81548 11.1438L2.81535 11.1441C2.81529 11.1442 2.81524 11.1443 3.29514 11.3132C2.81151 11.4726 2.81159 11.4729 2.81168 11.4731L2.81191 11.4737L2.81258 11.4754L2.8147 11.4808C2.81646 11.4853 2.81894 11.4916 2.82212 11.4995C2.8285 11.5154 2.83772 11.5381 2.84985 11.5672C2.8741 11.6253 2.90996 11.7088 2.95784 11.8141C3.05356 12.0246 3.19749 12.3227 3.39278 12.6793C3.78274 13.3912 4.38079 14.3424 5.21351 15.2958ZM3.29514 11.3132L2.81151 11.4726C2.77057 11.3663 2.77189 11.2499 2.81524 11.1443L3.29514 11.3132Z" fill="#677185"/>
<path fill-rule="evenodd" clip-rule="evenodd" d="M20.2099 15.599C20.4194 15.772 20.7413 15.7556 20.9289 15.5624C21.9137 14.5478 22.6203 13.4913 23.0805 12.6906C23.311 12.2895 23.4808 11.9506 23.5936 11.7104C23.65 11.5902 23.6922 11.4946 23.7208 11.428C23.735 11.3948 23.7458 11.3687 23.7533 11.3506C23.757 11.3415 23.7599 11.3343 23.762 11.3292L23.7644 11.3231L23.7652 11.3211L23.7654 11.3205L23.7655 11.3202C23.7656 11.3201 23.7656 11.32 23.2869 11.16C23.7629 10.9932 23.7628 10.993 23.7628 10.9928L23.7618 10.9906L23.7596 10.9853C23.7577 10.9808 23.7551 10.9747 23.7518 10.9668C23.7451 10.9511 23.7353 10.9286 23.7226 10.8997C23.697 10.8421 23.6592 10.7591 23.609 10.6544C23.5087 10.4451 23.3585 10.1485 23.1564 9.79371C22.753 9.08521 22.1397 8.13866 21.3002 7.18977C19.6262 5.29764 17.0023 3.34375 13.313 3.34375C11.6491 3.34375 10.1963 3.74313 8.94992 4.35717C8.70189 4.47936 8.60821 4.76388 8.74069 4.99266C8.87317 5.22143 9.18164 5.30784 9.42968 5.18564C10.5439 4.63672 11.8332 4.283 13.313 4.283C16.5723 4.283 18.9354 6.00241 20.5112 7.78359C21.2966 8.67135 21.874 9.56145 22.2549 10.2304C22.4451 10.5644 22.5855 10.8418 22.6777 11.0342C22.7011 11.0829 22.7213 11.1262 22.7385 11.1635C22.7171 11.2118 22.6906 11.27 22.6591 11.337C22.5555 11.5578 22.3971 11.8742 22.1807 12.2507C21.7471 13.0054 21.085 13.9934 20.1702 14.9359C19.9826 15.1291 20.0004 15.426 20.2099 15.599ZM23.2869 11.16L23.7629 10.9932C23.8062 11.0983 23.8072 11.2143 23.7656 11.32L23.2869 11.16Z" fill="#677185"/>
<path fill-rule="evenodd" clip-rule="evenodd" d="M16.5463 12.2744C16.8111 12.3191 17.0618 12.1399 17.1063 11.8741C17.1405 11.6703 17.1599 11.4594 17.1599 11.242C17.1599 9.15868 15.478 7.46875 13.4022 7.46875C13.1856 7.46875 12.9756 7.48825 12.7727 7.52255C12.5079 7.56729 12.3294 7.81905 12.374 8.08487C12.4186 8.35069 12.6693 8.5299 12.934 8.48516C13.0881 8.45913 13.244 8.4449 13.4022 8.4449C14.9409 8.4449 16.1878 9.69762 16.1878 11.242C16.1878 11.4008 16.1736 11.5574 16.1477 11.7121C16.1031 11.9779 16.2816 12.2297 16.5463 12.2744Z" fill="#677185"/>
<path fill-rule="evenodd" clip-rule="evenodd" d="M9.41785 11.3011C9.41785 13.3616 11.2086 15.0312 13.4184 15.0312C14.5379 15.0312 15.5491 14.6024 16.2745 13.9129C16.4747 13.7227 16.4715 13.4172 16.2675 13.2306C16.0635 13.0439 15.7359 13.0469 15.5357 13.2371C14.9967 13.7494 14.2484 14.0663 13.4184 14.0663C11.7801 14.0663 10.4528 12.8286 10.4528 11.3011C10.4528 10.528 10.7926 9.8295 11.3421 9.32693C11.5461 9.14031 11.5492 8.83483 11.3491 8.6446C11.1489 8.45438 10.8213 8.45145 10.6173 8.63807C9.87774 9.31454 9.41785 10.2583 9.41785 11.3011Z" fill="#677185"/>
<path fill-rule="evenodd" clip-rule="evenodd" d="M22.1738 19.3624C22.3706 19.1789 22.3706 18.8814 22.1738 18.6978L5.48543 3.13763C5.28862 2.95412 4.96954 2.95412 4.77273 3.13763C4.57592 3.32113 4.57592 3.61865 4.77273 3.80215L21.4611 19.3624C21.6579 19.5459 21.977 19.5459 22.1738 19.3624Z" fill="#677185"/>
</svg>
