<svg width="4" height="16" viewBox="0 0 4 16" fill="none" xmlns="http://www.w3.org/2000/svg">
  <path d="M1.55839 12.4015C1.85505 12.4038 2.14436 12.494 2.38974 12.6608C2.63511 12.8275 2.82553 13.0633 2.93691 13.3383C3.04829 13.6132 3.07564 13.9151 3.01548 14.2056C2.95533 14.4961 2.81037 14.7622 2.59896 14.9703C2.38754 15.1785 2.11916 15.3192 1.82774 15.3748C1.53633 15.4304 1.23497 15.3984 0.961777 15.2827C0.688585 15.167 0.455831 14.9729 0.292946 14.725C0.130061 14.477 0.044362 14.1863 0.0466859 13.8897C0.0498022 13.4918 0.210821 13.1116 0.494321 12.8325C0.77782 12.5534 1.16058 12.3983 1.55839 12.4015ZM1.60539 6.40164C1.90205 6.40396 2.19136 6.49421 2.43674 6.66096C2.68211 6.82771 2.87253 7.06347 2.98391 7.33844C3.09529 7.61341 3.12264 7.91524 3.06248 8.20574C3.00232 8.49625 2.85737 8.7624 2.64596 8.97053C2.43454 9.17866 2.16616 9.31942 1.87474 9.37502C1.58333 9.43062 1.28197 9.39855 1.00878 9.28287C0.735585 9.1672 0.50283 8.97311 0.339946 8.72515C0.177061 8.4772 0.0913617 8.18651 0.0936856 7.88984C0.0968018 7.49203 0.257821 7.11175 0.54132 6.83266C0.82482 6.55357 1.20758 6.39852 1.60539 6.40164ZM1.65239 0.401824C1.94905 0.404148 2.23836 0.494391 2.48374 0.66114C2.72911 0.827889 2.91953 1.06366 3.03091 1.33863C3.14229 1.6136 3.16963 1.91542 3.10948 2.20593C3.04932 2.49644 2.90437 2.76259 2.69296 2.97071C2.48154 3.17884 2.21316 3.31961 1.92174 3.3752C1.63033 3.4308 1.32897 3.39873 1.05578 3.28306C0.782585 3.16738 0.54983 2.9733 0.386945 2.72534C0.22406 2.47738 0.138361 2.18669 0.140685 1.89003C0.143801 1.49222 0.304821 1.11193 0.58832 0.832842C0.87182 0.55375 1.25458 0.398708 1.65239 0.401824V0.401824Z" fill="#13013F"/>
</svg>
