<svg width="20" height="20" viewBox="0 0 20 20" fill="none" xmlns="http://www.w3.org/2000/svg">
  <path fill-rule="evenodd" clip-rule="evenodd" d="M10.0024 3.33374C13.4491 3.33624 16.5441 5.75207 18.2824 9.79707C18.3508 9.95457 18.3508 10.1329 18.2824 10.2904C16.5449 14.3362 13.4491 16.7521 10.0024 16.7546H9.99742C6.55075 16.7521 3.45575 14.3362 1.71742 10.2904C1.64992 10.1329 1.64992 9.95457 1.71742 9.79707C3.45575 5.75207 6.55159 3.33624 9.99742 3.33374H10.0024ZM9.99992 4.58374C7.13659 4.58457 4.52492 6.62041 2.97492 10.0437C4.52492 13.4679 7.13575 15.5037 9.99992 15.5046C12.8641 15.5037 15.4749 13.4679 17.0249 10.0437C15.4749 6.62041 12.8641 4.58457 9.99992 4.58374ZM9.99967 6.78441C11.7972 6.78441 13.2597 8.24691 13.2597 10.0444C13.2597 11.8411 11.7972 13.3027 9.99967 13.3027C8.20217 13.3027 6.7405 11.8411 6.7405 10.0444C6.7405 8.24691 8.20217 6.78441 9.99967 6.78441ZM9.99967 8.03441C8.89134 8.03441 7.9905 8.93607 7.9905 10.0444C7.9905 11.1519 8.89134 12.0527 9.99967 12.0527C11.108 12.0527 12.0097 11.1519 12.0097 10.0444C12.0097 8.93607 11.108 8.03441 9.99967 8.03441Z" fill="#6B63DD"/>
</svg>
