<svg width="19" height="27" viewBox="0 0 19 27" fill="none" xmlns="http://www.w3.org/2000/svg">
<path d="M7.15936 11.875C7.46715 11.875 7.77192 11.812 8.05628 11.6895C8.34063 11.567 8.59901 11.3874 8.81665 11.1611C9.03428 10.9347 9.20692 10.666 9.32471 10.3703C9.44249 10.0746 9.50311 9.7576 9.50311 9.4375C9.50311 9.1174 9.44249 8.80044 9.32471 8.50471C9.20692 8.20898 9.03428 7.94027 8.81665 7.71393C8.59901 7.48758 8.34063 7.30804 8.05628 7.18554C7.77192 7.06305 7.46715 7 7.15936 7C6.53776 7 5.94162 7.25681 5.50208 7.71393C5.06254 8.17105 4.81561 8.79103 4.81561 9.4375C4.81561 10.084 5.06254 10.704 5.50208 11.1611C5.94162 11.6182 6.53776 11.875 7.15936 11.875Z" fill="#6B63DD"/>
<path d="M18.875 23.25C18.875 24.112 18.5458 24.9386 17.9597 25.5481C17.3737 26.1576 16.5788 26.5 15.75 26.5H3.25C2.4212 26.5 1.62634 26.1576 1.04029 25.5481C0.45424 24.9386 0.125 24.112 0.125 23.25V3.75C0.125 2.88805 0.45424 2.0614 1.04029 1.4519C1.62634 0.84241 2.4212 0.5 3.25 0.5L11.8438 0.5L18.875 7.8125V23.25ZM3.25 2.125C2.8356 2.125 2.43817 2.2962 2.14515 2.60095C1.85212 2.9057 1.6875 3.31902 1.6875 3.75V20L5.1625 16.386C5.28565 16.2582 5.44628 16.1769 5.61893 16.1548C5.79158 16.1327 5.96638 16.1712 6.11563 16.2641L9.5 18.375L12.8703 13.4675C12.9363 13.3716 13.0215 13.2917 13.1201 13.2335C13.2187 13.1753 13.3283 13.1401 13.4413 13.1304C13.5543 13.1206 13.6679 13.1366 13.7744 13.1771C13.8809 13.2177 13.9776 13.2818 14.0578 13.3651L17.3125 16.75V7.8125H14.1875C13.5659 7.8125 12.9698 7.55569 12.5302 7.09857C12.0907 6.64145 11.8438 6.02147 11.8438 5.375V2.125H3.25Z" fill="#7A819F"/>
</svg>
