<svg width="40" height="40" viewBox="0 0 40 40" fill="none" xmlns="http://www.w3.org/2000/svg">
<path d="M0 20C0 8.95431 8.95431 0 20 0C31.0457 0 40 8.95431 40 20C40 31.0457 31.0457 40 20 40C8.95431 40 0 31.0457 0 20Z" fill="white"/>
<g clip-path="url(#clip0_3324_8542)">
<path d="M12.325 23.6971C12.325 25.0466 13.2788 26.1769 14.5475 26.4504C13.9206 26.7517 13.4868 27.3928 13.4868 28.1335C13.4868 29.1628 14.3238 30 15.3528 30C16.3816 30 17.2189 29.1628 17.2189 28.1335C17.2189 27.4412 16.8393 26.8361 16.2778 26.5141H23.7224C23.1609 26.8361 22.7815 27.4412 22.7815 28.1335C22.7815 29.1628 23.6186 30 24.6474 30C25.6764 30 26.5136 29.1628 26.5136 28.1335C26.5136 27.4412 26.1341 26.8361 25.5725 26.5141H26.9711C27.3599 26.5141 27.6752 26.1986 27.6752 25.8098C27.6752 25.4211 27.3599 25.1055 26.9711 25.1055H15.1416C14.3648 25.1055 13.7332 24.4737 13.7332 23.6971V22.6494C14.1478 22.8898 14.6287 23.0283 15.1416 23.0283H24.6474C26.13 23.0283 27.6101 21.9115 28.0172 20.4861L29.7605 14.3835C29.8214 14.1713 29.7787 13.9426 29.6456 13.7662C29.5125 13.5896 29.3045 13.4859 29.0836 13.4859H13.7332V12.817C13.7332 11.2639 12.4698 10 10.9166 10C10.5279 10 10.2124 10.3155 10.2124 10.7042C10.2124 11.0933 10.5279 11.4084 10.9166 11.4084C11.6932 11.4084 12.325 12.0405 12.325 12.8171V23.6971ZM24.6475 28.5915C24.3953 28.5915 24.1898 28.3861 24.1898 28.1335C24.1898 27.8813 24.3953 27.6758 24.6475 27.6758C24.8998 27.6758 25.1052 27.8813 25.1052 28.1335C25.1051 28.3861 24.8998 28.5915 24.6475 28.5915ZM15.3528 28.5915C15.1005 28.5915 14.8951 28.3861 14.8951 28.1335C14.8951 27.8813 15.1005 27.6758 15.3528 27.6758C15.6051 27.6758 15.8105 27.8813 15.8105 28.1335C15.8105 28.3861 15.6051 28.5915 15.3528 28.5915Z" fill="#6B63DD"/>
</g>
<defs>
<clipPath id="clip0_3324_8542">
<rect width="20" height="20" fill="white" transform="translate(10 10)"/>
</clipPath>
</defs>
</svg>
