<svg width="20" height="21" viewBox="0 0 20 21" fill="none" xmlns="http://www.w3.org/2000/svg">
  <g clip-path="url(#clip0_7_865)">
    <path d="M9.99297 2.16797C5.39297 2.16797 1.66797 5.9013 1.66797 10.5013C1.66797 15.1013 5.39297 18.8346 9.99297 18.8346C14.6013 18.8346 18.3346 15.1013 18.3346 10.5013C18.3346 5.9013 14.6013 2.16797 9.99297 2.16797ZM15.768 7.16797H13.3096C13.043 6.1263 12.6596 5.1263 12.1596 4.2013C13.693 4.7263 14.968 5.79297 15.768 7.16797ZM10.0013 3.86797C10.693 4.86797 11.2346 5.9763 11.593 7.16797H8.40964C8.76797 5.9763 9.30964 4.86797 10.0013 3.86797ZM3.5513 12.168C3.41797 11.6346 3.33464 11.0763 3.33464 10.5013C3.33464 9.9263 3.41797 9.36797 3.5513 8.83464H6.36797C6.3013 9.38464 6.2513 9.93464 6.2513 10.5013C6.2513 11.068 6.3013 11.618 6.36797 12.168H3.5513ZM4.23464 13.8346H6.69297C6.95964 14.8763 7.34297 15.8763 7.84297 16.8013C6.30964 16.2763 5.03464 15.218 4.23464 13.8346ZM6.69297 7.16797H4.23464C5.03464 5.78464 6.30964 4.7263 7.84297 4.2013C7.34297 5.1263 6.95964 6.1263 6.69297 7.16797ZM10.0013 17.1346C9.30964 16.1346 8.76797 15.0263 8.40964 13.8346H11.593C11.2346 15.0263 10.693 16.1346 10.0013 17.1346ZM11.9513 12.168H8.0513C7.9763 11.618 7.91797 11.068 7.91797 10.5013C7.91797 9.93464 7.9763 9.3763 8.0513 8.83464H11.9513C12.0263 9.3763 12.0846 9.93464 12.0846 10.5013C12.0846 11.068 12.0263 11.618 11.9513 12.168ZM12.1596 16.8013C12.6596 15.8763 13.043 14.8763 13.3096 13.8346H15.768C14.968 15.2096 13.693 16.2763 12.1596 16.8013ZM13.6346 12.168C13.7013 11.618 13.7513 11.068 13.7513 10.5013C13.7513 9.93464 13.7013 9.38464 13.6346 8.83464H16.4513C16.5846 9.36797 16.668 9.9263 16.668 10.5013C16.668 11.0763 16.5846 11.6346 16.4513 12.168H13.6346Z" fill="white"/>
  </g>
  <defs>
    <clipPath id="clip0_7_865">
      <rect width="20" height="20" fill="white" transform="translate(0 0.5)"/>
    </clipPath>
  </defs>
</svg>

