<svg width="24" height="24" viewBox="0 0 24 24" fill="none" xmlns="http://www.w3.org/2000/svg">
  <g clip-path="url(#clip0_831_5900)">
    <path d="M11.9915 2.00146C6.47147 2.00146 2.00146 6.48147 2.00146 12.0015C2.00146 17.5215 6.47147 22.0015 11.9915 22.0015C17.5215 22.0015 22.0015 17.5215 22.0015 12.0015C22.0015 6.48147 17.5215 2.00146 11.9915 2.00146ZM18.9215 8.00147H15.9715C15.6515 6.75147 15.1915 5.55147 14.5915 4.44147C16.4315 5.07147 17.9615 6.35147 18.9215 8.00147ZM12.0015 4.04147C12.8315 5.24147 13.4815 6.57147 13.9115 8.00147H10.0915C10.5215 6.57147 11.1715 5.24147 12.0015 4.04147ZM4.26147 14.0015C4.10147 13.3615 4.00147 12.6915 4.00147 12.0015C4.00147 11.3115 4.10147 10.6415 4.26147 10.0015H7.64147C7.56147 10.6615 7.50147 11.3215 7.50147 12.0015C7.50147 12.6815 7.56147 13.3415 7.64147 14.0015H4.26147ZM5.08147 16.0015H8.03147C8.35147 17.2515 8.81147 18.4515 9.41147 19.5615C7.57147 18.9315 6.04147 17.6615 5.08147 16.0015V16.0015ZM8.03147 8.00147H5.08147C6.04147 6.34147 7.57147 5.07147 9.41147 4.44147C8.81147 5.55147 8.35147 6.75147 8.03147 8.00147V8.00147ZM12.0015 19.9615C11.1715 18.7615 10.5215 17.4315 10.0915 16.0015H13.9115C13.4815 17.4315 12.8315 18.7615 12.0015 19.9615ZM14.3415 14.0015H9.66147C9.57147 13.3415 9.50147 12.6815 9.50147 12.0015C9.50147 11.3215 9.57147 10.6515 9.66147 10.0015H14.3415C14.4315 10.6515 14.5015 11.3215 14.5015 12.0015C14.5015 12.6815 14.4315 13.3415 14.3415 14.0015ZM14.5915 19.5615C15.1915 18.4515 15.6515 17.2515 15.9715 16.0015H18.9215C17.9615 17.6515 16.4315 18.9315 14.5915 19.5615V19.5615ZM16.3615 14.0015C16.4415 13.3415 16.5015 12.6815 16.5015 12.0015C16.5015 11.3215 16.4415 10.6615 16.3615 10.0015H19.7415C19.9015 10.6415 20.0015 11.3115 20.0015 12.0015C20.0015 12.6915 19.9015 13.3615 19.7415 14.0015H16.3615Z" fill="#7A819F"/>
  </g>
  <defs>
    <clipPath id="clip0_831_5900">
      <rect width="24" height="24" fill="white"/>
    </clipPath>
  </defs>
</svg>
