<svg width="24" height="24" viewBox="0 0 24 24" fill="none" xmlns="http://www.w3.org/2000/svg">
  <path fill-rule="evenodd" clip-rule="evenodd" d="M11.9983 1.78773C13.9045 0.582614 16.4366 0.249684 18.6241 0.950712C23.3824 2.48524 24.8595 7.67262 23.5383 11.8002C21.4997 18.283 12.7931 23.1187 12.4239 23.3215C12.2926 23.3942 12.1472 23.4305 12.0018 23.4305C11.8565 23.4305 11.7123 23.3954 11.581 23.3238C11.2141 23.1234 2.57078 18.3592 0.464175 11.8014C0.463003 11.8014 0.463003 11.8002 0.463003 11.8002C-0.859338 7.67144 0.613056 2.48289 5.36669 0.950712C7.59872 0.228583 10.0312 0.546273 11.9983 1.78773ZM5.90594 2.62474C2.05966 3.86502 1.09369 8.00203 2.1382 11.2645C3.78175 16.378 10.2751 20.5127 12.0007 21.5361C13.7321 20.5021 20.2723 16.3218 21.8631 11.2692C22.9076 8.0032 21.9382 3.86619 18.086 2.62474C16.2197 2.0257 14.0428 2.39028 12.5399 3.55319C12.2257 3.79468 11.7897 3.79937 11.4731 3.56023C9.88117 2.36332 7.80153 2.01281 5.90594 2.62474ZM16.9606 4.95279C18.5585 5.46977 19.678 6.88472 19.8151 8.55758C19.8538 9.04173 19.4939 9.4661 19.0098 9.50479C18.9852 9.50713 18.9617 9.5083 18.9371 9.5083C18.4834 9.5083 18.0989 9.16013 18.0614 8.7006C17.984 7.73697 17.3393 6.92341 16.4214 6.62682C15.9583 6.47676 15.7051 5.98089 15.854 5.52018C16.0052 5.05829 16.4964 4.80742 16.9606 4.95279Z" fill="white"/>
</svg>
