<svg width="24" height="24" viewBox="0 0 24 24" fill="none" xmlns="http://www.w3.org/2000/svg">
  <path d="M5.47819 13.826C5.00862 13.826 4.51297 13.6173 4.17384 13.2782C3.83471 12.939 3.6521 12.4695 3.6521 11.9999C3.6521 11.5303 3.8608 11.0608 4.17384 10.6956C4.51297 10.3564 4.98253 10.1738 5.47819 10.1738C5.94775 10.1738 6.41732 10.3825 6.75645 10.6956C7.09558 11.0347 7.30427 11.5043 7.30427 11.9999C7.30427 12.4695 7.09558 12.939 6.75645 13.2782C6.41732 13.6173 5.94775 13.826 5.47819 13.826ZM13.2782 13.2782C13.6173 12.939 13.826 12.4695 13.826 11.9999C13.826 11.5303 13.6173 11.0608 13.2782 10.6956C12.9391 10.3564 12.4695 10.1738 11.9999 10.1738C11.5304 10.1738 11.0347 10.3825 10.6956 10.6956C10.3564 11.0347 10.1738 11.5043 10.1738 11.9999C10.1738 12.4695 10.3825 12.939 10.6956 13.2782C11.0347 13.6173 11.5043 13.826 11.9999 13.826C12.4695 13.826 12.9391 13.6173 13.2782 13.2782ZM19.7999 13.2782C20.1391 12.939 20.3478 12.4695 20.3478 11.9999C20.3478 11.5303 20.1391 11.0608 19.7999 10.6956C19.4608 10.3564 18.9912 10.1738 18.5217 10.1738C18.0521 10.1738 17.5564 10.3825 17.2173 10.6956C16.8782 11.0347 16.6956 11.5043 16.6956 11.9999C16.6956 12.4695 16.9043 12.939 17.2173 13.2782C17.5564 13.6173 18.026 13.826 18.5217 13.826C18.9912 13.826 19.4608 13.6173 19.7999 13.2782Z" fill="#7A819F"/>
</svg>
