<svg width="15" height="13" viewBox="0 0 15 13" fill="none" xmlns="http://www.w3.org/2000/svg">
<path d="M14.1699 7.96537V12.9127H11.3016V8.29693C11.3016 7.13796 10.8874 6.34649 9.84888 6.34649C9.05634 6.34649 8.58552 6.87934 8.3776 7.39529C8.30209 7.57969 8.28262 7.83574 8.28262 8.09436V12.9125H5.41407C5.41407 12.9125 5.45257 5.09489 5.41407 4.28567H8.28283V5.50817C8.27706 5.51779 8.26893 5.52721 8.2638 5.53641H8.28283V5.50817C8.66402 4.92162 9.34383 4.08309 10.868 4.08309C12.7551 4.08309 14.1699 5.31608 14.1699 7.96537ZM2.41332 0.127228C1.43211 0.127228 0.790161 0.771315 0.790161 1.61755C0.790161 2.44581 1.4135 3.10851 2.37567 3.10851H2.39428C3.39475 3.10851 4.0168 2.44581 4.0168 1.61755C3.99776 0.771315 3.39475 0.127228 2.41332 0.127228ZM0.960648 12.9127H3.82813V4.28567H0.960648V12.9127Z" fill="#F1F2F2"/>
</svg>
