<svg width="24" height="24" viewBox="0 0 24 24" fill="none" xmlns="http://www.w3.org/2000/svg">
  <g clip-path="url(#clip0_602_9555)">
    <path d="M22.3926 1.60742C20.2499 -0.535308 16.7632 -0.535751 14.6202 1.60624L14.6207 1.60668L11.2301 4.99784L12.7952 6.56262L16.1863 3.17072L16.186 3.17043C17.4665 1.8922 19.548 1.89293 20.8275 3.17249C22.1072 4.45205 22.1071 6.53458 20.8275 7.81458L15.7391 12.9027C15.1192 13.5227 14.295 13.8642 13.4183 13.8642C12.5415 13.8642 11.7172 13.5227 11.0973 12.9027L9.53223 14.4676C10.5702 15.5057 11.9504 16.0774 13.4184 16.0774C14.8864 16.0774 16.2666 15.5057 17.3042 14.4676L22.3927 9.37951C24.535 7.23633 24.535 3.74971 22.3926 1.60742Z" fill="white"/>
    <path d="M7.81415 20.8286C6.53415 22.1078 4.45177 22.1075 3.17206 20.8278C1.89236 19.5478 1.89236 17.465 3.17191 16.1851L8.25976 11.0973C9.53976 9.81745 11.6223 9.81745 12.902 11.0973L14.4672 9.53238C12.3242 7.38951 8.83756 7.38936 6.69483 9.53238L1.6067 14.6202C-0.53559 16.7631 -0.53559 20.2499 1.60685 22.3929C2.67851 23.4644 4.08584 24.0002 5.49348 24C6.90052 24 8.30786 23.4646 9.37893 22.3936L9.37922 22.3935L12.7705 19.0013L11.2053 17.4364L7.81415 20.8286Z" fill="white"/>
  </g>
  <defs>
    <clipPath id="clip0_602_9555">
      <rect width="24" height="24" fill="white"/>
    </clipPath>
  </defs>
</svg>
