<svg width="24" height="25" viewBox="0 0 24 25" fill="none" xmlns="http://www.w3.org/2000/svg">
<path fill-rule="evenodd" clip-rule="evenodd" d="M10.6649 21.4947C11.207 22.0985 11.9029 22.4302 12.625 22.4302H12.6261C13.3513 22.4302 14.0504 22.0985 14.5935 21.4936C14.8844 21.1723 15.3805 21.1462 15.7017 21.436C16.0241 21.7259 16.0502 22.223 15.7604 22.5443C14.9148 23.483 13.8023 24 12.6261 24H12.624C11.4508 23.999 10.3405 23.482 9.49803 22.5433C9.20814 22.222 9.23431 21.7249 9.55663 21.436C9.87896 21.1451 10.375 21.1713 10.6649 21.4947ZM12.6771 1.5C17.3289 1.5 20.4538 5.12302 20.4538 8.5064C20.4538 10.2467 20.8964 10.9845 21.3663 11.7673C21.831 12.5397 22.3574 13.4166 22.3574 15.0743C21.9921 19.3095 17.5706 19.6549 12.6771 19.6549C7.78363 19.6549 3.36107 19.3095 3.00001 15.1413C2.99689 13.4166 3.52328 12.5397 3.98793 11.7673L4.15197 11.4912C4.55585 10.7971 4.90049 10.042 4.90049 8.5064C4.90049 5.12302 8.02538 1.5 12.6771 1.5ZM12.6771 3.06977C9.01956 3.06977 6.47026 5.93512 6.47026 8.5064C6.47026 10.6821 5.86642 11.6878 5.3327 12.5752C4.90468 13.2879 4.56666 13.8509 4.56666 15.0743C4.74142 17.048 6.04433 18.0851 12.6771 18.0851C19.2733 18.0851 20.617 17.002 20.7907 15.0063C20.7876 13.8509 20.4496 13.2879 20.0215 12.5752C19.4878 11.6878 18.884 10.6821 18.884 8.5064C18.884 5.93512 16.3347 3.06977 12.6771 3.06977Z" fill="white"/>
<circle cx="18" cy="4" r="4" fill="#EA4643"/>
</svg>
