<svg width="24" height="24" viewBox="0 0 24 24" fill="none" xmlns="http://www.w3.org/2000/svg">
  <path d="M0.221191 16.268C0.761439 16.9519 1.36002 17.5876 2.01019 18.168C2.00819 18.111 2.00019 18.057 2.00019 18C2.0041 16.985 2.315 15.9951 2.89203 15.1601C3.46905 14.3252 4.2852 13.6844 5.23319 13.322C5.40755 13.256 5.55999 13.1426 5.67332 12.9946C5.78665 12.8466 5.85635 12.6698 5.87455 12.4843C5.89275 12.2988 5.85872 12.1118 5.77632 11.9446C5.69391 11.7774 5.56641 11.6366 5.40819 11.538C4.97585 11.2709 4.61933 10.8972 4.3728 10.4528C4.12626 10.0084 3.99796 9.50815 4.00019 8.99996C3.99801 8.41736 4.16619 7.84683 4.48405 7.35858C4.80191 6.87032 5.25557 6.48564 5.78921 6.25187C6.32285 6.0181 6.9132 5.94543 7.4876 6.04281C8.06201 6.14019 8.59542 6.40336 9.02219 6.79996C9.64733 6.44114 10.3325 6.19887 11.0442 6.08496C10.6541 5.53995 10.1583 5.07904 9.58626 4.7297C9.01427 4.38035 8.3778 4.14972 7.71479 4.05155C7.05178 3.95337 6.37579 3.98966 5.7271 4.15825C5.07841 4.32684 4.4703 4.62428 3.93899 5.03285C3.40768 5.44142 2.96405 5.95276 2.63453 6.5364C2.30501 7.12004 2.09634 7.76405 2.02096 8.43003C1.94558 9.09602 2.00504 9.77037 2.19578 10.4129C2.38651 11.0554 2.70464 11.653 3.13119 12.17C1.692 13.1334 0.656511 14.5916 0.221191 16.268ZM23.7792 16.268C23.3443 14.5909 22.3088 13.1319 20.8692 12.168C21.2943 11.6508 21.6112 11.0535 21.8009 10.4114C21.9906 9.76941 22.0492 9.09579 21.9734 8.43063C21.8975 7.76547 21.6887 7.12235 21.3594 6.5395C21.03 5.95666 20.5868 5.44598 20.0562 5.03783C19.5255 4.62969 18.9182 4.33241 18.2703 4.16367C17.6225 3.99492 16.9473 3.95816 16.2849 4.05556C15.6226 4.15297 14.9866 4.38255 14.4148 4.73067C13.8429 5.07878 13.3469 5.53832 12.9562 6.08196C13.6679 6.19583 14.3531 6.4381 14.9782 6.79696C15.2846 6.51517 15.6464 6.30039 16.0405 6.16634C16.4346 6.03229 16.8523 5.98193 17.267 6.01847C17.6817 6.05501 18.0841 6.17765 18.4487 6.37854C18.8133 6.57944 19.132 6.85418 19.3844 7.18521C19.6368 7.51625 19.8173 7.89629 19.9145 8.30105C20.0117 8.70582 20.0234 9.12641 19.9489 9.53595C19.8743 9.9455 19.7152 10.335 19.4816 10.6795C19.248 11.0241 18.945 11.3161 18.5922 11.537C18.434 11.6356 18.3065 11.7764 18.2241 11.9436C18.1417 12.1108 18.1076 12.2978 18.1258 12.4833C18.144 12.6688 18.2137 12.8456 18.3271 12.9936C18.4404 13.1416 18.5928 13.255 18.7672 13.321C19.7153 13.6835 20.5316 14.3244 21.1086 15.1595C21.6857 15.9947 21.9965 16.9849 22.0002 18C22.0002 18.057 21.9922 18.111 21.9902 18.167C22.6403 17.5869 23.2389 16.9515 23.7792 16.268Z" fill="white"/>
  <path d="M18.9539 20.284C18.8453 19.2577 18.5127 18.2678 17.9796 17.3842C17.4465 16.5005 16.726 15.7447 15.8689 15.17C16.6041 14.2776 17.0042 13.1562 16.9999 12C16.9994 11.1988 16.8065 10.4096 16.4373 9.69859C16.0681 8.98762 15.5335 8.37576 14.8785 7.91455C14.2234 7.45334 13.4672 7.15627 12.6734 7.04837C11.8795 6.94047 11.0714 7.02489 10.317 7.29452C9.56266 7.56415 8.88412 8.0111 8.33855 8.59773C7.79298 9.18437 7.39636 9.8935 7.18208 10.6654C6.9678 11.4374 6.94214 12.2495 7.10726 13.0334C7.27238 13.8173 7.62345 14.5501 8.1309 15.17C7.27377 15.7447 6.55325 16.5005 6.02019 17.3842C5.48714 18.2678 5.15455 19.2577 5.0459 20.284C5.6807 20.6138 6.3384 20.8975 7.0139 21.133C7.0119 21.088 6.9999 21.046 6.9999 21C7.00409 19.9851 7.31509 18.9953 7.89208 18.1604C8.46907 17.3255 9.28506 16.6846 10.2329 16.322C10.4075 16.2561 10.5602 16.1427 10.6737 15.9946C10.7872 15.8465 10.8571 15.6696 10.8753 15.4839C10.8935 15.2981 10.8593 15.111 10.7768 14.9437C10.6942 14.7764 10.5664 14.6355 10.4079 14.537C9.97543 14.2702 9.6188 13.8968 9.37224 13.4525C9.12567 13.0083 8.99746 12.5081 8.9999 12C8.9999 11.2043 9.31597 10.4412 9.87858 9.87864C10.4412 9.31603 11.2042 8.99996 11.9999 8.99996C12.7955 8.99996 13.5586 9.31603 14.1212 9.87864C14.6838 10.4412 14.9999 11.2043 14.9999 12C15.0023 12.5081 14.8741 13.0083 14.6276 13.4525C14.381 13.8968 14.0244 14.2702 13.5919 14.537C13.4334 14.6355 13.3056 14.7764 13.223 14.9437C13.1405 15.111 13.1063 15.2981 13.1245 15.4839C13.1427 15.6696 13.2126 15.8465 13.3261 15.9946C13.4396 16.1427 13.5923 16.2561 13.7669 16.322C14.7147 16.6846 15.5307 17.3255 16.1077 18.1604C16.6847 18.9953 16.9957 19.9851 16.9999 21C16.9999 21.046 16.9879 21.088 16.9869 21.133C17.6621 20.8975 18.3194 20.6137 18.9539 20.284Z" fill="white"/>
</svg>
