<svg width="24" height="24" viewBox="0 0 24 24" fill="none" xmlns="http://www.w3.org/2000/svg">
  <path d="M12.5 2C6.70162 2 2 6.7009 2 12.5C2 18.2991 6.70116 23 12.5 23C18.2993 23 23 18.2991 23 12.5C23 6.7009 18.2993 2 12.5 2ZM12.5 5.13962C14.4187 5.13962 15.9734 6.6949 15.9734 8.61272C15.9734 10.531 14.4187 12.0858 12.5 12.0858C10.5823 12.0858 9.02752 10.531 9.02752 8.61272C9.02752 6.6949 10.5823 5.13962 12.5 5.13962ZM12.4977 20.2547C10.5841 20.2547 8.8315 19.5578 7.47968 18.4043C7.15038 18.1234 6.96036 17.7115 6.96036 17.2793C6.96036 15.3343 8.53448 13.7776 10.4799 13.7776H14.521C16.4669 13.7776 18.035 15.3343 18.035 17.2793C18.035 17.7119 17.8459 18.1229 17.5162 18.4038C16.1648 19.5578 14.4117 20.2547 12.4977 20.2547Z" fill="#7A819F"/>
</svg>
