<svg width="24" height="24" viewBox="0 0 24 24" fill="none" xmlns="http://www.w3.org/2000/svg">
<g clip-path="url(#clip0_4041_12718)">
<path d="M0 1.324C0 0.593333 0.593333 0 1.324 0H22.676C23.4067 0 24 0.593333 24 1.324V22.676C23.9996 23.027 23.86 23.3636 23.6118 23.6118C23.3636 23.86 23.027 23.9996 22.676 24H1.324C0.972962 23.9996 0.636402 23.86 0.38818 23.6118C0.139959 23.3636 0.00035298 23.027 0 22.676V1.324Z" fill="#7A819F"/>
<path d="M12 4.875C9.91999 4.875 8.25 6.56631 8.25 8.71875C8.25 9.0294 8.50185 9.28125 8.8125 9.28125C9.12315 9.28125 9.375 9.0294 9.375 8.71875C9.375 7.16621 10.5625 6 12 6C13.4375 6 14.625 7.16621 14.625 8.71875C14.625 9.40721 14.4577 9.78784 14.2419 10.0714C14.0631 10.3062 13.858 10.4776 13.5921 10.6998C13.4802 10.7933 13.3575 10.8957 13.2216 11.0157C12.7887 11.3977 12.3273 11.8824 11.9838 12.6567C11.6442 13.4226 11.4375 14.4314 11.4375 15.8438V15.9375C11.4375 16.2481 11.6893 16.5 12 16.5C12.3106 16.5 12.5625 16.2481 12.5625 15.9375V15.8438C12.5625 14.5373 12.7542 13.6946 13.0122 13.1128C13.2665 12.5395 13.6019 12.1804 13.9659 11.8593C14.0465 11.7882 14.1358 11.7136 14.2297 11.6353C14.5291 11.3855 14.8753 11.0966 15.137 10.7528C15.5188 10.2512 15.75 9.62404 15.75 8.71875C15.75 6.56631 14.08 4.875 12 4.875Z" fill="white"/>
<path d="M12 18.75C12.3624 18.75 12.6562 18.4562 12.6562 18.0938C12.6562 17.7313 12.3624 17.4375 12 17.4375C11.6376 17.4375 11.3438 17.7313 11.3438 18.0938C11.3438 18.4562 11.6376 18.75 12 18.75Z" fill="white"/>
</g>
<defs>
<clipPath id="clip0_4041_12718">
<rect width="24" height="24" fill="white"/>
</clipPath>
</defs>
</svg>
