<svg width="18" height="18" viewBox="0 0 18 18" fill="none" xmlns="http://www.w3.org/2000/svg">
<path d="M15.25 0C16.7688 0 18 1.23122 18 2.75V15.25C18 16.7688 16.7688 18 15.25 18H2.75C1.23122 18 0 16.7688 0 15.25V2.75C0 1.23122 1.23122 0 2.75 0H15.25ZM15.25 1.5H2.75C2.05964 1.5 1.5 2.05964 1.5 2.75V15.25C1.5 15.9404 2.05964 16.5 2.75 16.5H15.25C15.9404 16.5 16.5 15.9404 16.5 15.25V2.75C16.5 2.05964 15.9404 1.5 15.25 1.5Z" fill="#EA4643"/>
<path d="M5.91267 5.15659C5.70388 4.9478 5.36537 4.9478 5.15659 5.15659C4.9478 5.36537 4.9478 5.70388 5.15659 5.91267L8.24393 9.00001L5.15662 12.0873C4.94784 12.2961 4.94784 12.6346 5.15662 12.8434C5.36541 13.0522 5.70392 13.0522 5.9127 12.8434L9 9.75609L12.0873 12.8434C12.2961 13.0522 12.6346 13.0522 12.8434 12.8434C13.0522 12.6346 13.0522 12.2961 12.8434 12.0873L9.75607 9.00001L12.8434 5.91267C13.0522 5.70388 13.0522 5.36537 12.8434 5.15659C12.6346 4.9478 12.2961 4.9478 12.0873 5.15659L9 8.24394L5.91267 5.15659Z" fill="#EA4643"/>
</svg>
