<svg width="33" height="38" viewBox="0 0 33 38" fill="none" xmlns="http://www.w3.org/2000/svg">
<path d="M23.8657 23.4331C23.8657 23.0835 23.582 22.7998 23.2324 22.7998H19.4324C19.0828 22.7998 18.7991 23.0835 18.7991 23.4331C18.7991 23.7827 19.0828 24.0664 19.4324 24.0664H23.2324C23.582 24.0665 23.8657 23.7828 23.8657 23.4331Z" fill="#6B63DD"/>
<path d="M21.125 6.87097V3.64514C21.125 3.28904 20.873 3 20.5625 3C20.252 3 20 3.28904 20 3.64514V6.87097C20 8.64965 21.2617 10.0968 22.8125 10.0968H27.875V22.3549C27.875 22.711 28.127 23 28.4375 23C28.748 23 29 22.711 29 22.3549V9.4516C29 9.0955 28.748 8.80646 28.4375 8.80646H22.8125C21.8821 8.80646 21.125 7.93806 21.125 6.87097Z" fill="#6B63DD"/>
<path d="M23.2322 15.2002H18.1655C17.816 15.2002 17.5322 15.4839 17.5322 15.8335C17.5322 16.1831 17.816 16.4668 18.1655 16.4668H23.2322C23.5818 16.4668 23.8655 16.1831 23.8655 15.8335C23.8656 15.4839 23.5819 15.2002 23.2322 15.2002Z" fill="#6B63DD"/>
<path d="M16.2656 15.8335C16.2656 15.4839 15.9819 15.2002 15.6323 15.2002H11.8323C11.4827 15.2002 11.199 15.4839 11.199 15.8335C11.199 16.1831 11.4827 16.4668 11.8323 16.4668H15.6323C15.9819 16.4669 16.2656 16.1831 16.2656 15.8335Z" fill="#6B63DD"/>
<path d="M11.8323 19C11.4827 19 11.199 19.2837 11.199 19.6333C11.199 19.9829 11.4827 20.2666 11.8323 20.2666H13.099C13.4485 20.2666 13.7323 19.9829 13.7323 19.6333C13.7323 19.2837 13.4485 19 13.099 19H11.8323Z" fill="#6B63DD"/>
<path d="M11.8323 12.6665H18.1656C18.5152 12.6665 18.7989 12.3828 18.7989 12.0332C18.7989 11.6836 18.5152 11.3999 18.1656 11.3999H11.8323C11.4827 11.3999 11.199 11.6836 11.199 12.0332C11.199 12.3828 11.4827 12.6665 11.8323 12.6665Z" fill="#6B63DD"/>
<path d="M15.6323 20.2666H21.9656C22.3152 20.2666 22.5989 19.9829 22.5989 19.6333C22.5989 19.2837 22.3152 19 21.9656 19H15.6323C15.2828 19 14.999 19.2837 14.999 19.6333C14.999 19.9829 15.2828 20.2666 15.6323 20.2666Z" fill="#6B63DD"/>
<path d="M19.4321 26.6001C19.0826 26.6001 18.7988 26.8838 18.7988 27.2334C18.7988 27.583 19.0826 27.8667 19.4321 27.8667H20.6988C21.0484 27.8667 21.3321 27.583 21.3321 27.2334C21.3321 26.8838 21.0484 26.6001 20.6988 26.6001H19.4321Z" fill="#6B63DD"/>
<path d="M16.899 22.7998H11.8323C11.4827 22.7998 11.199 23.0835 11.199 23.4331C11.199 23.7827 11.4827 24.0664 11.8323 24.0664H16.899C17.2485 24.0664 17.5323 23.7827 17.5323 23.4331C17.5323 23.0835 17.2485 22.7998 16.899 22.7998Z" fill="#6B63DD"/>
<path d="M16.899 26.6001H11.8323C11.4827 26.6001 11.199 26.8838 11.199 27.2334C11.199 27.583 11.4827 27.8667 11.8323 27.8667H16.899C17.2485 27.8667 17.5323 27.583 17.5323 27.2334C17.5323 26.8838 17.2485 26.6001 16.899 26.6001Z" fill="#6B63DD"/>
<path d="M31.9779 26.0879L30.7112 24.8212C29.7377 23.8477 28.2544 23.8496 27.2823 24.8212L18.9844 33.1191C18.8659 33.2376 18.7988 33.3991 18.7988 33.5669V37.3669C18.7988 37.7164 19.0826 38.0002 19.4321 38.0002H23.2321C23.3999 38.0002 23.5614 37.9331 23.6799 37.8146L31.9779 29.5167C32.9868 28.5078 32.9868 27.0974 31.9779 26.0879ZM26.4634 27.4311L27.4679 28.4356L21.9654 33.938L20.961 32.9336L26.4634 27.4311ZM20.0655 36.7335V33.829L22.97 36.7335H20.0655ZM23.8655 35.838L22.861 34.8335L28.3635 29.3311L29.3679 30.3355L23.8655 35.838ZM31.0823 28.6212L30.2634 29.4401L27.3589 26.5356L28.1779 25.7167C28.6782 25.217 29.3128 25.2144 29.8156 25.7167L31.0823 26.9834C31.5947 27.4964 31.5947 28.1088 31.0823 28.6212Z" fill="#6B63DD"/>
<path d="M18.0832 36.7332H2.91661C1.95179 36.7332 1.16662 35.8808 1.16662 34.8332V3.16669C1.16662 2.11916 1.95179 1.26669 2.91661 1.26669H21.3417L27.0041 7.41444C27.2321 7.66211 27.6009 7.66211 27.8289 7.41444C28.057 7.16685 28.057 6.76651 27.8289 6.51892L21.9956 0.185547C21.8865 0.0664999 21.7378 0 21.5832 0H2.91661C1.30839 0 0 1.42054 0 3.16669V34.8333C0 36.5794 1.30839 38 2.91668 38H18.0833C18.4053 38 18.6666 37.7163 18.6666 37.3667C18.6666 37.0171 18.4052 36.7332 18.0832 36.7332Z" fill="#6B63DD"/>
<path d="M16.899 30.3999H11.8323C11.4827 30.3999 11.199 30.6836 11.199 31.0332C11.199 31.3828 11.4827 31.6665 11.8323 31.6665H16.899C17.2485 31.6665 17.5323 31.3828 17.5323 31.0332C17.5323 30.6836 17.2485 30.3999 16.899 30.3999Z" fill="#6B63DD"/>
<path d="M8.66574 12.0332C8.66574 11.6836 8.382 11.3999 8.03243 11.3999H4.23243C3.88286 11.3999 3.59912 11.6836 3.59912 12.0332V15.8332C3.59912 16.1828 3.88286 16.4665 4.23243 16.4665H8.03243C8.382 16.4665 8.66574 16.1828 8.66574 15.8332V12.0332ZM7.39905 15.1999H4.86574V12.6666H7.39905V15.1999Z" fill="#6B63DD"/>
<path d="M4.23219 31.6667H8.03219C8.38176 31.6667 8.66549 31.383 8.66549 31.0334V27.2334C8.66549 26.8838 8.38176 26.6001 8.03219 26.6001H4.23219C3.88262 26.6001 3.59888 26.8838 3.59888 27.2334V31.0334C3.59888 31.383 3.88262 31.6667 4.23219 31.6667ZM4.86557 27.8667H7.39888V30.4H4.86557V27.8667Z" fill="#6B63DD"/>
<path d="M5.05129 23.8809C5.17034 24 5.33184 24.0665 5.49905 24.0665C5.51998 24.0665 5.54024 24.0659 5.56177 24.0633C5.75051 24.0449 5.92084 23.9423 6.02601 23.7846L8.55931 19.9846C8.7531 19.6933 8.67458 19.2999 8.38386 19.1061C8.09188 18.9117 7.69986 18.9909 7.50541 19.2816L5.40086 22.4388L4.68012 21.7187C4.43253 21.471 4.03219 21.471 3.7846 21.7187C3.53701 21.9664 3.53693 22.3666 3.7846 22.6142L5.05129 23.8809Z" fill="#6B63DD"/>
</svg>
