<svg width="27" height="28" viewBox="0 0 27 28" fill="none" xmlns="http://www.w3.org/2000/svg">
<path d="M0.319702 4.87448V20.7622C0.319702 23.413 4.70935 25.4124 10.532 25.4124C11.0871 25.4124 11.6422 25.3954 12.1802 25.3557C12.5597 25.3274 12.8486 24.9989 12.826 24.6137C12.7976 24.2342 12.4691 23.951 12.084 23.968C11.5742 24.002 11.0531 24.0247 10.532 24.0247C5.3324 24.0247 1.7074 22.3028 1.7074 20.7622V17.8735C3.44626 19.2385 6.67478 20.1165 10.532 20.1165C10.8832 20.1165 11.24 20.1108 11.5855 20.0938C11.9707 20.0768 12.2652 19.754 12.2482 19.3688C12.2312 18.9837 11.9084 18.6891 11.5232 18.7061C11.1947 18.7231 10.8605 18.7288 10.532 18.7288C5.3324 18.7288 1.7074 17.0069 1.7074 15.4663V12.5833C3.44626 13.9483 6.67478 14.8262 10.532 14.8262C16.3547 14.8262 20.7443 12.8268 20.7443 10.176V4.87448C20.7443 2.2237 16.3547 0.224286 10.532 0.224286C4.70935 0.218622 0.319702 2.2237 0.319702 4.87448ZM10.532 13.4329C5.3324 13.4329 1.7074 11.711 1.7074 10.1704V7.28171C3.44626 8.64675 6.67478 9.52468 10.532 9.52468C14.3892 9.52468 17.6178 8.64675 19.3566 7.28171V10.1704C19.3623 11.7167 15.7373 13.4329 10.532 13.4329ZM19.3623 4.87448C19.3623 6.42077 15.7373 8.13698 10.5377 8.13698C5.33806 8.13698 1.7074 6.41511 1.7074 4.87448C1.7074 3.33386 5.3324 1.60632 10.532 1.60632C15.7316 1.60632 19.3623 3.32819 19.3623 4.87448Z" fill="#6B63DD"/>
<path d="M20.0533 14.5487C16.4 14.5487 13.4263 17.5223 13.4263 21.1757C13.4263 24.829 16.4 27.8026 20.0533 27.8026C23.7066 27.8026 26.6802 24.829 26.6802 21.1757C26.6802 17.5223 23.7066 14.5487 20.0533 14.5487ZM20.0533 26.4149C17.1646 26.4149 14.814 24.0643 14.814 21.1757C14.814 18.287 17.1646 15.9364 20.0533 15.9364C22.942 15.9364 25.2925 18.287 25.2925 21.1757C25.2925 24.0643 22.942 26.4149 20.0533 26.4149Z" fill="#6B63DD"/>
<path d="M20.5234 18.0321C20.2572 17.7885 19.8551 17.7885 19.5889 18.0321L17.7424 19.72C17.4592 19.9805 17.4365 20.4167 17.6971 20.6999C17.9576 20.9831 18.3937 21.0057 18.6769 20.7452L19.3623 20.1165V23.6962C19.3623 24.0813 19.6738 24.3928 20.059 24.3928C20.4441 24.3928 20.75 24.0813 20.75 23.6962V20.1165L21.4353 20.7452C21.5656 20.8641 21.7355 20.9264 21.9055 20.9264C22.0924 20.9264 22.2793 20.8528 22.4209 20.6999C22.6814 20.4167 22.6588 19.9805 22.3756 19.72L20.5234 18.0321Z" fill="#6B63DD"/>
</svg>
