<svg width="34" height="34" viewBox="0 0 34 34" fill="none" xmlns="http://www.w3.org/2000/svg">
  <rect width="34" height="34" rx="4" fill="#6B63DD"/>
  <path d="M24.1248 19.7667C23.813 20.0662 23.6697 20.4992 23.7407 20.9239L24.8111 26.7929C24.9014 27.2904 24.6895 27.7938 24.2693 28.0813C23.8575 28.3795 23.3097 28.4153 22.8606 28.1767L17.528 25.4211C17.3426 25.3233 17.1367 25.2708 16.926 25.2648H16.5997C16.4866 25.2815 16.3758 25.3173 16.2746 25.3722L10.9409 28.1409C10.6772 28.2721 10.3786 28.3187 10.086 28.2721C9.37327 28.1385 8.89768 27.4657 9.01447 26.756L10.086 20.8869C10.1571 20.4586 10.0138 20.0232 9.70196 19.719L5.35428 15.5439C4.99067 15.1943 4.86425 14.6695 5.0304 14.1959C5.19174 13.7235 5.60351 13.3787 6.10077 13.3012L12.0847 12.4411C12.5398 12.3946 12.9395 12.1202 13.1442 11.7146L15.781 6.35851C15.8436 6.23922 15.9243 6.12947 16.0218 6.03643L16.1302 5.95292C16.1868 5.89089 16.2518 5.8396 16.324 5.79785L16.4552 5.75013L16.6599 5.66663H17.1668C17.6195 5.71315 18.0181 5.98155 18.2263 6.38237L20.898 11.7146C21.0907 12.1047 21.4651 12.3755 21.8974 12.4411L27.8813 13.3012C28.387 13.3728 28.8096 13.7187 28.9769 14.1959C29.1347 14.6742 28.9986 15.1991 28.6278 15.5439L24.1248 19.7667Z" fill="white"/>
</svg>
