<svg width="16" height="16" viewBox="0 0 16 16" fill="none" xmlns="http://www.w3.org/2000/svg">
  <path d="M12.1418 9.70889C11.9605 9.89383 11.8772 10.1613 11.9185 10.4236L12.5407 14.0486C12.5932 14.3558 12.47 14.6668 12.2257 14.8443C11.9864 15.0285 11.6679 15.0506 11.4069 14.9033L8.30696 13.2013C8.19917 13.1409 8.07949 13.1085 7.957 13.1048H7.76733C7.70154 13.1151 7.63715 13.1372 7.57835 13.1711L4.47776 14.8812C4.32448 14.9622 4.1509 14.991 3.98082 14.9622C3.56648 14.8797 3.29001 14.4642 3.3579 14.0258L3.98082 10.4007C4.02212 10.1362 3.93883 9.8673 3.75755 9.67942L1.23018 7.10064C1.01881 6.88476 0.94532 6.56058 1.04191 6.26807C1.1357 5.9763 1.37506 5.76337 1.66413 5.71547L5.14267 5.18425C5.40724 5.15551 5.63961 4.98605 5.75859 4.73554L7.29139 1.42734C7.32779 1.35366 7.37468 1.28588 7.43137 1.22841L7.49436 1.17683C7.52726 1.13852 7.56506 1.10683 7.60705 1.08105L7.68334 1.05158L7.80232 1H8.09699C8.36015 1.02873 8.59182 1.19451 8.7129 1.44208L10.266 4.73554C10.378 4.97647 10.5957 5.14372 10.8469 5.18425L14.3255 5.71547C14.6194 5.75968 14.8651 5.97335 14.9624 6.26807C15.0541 6.56352 14.975 6.88771 14.7594 7.10064L12.1418 9.70889Z" fill="white"/>
</svg>
