<svg width="24" height="24" viewBox="0 0 24 24" fill="none" xmlns="http://www.w3.org/2000/svg">
<path d="M19.1002 14.9295C18.7894 15.2466 18.6466 15.7051 18.7174 16.1547L19.7841 22.369C19.8741 22.8957 19.6629 23.4288 19.2441 23.7332C18.8338 24.0489 18.2879 24.0868 17.8403 23.8342L12.5262 20.9165C12.3414 20.8129 12.1363 20.7574 11.9263 20.751H11.6011C11.4883 20.7687 11.378 20.8066 11.2772 20.8647L5.96187 23.7963C5.69911 23.9352 5.40155 23.9845 5.10998 23.9352C4.39968 23.7938 3.92574 23.0814 4.04212 22.3299L5.10998 16.1156C5.18077 15.6621 5.03799 15.2011 4.72723 14.879L0.394599 10.4582C0.0322468 10.0882 -0.0937368 9.53242 0.0718416 9.03098C0.232621 8.5308 0.642967 8.16577 1.1385 8.08367L7.10172 7.17299C7.55526 7.12373 7.95361 6.83323 8.15759 6.40378L10.7852 0.732583C10.8476 0.606275 10.928 0.490073 11.0252 0.391553L11.1332 0.303138C11.1896 0.237458 11.2544 0.183146 11.3264 0.138938L11.4572 0.0884151L11.6611 0H12.1663C12.6174 0.0492599 13.0146 0.333451 13.2221 0.757844L15.8846 6.40378C16.0765 6.81681 16.4497 7.10353 16.8804 7.17299L22.8437 8.08367C23.3476 8.15946 23.7687 8.52575 23.9355 9.03098C24.0927 9.53747 23.9571 10.0932 23.5876 10.4582L19.1002 14.9295Z" fill="#6B63DD"/>
</svg>
