<svg width="24" height="24" viewBox="0 0 24 24" fill="none" xmlns="http://www.w3.org/2000/svg">
  <path fill-rule="evenodd" clip-rule="evenodd" d="M16.334 2C19.723 2 22 4.378 22 7.916V16.084C22 19.622 19.723 22 16.333 22H7.665C4.276 22 2 19.622 2 16.084V7.916C2 4.378 4.276 2 7.665 2H16.334ZM16.334 3.5H7.665C5.135 3.5 3.5 5.233 3.5 7.916V16.084C3.5 18.767 5.135 20.5 7.665 20.5H16.333C18.864 20.5 20.5 18.767 20.5 16.084V7.916C20.5 5.233 18.865 3.5 16.334 3.5Z" fill="#7A819F"/>
  <path fill-rule="evenodd" clip-rule="evenodd" d="M14.0736 6C14.2859 6 14.4582 6.17231 14.4582 6.38461L14.4584 6.81939C15.2072 6.87072 15.8291 7.1272 16.2692 7.56825C16.7497 8.05081 17.0025 8.74466 17 9.57696V14.2554C17 15.9641 15.9148 17.0257 14.1687 17.0257H9.83127C8.08512 17.0257 7 15.9492 7 14.2164V9.57594C7 7.96424 7.96772 6.92971 9.54598 6.81956L9.5463 6.38461C9.5463 6.17231 9.71861 6 9.93091 6C10.1432 6 10.3155 6.17231 10.3155 6.38461L10.3154 6.80974H13.6887L13.6889 6.38461C13.6889 6.17231 13.8613 6 14.0736 6ZM16.2307 10.5661H7.76923V14.2164C7.76923 15.5323 8.50153 16.2564 9.83127 16.2564H14.1687C15.4984 16.2564 16.2308 15.5457 16.2308 14.2554L16.2307 10.5661ZM14.2826 13.7929C14.4949 13.7929 14.6673 13.9653 14.6673 14.1776C14.6673 14.3899 14.4949 14.5622 14.2826 14.5622C14.0703 14.5622 13.896 14.3899 13.896 14.1776C13.896 13.9653 14.0657 13.7929 14.278 13.7929H14.2826ZM12.007 13.7929C12.2193 13.7929 12.3916 13.9653 12.3916 14.1776C12.3916 14.3899 12.2193 14.5622 12.007 14.5622C11.7947 14.5622 11.6203 14.3899 11.6203 14.1776C11.6203 13.9653 11.7901 13.7929 12.0024 13.7929H12.007ZM9.7266 13.7929C9.93891 13.7929 10.1112 13.9653 10.1112 14.1776C10.1112 14.3899 9.93891 14.5622 9.7266 14.5622C9.5143 14.5622 9.33943 14.3899 9.33943 14.1776C9.33943 13.9653 9.50968 13.7929 9.72199 13.7929H9.7266ZM14.2826 11.7998C14.4949 11.7998 14.6673 11.9721 14.6673 12.1844C14.6673 12.3967 14.4949 12.569 14.2826 12.569C14.0703 12.569 13.896 12.3967 13.896 12.1844C13.896 11.9721 14.0657 11.7998 14.278 11.7998H14.2826ZM12.007 11.7998C12.2193 11.7998 12.3916 11.9721 12.3916 12.1844C12.3916 12.3967 12.2193 12.569 12.007 12.569C11.7947 12.569 11.6203 12.3967 11.6203 12.1844C11.6203 11.9721 11.7901 11.7998 12.0024 11.7998H12.007ZM9.7266 11.7998C9.93891 11.7998 10.1112 11.9721 10.1112 12.1844C10.1112 12.3967 9.93891 12.569 9.7266 12.569C9.5143 12.569 9.33943 12.3967 9.33943 12.1844C9.33943 11.9721 9.50968 11.7998 9.72199 11.7998H9.7266ZM13.6887 7.57897H10.3154L10.3155 8.0723C10.3155 8.28461 10.1432 8.45691 9.93091 8.45691C9.71861 8.45691 9.5463 8.28461 9.5463 8.0723L9.54603 7.59061C8.39719 7.68712 7.76923 8.38351 7.76923 9.57594V9.79691H16.2307L16.2308 9.57594C16.2328 8.9426 16.0625 8.4503 15.7246 8.11184C15.4279 7.81431 14.9943 7.63661 14.4586 7.59086L14.4582 8.0723C14.4582 8.28461 14.2859 8.45691 14.0736 8.45691C13.8613 8.45691 13.6889 8.28461 13.6889 8.0723L13.6887 7.57897Z" fill="#7A819F"/>
</svg>
