<svg width="24" height="24" viewBox="0 0 24 24" fill="none" xmlns="http://www.w3.org/2000/svg">
  <path fill-rule="evenodd" clip-rule="evenodd" d="M16.334 2C19.723 2 22 4.378 22 7.916V16.084C22 19.622 19.723 22 16.333 22H7.665C4.276 22 2 19.622 2 16.084V7.916C2 4.378 4.276 2 7.665 2H16.334ZM16.334 3.5H7.665C5.135 3.5 3.5 5.233 3.5 7.916V16.084C3.5 18.767 5.135 20.5 7.665 20.5H16.333C18.864 20.5 20.5 18.767 20.5 16.084V7.916C20.5 5.233 18.865 3.5 16.334 3.5Z" fill="#7A819F"/>
  <g clip-path="url(#clip0_271_4012)">
    <path d="M12 17C14.7614 17 17 14.7614 17 12C17 9.23858 14.7614 7 12 7C9.23858 7 7 9.23858 7 12C7 14.7614 9.23858 17 12 17Z" stroke="#7A819F" stroke-width="0.8" stroke-linecap="square"/>
    <path d="M12 17C13.3333 15.7879 14 14.1212 14 12C14 9.87879 13.3333 8.21212 12 7C10.6667 8.21212 10 9.87879 10 12C10 14.1212 10.6667 15.7879 12 17Z" stroke="#7A819F" stroke-width="0.8" stroke-linecap="round"/>
    <path d="M7.25 10.5H16.75M7.25 13.5H16.75" stroke="#7A819F" stroke-width="0.8" stroke-linecap="round"/>
  </g>
  <defs>
    <clipPath id="clip0_271_4012">
      <rect width="12" height="12" fill="white" transform="translate(6 6)"/>
    </clipPath>
  </defs>
</svg>
