<svg width="24" height="24" viewBox="0 0 24 24" fill="none" xmlns="http://www.w3.org/2000/svg">
  <path fill-rule="evenodd" clip-rule="evenodd" d="M16.334 2C19.723 2 22 4.378 22 7.916V16.084C22 19.622 19.723 22 16.333 22H7.665C4.276 22 2 19.622 2 16.084V7.916C2 4.378 4.276 2 7.665 2H16.334ZM16.334 3.5H7.665C5.135 3.5 3.5 5.233 3.5 7.916V16.084C3.5 18.767 5.135 20.5 7.665 20.5H16.333C18.864 20.5 20.5 18.767 20.5 16.084V7.916C20.5 5.233 18.865 3.5 16.334 3.5Z" fill="#7A819F"/>
  <path d="M17.2107 6.45307C17.2887 6.37175 17.3082 6.25751 17.2584 6.1607C17.2086 6.06389 17.1003 6 16.979 6H9.1266C7.95286 6 7 6.85385 7 7.90133C7 8.95073 7.95286 9.80459 9.1266 9.80459H16.979C17.0981 9.80459 17.2086 9.74263 17.2584 9.64389C17.3082 9.54708 17.2887 9.43091 17.2107 9.35152C16.403 8.52478 16.403 7.27981 17.2107 6.45307ZM9.1266 8.17626H16.0088C16.05 8.55188 16.1756 8.92169 16.39 9.25859H9.1266C8.29069 9.25859 7.61069 8.65063 7.61069 7.90326C7.61069 7.1559 8.29069 6.54794 9.1266 6.54794H16.39C16.1777 6.88483 16.0521 7.25464 16.0088 7.63026H9.1266C8.95769 7.63026 8.82126 7.75224 8.82126 7.90326C8.82126 8.05428 8.95769 8.17626 9.1266 8.17626Z" fill="#7A819F"/>
  <path d="M7.07502 10.5508C6.99706 10.4695 6.97757 10.3553 7.02738 10.2585C7.07719 10.1617 7.18546 10.0978 7.30674 10.0978H15.1591C16.3329 10.0978 17.2858 10.9516 17.2858 11.9991C17.2858 13.0485 16.3329 13.9024 15.1591 13.9024H7.30674C7.18763 13.9024 7.07719 13.8404 7.02738 13.7417C6.97757 13.6449 6.99706 13.5287 7.07502 13.4493C7.88278 12.6226 7.88278 11.3776 7.07502 10.5508ZM15.1591 12.274H8.27692C8.23577 12.6497 8.11017 13.0195 7.89578 13.3564H15.1591C15.9951 13.3564 16.6751 12.7484 16.6751 12.001C16.6751 11.2537 15.9951 10.6457 15.1591 10.6457H7.89578C8.108 10.9826 8.23361 11.3524 8.27692 11.728H15.1591C15.3281 11.728 15.4645 11.85 15.4645 12.001C15.4645 12.1521 15.3281 12.274 15.1591 12.274Z" fill="#7A819F"/>
  <path d="M17.2107 14.6484C17.2887 14.5671 17.3082 14.4528 17.2584 14.356C17.2086 14.2592 17.1003 14.1953 16.979 14.1953H9.1266C7.95286 14.1953 7 15.0492 7 16.0966C7 17.146 7.95286 17.9999 9.1266 17.9999H16.979C17.0981 17.9999 17.2086 17.9379 17.2584 17.8392C17.3082 17.7424 17.2887 17.6262 17.2107 17.5468C16.403 16.7201 16.403 15.4751 17.2107 14.6484ZM9.1266 16.3716H16.0088C16.05 16.7472 16.1756 17.117 16.39 17.4539H9.1266C8.29069 17.4539 7.61069 16.8459 7.61069 16.0986C7.61069 15.3512 8.29069 14.7433 9.1266 14.7433H16.39C16.1777 15.0801 16.0521 15.45 16.0088 15.8256H9.1266C8.95769 15.8256 8.82126 15.9476 8.82126 16.0986C8.82126 16.2496 8.95769 16.3716 9.1266 16.3716Z" fill="#7A819F"/>
</svg>
