<svg width="24" height="24" viewBox="0 0 24 24" fill="none" xmlns="http://www.w3.org/2000/svg">
  <path d="M16.334 2.5C17.9072 2.5 19.1881 3.04916 20.0768 3.97708C20.9672 4.90688 21.5 6.25529 21.5 7.916V16.084C21.5 17.7447 20.9672 19.0931 20.0767 20.0229C19.1879 20.9508 17.9067 21.5 16.333 21.5H7.665C6.09184 21.5 4.81117 20.9508 3.92278 20.023C3.03257 19.0932 2.5 17.7448 2.5 16.084V7.916C2.5 6.25522 3.03257 4.90682 3.92278 3.97703C4.81117 3.04915 6.09184 2.5 7.665 2.5H16.334ZM16.334 3H7.665C6.28138 3 5.10182 3.47695 4.27003 4.35879C3.44103 5.23767 3 6.47316 3 7.916V16.084C3 17.5268 3.44103 18.7623 4.27003 19.6412C5.10182 20.523 6.28138 21 7.665 21H16.333C17.7171 21 18.8971 20.5231 19.7293 19.6413C20.5587 18.7624 21 17.5269 21 16.084V7.916C21 6.47316 20.559 5.23765 19.7298 4.35876C18.8979 3.47691 17.7181 3 16.334 3Z" fill="black" stroke="#7A819F"/>
  <rect x="7.35" y="11.2389" width="1.74444" height="5.41111" rx="0.872222" stroke="#7A819F" stroke-width="0.7"/>
  <rect x="11.0167" y="8.79446" width="1.74444" height="7.85556" rx="0.872222" stroke="#7A819F" stroke-width="0.7"/>
  <rect x="14.6833" y="6.35" width="1.74444" height="10.3" rx="0.872222" stroke="#7A819F" stroke-width="0.7"/>
</svg>
