<svg width="20" height="20" viewBox="0 0 20 20" fill="none" xmlns="http://www.w3.org/2000/svg">
<path fill-rule="evenodd" clip-rule="evenodd" d="M14.334 0C17.723 0 20 2.378 20 5.916V14.084C20 17.622 17.723 20 14.333 20H5.665C2.276 20 0 17.622 0 14.084V5.916C0 2.378 2.276 0 5.665 0H14.334ZM14.334 1.5H5.665C3.135 1.5 1.5 3.233 1.5 5.916V14.084C1.5 16.767 3.135 18.5 5.665 18.5H14.333C16.864 18.5 18.5 16.767 18.5 14.084V5.916C18.5 3.233 16.865 1.5 14.334 1.5Z" fill="#7A819F"/>
<path d="M10 5.81982C8.55778 5.81982 7.3844 6.99316 7.3844 8.43537C7.3844 9.87759 8.55778 11.0509 10 11.0509C11.4422 11.0509 12.6156 9.87759 12.6156 8.43537C12.6156 6.99316 11.4422 5.81982 10 5.81982ZM10 10.3474C8.9457 10.3474 8.08792 9.48962 8.08792 8.43533C8.08792 7.38103 8.9457 6.52334 10 6.52334C11.0543 6.52334 11.9121 7.38108 11.9121 8.43537C11.9121 9.48967 11.0543 10.3474 10 10.3474Z" fill="#7A819F"/>
<path d="M9.99997 4C7.55435 4 5.5647 5.98965 5.5647 8.43528C5.5647 9.84569 6.74755 11.947 7.45262 13.074C7.91652 13.8155 8.41504 14.5212 8.85628 15.061C9.56454 15.9274 9.81804 16 10 16C10.1847 16 10.4241 15.9274 11.1301 15.0605C11.5723 14.5174 12.0711 13.8121 12.5345 13.0746C13.2444 11.9448 14.4353 9.83974 14.4353 8.43523C14.4353 5.98965 12.4456 4 9.99997 4ZM12.0468 12.5268C11.1371 14.0034 10.3019 15.0012 9.9958 15.2559C9.68808 15.009 8.86646 14.035 7.94405 12.5315C6.87906 10.7954 6.26826 9.30239 6.26826 8.43528C6.26822 6.37757 7.94227 4.70352 9.99997 4.70352C12.0577 4.70352 13.7317 6.37757 13.7317 8.43528C13.7318 9.29742 13.1176 10.7887 12.0468 12.5268Z" fill="#7A819F"/>
</svg>
