<svg width="24" height="24" viewBox="0 0 24 24" fill="none" xmlns="http://www.w3.org/2000/svg">
<path fill-rule="evenodd" clip-rule="evenodd" d="M16.334 2C19.723 2 22 4.378 22 7.916V16.084C22 19.622 19.723 22 16.333 22H7.665C4.276 22 2 19.622 2 16.084V7.916C2 4.378 4.276 2 7.665 2H16.334ZM16.334 3.5H7.665C5.135 3.5 3.5 5.233 3.5 7.916V16.084C3.5 18.767 5.135 20.5 7.665 20.5H16.333C18.864 20.5 20.5 18.767 20.5 16.084V7.916C20.5 5.233 18.865 3.5 16.334 3.5Z" fill="#7A819F"/>
<path d="M17.25 16.5C17.25 16.5 18 16.5 18 15.75C18 15 17.25 12.75 14.25 12.75C11.25 12.75 10.5 15 10.5 15.75C10.5 16.5 11.25 16.5 11.25 16.5H17.25ZM11.2665 15.75C11.261 15.7492 11.2555 15.7482 11.25 15.747C11.2508 15.549 11.3753 14.9745 11.82 14.457C12.234 13.9717 12.9615 13.5 14.25 13.5C15.5378 13.5 16.2653 13.9725 16.68 14.457C17.1248 14.9745 17.2485 15.5498 17.25 15.747L17.244 15.7485C17.2405 15.7491 17.237 15.7496 17.2335 15.75H11.2665ZM14.25 11.25C14.6478 11.25 15.0294 11.092 15.3107 10.8107C15.592 10.5294 15.75 10.1478 15.75 9.75C15.75 9.35218 15.592 8.97064 15.3107 8.68934C15.0294 8.40804 14.6478 8.25 14.25 8.25C13.8522 8.25 13.4706 8.40804 13.1893 8.68934C12.908 8.97064 12.75 9.35218 12.75 9.75C12.75 10.1478 12.908 10.5294 13.1893 10.8107C13.4706 11.092 13.8522 11.25 14.25 11.25ZM16.5 9.75C16.5 10.0455 16.4418 10.3381 16.3287 10.611C16.2157 10.884 16.0499 11.1321 15.841 11.341C15.6321 11.5499 15.384 11.7157 15.111 11.8287C14.8381 11.9418 14.5455 12 14.25 12C13.9545 12 13.6619 11.9418 13.389 11.8287C13.116 11.7157 12.8679 11.5499 12.659 11.341C12.4501 11.1321 12.2843 10.884 12.1713 10.611C12.0582 10.3381 12 10.0455 12 9.75C12 9.15326 12.2371 8.58097 12.659 8.15901C13.081 7.73705 13.6533 7.5 14.25 7.5C14.8467 7.5 15.419 7.73705 15.841 8.15901C16.2629 8.58097 16.5 9.15326 16.5 9.75ZM11.202 12.96C10.902 12.8655 10.5927 12.8034 10.2795 12.7747C10.1035 12.758 9.92679 12.7498 9.75 12.75C6.75 12.75 6 15 6 15.75C6 16.2502 6.24975 16.5 6.75 16.5H9.912C9.80082 16.2659 9.74537 16.0092 9.75 15.75C9.75 14.9925 10.0328 14.2185 10.5675 13.572C10.7498 13.3515 10.962 13.1452 11.202 12.96ZM9.69 13.5C9.24612 14.167 9.00633 14.9489 9 15.75H6.75C6.75 15.555 6.873 14.9775 7.32 14.457C7.72875 13.98 8.439 13.515 9.69 13.5008V13.5ZM7.125 10.125C7.125 9.52826 7.36205 8.95597 7.78401 8.53401C8.20597 8.11205 8.77826 7.875 9.375 7.875C9.97174 7.875 10.544 8.11205 10.966 8.53401C11.3879 8.95597 11.625 9.52826 11.625 10.125C11.625 10.7217 11.3879 11.294 10.966 11.716C10.544 12.1379 9.97174 12.375 9.375 12.375C8.77826 12.375 8.20597 12.1379 7.78401 11.716C7.36205 11.294 7.125 10.7217 7.125 10.125ZM9.375 8.625C8.97718 8.625 8.59564 8.78304 8.31434 9.06434C8.03304 9.34564 7.875 9.72718 7.875 10.125C7.875 10.5228 8.03304 10.9044 8.31434 11.1857C8.59564 11.467 8.97718 11.625 9.375 11.625C9.77282 11.625 10.1544 11.467 10.4357 11.1857C10.717 10.9044 10.875 10.5228 10.875 10.125C10.875 9.72718 10.717 9.34564 10.4357 9.06434C10.1544 8.78304 9.77282 8.625 9.375 8.625Z" fill="#7A819F"/>
</svg>
