<svg width="24" height="24" viewBox="0 0 24 24" fill="none" xmlns="http://www.w3.org/2000/svg">
  <path fill-rule="evenodd" clip-rule="evenodd" d="M16.334 2C19.723 2 22 4.378 22 7.916V16.084C22 19.622 19.723 22 16.333 22H7.665C4.276 22 2 19.622 2 16.084V7.916C2 4.378 4.276 2 7.665 2H16.334ZM16.334 3.5H7.665C5.135 3.5 3.5 5.233 3.5 7.916V16.084C3.5 18.767 5.135 20.5 7.665 20.5H16.333C18.864 20.5 20.5 18.767 20.5 16.084V7.916C20.5 5.233 18.865 3.5 16.334 3.5Z" fill="#7A819F"/>
  <path d="M12.507 11.327C11.1056 10.7858 10.6147 10.4058 10.6147 9.65966C10.6147 9.06068 10.9776 8.38636 12.2171 8.38636C13.2469 8.38636 13.9053 8.72439 14.2435 8.89891L14.6452 7.93322C14.1622 7.68501 13.5041 7.44965 12.5552 7.42231V6H11.5411V7.46375C10.0763 7.68491 9.12889 8.60579 9.12889 9.81959C9.12889 11.0929 10.1431 11.7798 11.782 12.3659C12.974 12.8048 13.4987 13.3029 13.4968 14.1069C13.4987 14.9427 12.8277 15.5417 11.6869 15.5417C10.7852 15.5417 9.94739 15.2499 9.38573 14.914L9 15.8926C9.56166 16.2579 10.5123 16.522 11.4437 16.5379V18H12.4579V16.4788C14.1142 16.2448 15 15.1609 15 13.9916C15.0004 12.6899 14.1638 11.9433 12.507 11.327Z" fill="#7A819F"/>
</svg>
