<svg width="24" height="24" viewBox="0 0 24 24" fill="none" xmlns="http://www.w3.org/2000/svg">
<path fill-rule="evenodd" clip-rule="evenodd" d="M16.334 2C19.723 2 22 4.378 22 7.916V16.084C22 19.622 19.723 22 16.333 22H7.665C4.276 22 2 19.622 2 16.084V7.916C2 4.378 4.276 2 7.665 2H16.334ZM16.334 3.5H7.665C5.135 3.5 3.5 5.233 3.5 7.916V16.084C3.5 18.767 5.135 20.5 7.665 20.5H16.333C18.864 20.5 20.5 18.767 20.5 16.084V7.916C20.5 5.233 18.865 3.5 16.334 3.5Z" fill="#7A819F"/>
<g clip-path="url(#clip0_2270_11827)">
<path d="M17.3794 9.31034H15.3104C14.9676 9.31034 14.6897 9.03244 14.6897 8.68964V6.6207C14.6897 6.2779 14.9676 6 15.3104 6H17.3794C17.7222 6 18.0001 6.2779 18.0001 6.6207V8.68966C18.0001 9.03246 17.7222 9.31034 17.3794 9.31034Z" fill="#7A819F"/>
<path d="M16.1379 8.48275C16.085 8.48275 16.032 8.46255 15.9916 8.42217L15.3709 7.80147C15.2901 7.72068 15.2901 7.58969 15.3709 7.5089C15.4517 7.42811 15.5827 7.42811 15.6635 7.5089L16.1379 7.9833L17.233 6.88823C17.3138 6.80744 17.4448 6.80744 17.5255 6.88823C17.6064 6.96902 17.6064 7.10001 17.5255 7.1808L16.2842 8.42219C16.2438 8.46255 16.1908 8.48275 16.1379 8.48275Z" fill="white"/>
<path d="M17.3794 13.6552H15.3104C14.9676 13.6552 14.6897 13.3773 14.6897 13.0345V10.9655C14.6897 10.6227 14.9676 10.3448 15.3104 10.3448H17.3794C17.7222 10.3448 18.0001 10.6227 18.0001 10.9655V13.0345C18.0001 13.3773 17.7222 13.6552 17.3794 13.6552Z" fill="#7A819F"/>
<path d="M17.3794 18.0001H15.3104C14.9676 18.0001 14.6897 17.7222 14.6897 17.3794V15.3104C14.6897 14.9676 14.9676 14.6897 15.3104 14.6897H17.3794C17.7222 14.6897 18.0001 14.9676 18.0001 15.3104V17.3794C18.0001 17.7222 17.7222 18.0001 17.3794 18.0001Z" fill="#7A819F"/>
<path d="M16.1379 17.1724C16.085 17.1724 16.032 17.1522 15.9916 17.1119L15.3709 16.4912C15.2901 16.4104 15.2901 16.2794 15.3709 16.1986C15.4517 16.1178 15.5827 16.1178 15.6635 16.1986L16.1379 16.673L17.233 15.5779C17.3138 15.4971 17.4448 15.4971 17.5255 15.5779C17.6064 15.6587 17.6064 15.7897 17.5255 15.8705L16.2842 17.1119C16.2438 17.1522 16.1908 17.1724 16.1379 17.1724Z" fill="white"/>
<path d="M10.3448 7.24145H6.20691C6.09253 7.24145 6 7.1488 6 7.03454C6 6.92029 6.09253 6.82764 6.20691 6.82764H10.3448C10.4592 6.82764 10.5517 6.92029 10.5517 7.03454C10.5517 7.1488 10.4592 7.24145 10.3448 7.24145Z" fill="#7A819F"/>
<path d="M13.4483 7.24145H11.1725C11.0581 7.24145 10.9656 7.1488 10.9656 7.03454C10.9656 6.92029 11.0581 6.82764 11.1725 6.82764H13.4483C13.5627 6.82764 13.6552 6.92029 13.6552 7.03454C13.6552 7.1488 13.5627 7.24145 13.4483 7.24145Z" fill="#7A819F"/>
<path d="M13.4483 8.48278H12.6207C12.5064 8.48278 12.4138 8.39013 12.4138 8.27588C12.4138 8.16162 12.5063 8.06897 12.6207 8.06897H13.4483C13.5627 8.06897 13.6552 8.16162 13.6552 8.27588C13.6552 8.39013 13.5627 8.48278 13.4483 8.48278Z" fill="#7A819F"/>
<path d="M7.86206 8.48278H6.20691C6.09255 8.48278 6 8.39013 6 8.27588C6 8.16162 6.09253 8.06897 6.20691 8.06897H7.86209C7.97644 8.06897 8.06899 8.16162 8.06899 8.27588C8.06897 8.39013 7.97644 8.48278 7.86206 8.48278Z" fill="#7A819F"/>
<path d="M11.793 8.48278H8.68957C8.57522 8.48278 8.48267 8.39013 8.48267 8.27588C8.48267 8.16162 8.5752 8.06897 8.68957 8.06897H11.793C11.9074 8.06897 11.9999 8.16162 11.9999 8.27588C11.9999 8.39013 11.9074 8.48278 11.793 8.48278Z" fill="#7A819F"/>
<path d="M10.3448 11.5862H6.20691C6.09255 11.5862 6 11.4935 6 11.3793C6 11.265 6.09253 11.1724 6.20691 11.1724H10.3448C10.4592 11.1724 10.5517 11.265 10.5517 11.3793C10.5517 11.4935 10.4592 11.5862 10.3448 11.5862Z" fill="#7A819F"/>
<path d="M13.4483 11.5862H11.1725C11.0581 11.5862 10.9656 11.4935 10.9656 11.3793C10.9656 11.265 11.0581 11.1724 11.1725 11.1724H13.4483C13.5627 11.1724 13.6552 11.265 13.6552 11.3793C13.6552 11.4935 13.5627 11.5862 13.4483 11.5862Z" fill="#7A819F"/>
<path d="M13.4483 12.8275H12.6207C12.5064 12.8275 12.4138 12.7349 12.4138 12.6206C12.4138 12.5063 12.5063 12.4137 12.6207 12.4137H13.4483C13.5627 12.4137 13.6552 12.5063 13.6552 12.6206C13.6552 12.7349 13.5627 12.8275 13.4483 12.8275Z" fill="#7A819F"/>
<path d="M7.86206 12.8275H6.20691C6.09255 12.8275 6 12.7349 6 12.6206C6 12.5063 6.09253 12.4137 6.20691 12.4137H7.86209C7.97644 12.4137 8.06899 12.5063 8.06899 12.6206C8.06899 12.7349 7.97644 12.8275 7.86206 12.8275Z" fill="#7A819F"/>
<path d="M11.793 12.8276H8.68957C8.57522 12.8276 8.48267 12.735 8.48267 12.6207C8.48267 12.5065 8.5752 12.4138 8.68957 12.4138H11.793C11.9074 12.4138 11.9999 12.5065 11.9999 12.6207C11.9999 12.735 11.9074 12.8276 11.793 12.8276Z" fill="#7A819F"/>
<path d="M10.3448 15.931H6.20691C6.09255 15.931 6 15.8384 6 15.7241C6 15.6099 6.09253 15.5172 6.20691 15.5172H10.3448C10.4592 15.5172 10.5517 15.6099 10.5517 15.7241C10.5517 15.8384 10.4592 15.931 10.3448 15.931Z" fill="#7A819F"/>
<path d="M13.4483 15.931H11.1725C11.0581 15.931 10.9656 15.8384 10.9656 15.7241C10.9656 15.6099 11.0581 15.5172 11.1725 15.5172H13.4483C13.5627 15.5172 13.6552 15.6099 13.6552 15.7241C13.6552 15.8384 13.5627 15.931 13.4483 15.931Z" fill="#7A819F"/>
<path d="M13.4483 17.1724H12.6207C12.5064 17.1724 12.4138 17.0797 12.4138 16.9655C12.4138 16.8512 12.5063 16.7585 12.6207 16.7585H13.4483C13.5627 16.7585 13.6552 16.8512 13.6552 16.9655C13.6552 17.0797 13.5627 17.1724 13.4483 17.1724Z" fill="#7A819F"/>
<path d="M7.86206 17.1724H6.20691C6.09255 17.1724 6 17.0797 6 16.9655C6 16.8512 6.09253 16.7585 6.20691 16.7585H7.86209C7.97644 16.7585 8.06899 16.8512 8.06899 16.9655C8.06899 17.0797 7.97644 17.1724 7.86206 17.1724Z" fill="#7A819F"/>
<path d="M11.793 17.1725H8.68957C8.57522 17.1725 8.48267 17.0798 8.48267 16.9656C8.48267 16.8513 8.5752 16.7587 8.68957 16.7587H11.793C11.9074 16.7587 11.9999 16.8513 11.9999 16.9656C11.9999 17.0798 11.9074 17.1725 11.793 17.1725Z" fill="#7A819F"/>
<path d="M16.6375 12L17.1119 11.5256C17.1927 11.4449 17.1927 11.3139 17.1119 11.2331C17.0311 11.1523 16.9001 11.1523 16.8193 11.2331L16.3449 11.7075L15.8705 11.2331C15.7897 11.1523 15.6588 11.1523 15.578 11.2331C15.4972 11.3139 15.4972 11.4449 15.578 11.5256L16.0523 12L15.5779 12.4744C15.4971 12.5552 15.4971 12.6862 15.5779 12.767C15.6183 12.8074 15.6713 12.8276 15.7242 12.8276C15.7772 12.8276 15.8302 12.8074 15.8705 12.767L16.3449 12.2926L16.8193 12.767C16.8597 12.8074 16.9126 12.8276 16.9656 12.8276C17.0186 12.8276 17.0715 12.8074 17.1119 12.767C17.1927 12.6862 17.1927 12.5552 17.1119 12.4744L16.6375 12Z" fill="white"/>
</g>
<defs>
<clipPath id="clip0_2270_11827">
<rect width="12" height="12" fill="white" transform="translate(6 6)"/>
</clipPath>
</defs>
</svg>
