<svg width="24" height="24" viewBox="0 0 24 24" fill="none" xmlns="http://www.w3.org/2000/svg">
  <path fill-rule="evenodd" clip-rule="evenodd" d="M16.334 2C19.723 2 22 4.378 22 7.916V16.084C22 19.622 19.723 22 16.333 22H7.665C4.276 22 2 19.622 2 16.084V7.916C2 4.378 4.276 2 7.665 2H16.334ZM16.334 3.5H7.665C5.135 3.5 3.5 5.233 3.5 7.916V16.084C3.5 18.767 5.135 20.5 7.665 20.5H16.333C18.864 20.5 20.5 18.767 20.5 16.084V7.916C20.5 5.233 18.865 3.5 16.334 3.5Z" fill="#7A819F"/>
  <path d="M14.7944 12.6047C14.7891 12.5856 14.7777 12.5711 14.7694 12.5542C15.3627 11.858 15.727 10.9393 15.727 9.92839C15.727 7.7588 14.0634 6 12.0113 6C9.95916 6 8.29559 7.7588 8.29559 9.92839C8.29559 10.9281 8.65178 11.8378 9.23352 12.5312C9.22751 12.545 9.21802 12.556 9.21391 12.571L8.01146 16.9297C7.9799 17.0442 8.0148 17.1672 8.10049 17.2445C8.18618 17.3218 8.30677 17.3381 8.40838 17.2873L9.67057 16.6534L10.4635 17.8693C10.5174 17.9519 10.6059 18 10.6988 18C10.715 18 10.7312 17.9985 10.7474 17.9956C10.8574 17.9755 10.9462 17.8899 10.9749 17.776L11.9687 13.8545C11.983 13.8547 11.9969 13.8568 12.0113 13.8568C12.0181 13.8568 12.0247 13.8557 12.0315 13.8557L13.0253 17.776C13.0541 17.8896 13.1426 17.9752 13.2523 17.9956C13.2687 17.9985 13.2852 18 13.3014 18C13.3941 18 13.482 17.9525 13.5361 17.8705L14.3316 16.6605L15.5924 17.2879C15.6937 17.3381 15.814 17.3213 15.9 17.2439C15.9854 17.1666 16.02 17.0439 15.9885 16.9297L14.7944 12.6047ZM12.0113 6.60437C13.7449 6.60437 15.1553 8.0955 15.1553 9.92839C15.1553 11.7613 13.7449 13.2524 12.0113 13.2524C10.2777 13.2524 8.86724 11.7613 8.86724 9.92839C8.86724 8.0955 10.2777 6.60437 12.0113 6.60437ZM10.583 16.9878L10.003 16.0987C9.92343 15.9768 9.77243 15.9331 9.64516 15.9972L8.73856 16.4525L9.69243 12.995C10.1749 13.4033 10.7557 13.6846 11.3913 13.7977L10.583 16.9878ZM14.3565 16.0048C14.23 15.9429 14.0796 15.9847 14 16.1057L13.4181 16.991L12.6094 13.8013C13.2453 13.6922 13.8266 13.4147 14.3109 13.0103L15.262 16.4554L14.3565 16.0048Z" fill="#7A819F"/>
  <circle cx="12" cy="10" r="1.75" stroke="#7A819F" stroke-width="0.5"/>
  <circle cx="12" cy="10" r="0.65" fill="#7A819F" stroke="#7A819F" stroke-width="0.7"/>
</svg>
