<svg width="14" height="17" viewBox="0 0 14 17" fill="none" xmlns="http://www.w3.org/2000/svg">
<path d="M7.26051 4.31484C7.95997 4.31484 8.83676 3.84639 9.3589 3.2218C9.83177 2.65576 10.1766 1.86526 10.1766 1.07475C10.1766 0.967403 10.1667 0.86005 10.147 0.772217C9.36875 0.801495 8.43285 1.28946 7.87131 1.94333C7.42799 2.44105 7.02407 3.2218 7.02407 4.02206C7.02407 4.13917 7.04377 4.25628 7.05363 4.29532C7.10288 4.30508 7.1817 4.31484 7.26051 4.31484ZM4.79761 16.1236C5.75322 16.1236 6.17683 15.4892 7.36888 15.4892C8.58062 15.4892 8.84662 16.104 9.91059 16.104C10.9549 16.104 11.6543 15.1476 12.3144 14.2107C13.0532 13.1372 13.3586 12.0832 13.3783 12.0344C13.3094 12.0149 11.3095 11.2049 11.3095 8.93098C11.3095 6.9596 12.8858 6.07151 12.9744 6.00319C11.9302 4.51978 10.3441 4.48074 9.91059 4.48074C8.73825 4.48074 7.78264 5.18341 7.1817 5.18341C6.53149 5.18341 5.6744 4.51978 4.65969 4.51978C2.72878 4.51978 0.768311 6.10078 0.768311 9.08712C0.768311 10.9414 1.49733 12.903 2.39382 14.1717C3.16225 15.2452 3.83216 16.1236 4.79761 16.1236Z" fill="#000100"/>
</svg>
