<svg width="154" height="46" viewBox="0 0 154 46" fill="none" xmlns="http://www.w3.org/2000/svg">
<g clip-path="url(#clip0_4419_25105)">
<path opacity="0.89" d="M9.38408 0.0847405C10.3027 -0.126379 11.3247 0.0657207 11.9329 0.563639L30.272 15.5797C30.9417 16.128 30.9417 16.9074 30.2719 17.4557L11.9328 32.471C11.4893 32.8341 10.8255 33.0345 10.1422 33.0345C9.88886 33.0345 9.63242 33.0069 9.38393 32.9498C8.46514 32.7387 7.85032 32.1706 7.85032 31.5329V1.50162C7.85047 0.863852 8.46529 0.29576 9.38408 0.0847405Z" fill="white"/>
</g>
<g clip-path="url(#clip1_4419_25105)">
<path opacity="0.89" d="M9.38408 13.0501C10.3027 12.839 11.3247 13.0311 11.9329 13.529L30.272 28.545C30.9417 29.0934 30.9417 29.8727 30.2719 30.4211L11.9328 45.4363C11.4893 45.7995 10.8255 45.9999 10.1422 45.9999C9.88886 45.9999 9.63242 45.9723 9.38393 45.9151C8.46514 45.7041 7.85032 45.1359 7.85032 44.4982V14.4669C7.85047 13.8292 8.46529 13.2611 9.38408 13.0501Z" fill="white"/>
</g>
<g clip-path="url(#clip2_4419_25105)">
<path opacity="0.89" d="M1.57558 6.80756C2.49778 6.59725 3.52369 6.78861 4.1343 7.28462L22.5445 22.2429C23.2168 22.7892 23.2168 23.5655 22.5444 24.1117L4.13414 39.0692C3.68892 39.431 3.02263 39.6306 2.33669 39.6306C2.08232 39.6306 1.82489 39.6031 1.57543 39.5462C0.65308 39.336 0.0358772 38.77 0.0358772 38.1348V8.21898C0.0360317 7.58367 0.653233 7.01777 1.57558 6.80756Z" fill="white"/>
</g>
<path d="M53.6848 16.7227H51.7805V25.8438C51.7545 28.4284 50.5175 29.7272 48.0696 29.7402C45.4524 29.7272 44.1308 28.4284 44.1047 25.8438V16.7227H42.2102V25.8438C42.2623 29.5352 44.2154 31.3678 48.0696 31.3418C51.761 31.3158 53.6327 29.4831 53.6848 25.8438V16.7227ZM59.3415 31H61.236V25.1602H65.6012C68.4918 25.082 69.9502 23.6758 69.9762 20.9414C69.9502 18.168 68.4918 16.7617 65.6012 16.7227H59.3415V31ZM61.236 18.3242H64.9567C67.053 18.3372 68.0947 19.2096 68.0817 20.9414C68.0947 22.6732 67.053 23.5456 64.9567 23.5586H61.236V18.3242ZM84.9688 20.9023C84.8711 19.3268 84.3503 18.1745 83.4063 17.4453C82.4362 16.7357 81.2025 16.3809 79.7051 16.3809C78.3575 16.3809 77.1791 16.7129 76.17 17.377C75.1023 18.0475 74.5554 19.1087 74.5293 20.5605C74.5554 21.8301 75.0339 22.7155 75.9649 23.2168C76.1928 23.3535 76.4336 23.474 76.6875 23.5781C76.9284 23.6758 77.1823 23.7767 77.4493 23.8809C77.7292 23.959 78.0092 24.0306 78.2891 24.0957C78.556 24.1803 78.8295 24.2617 79.1094 24.3398C79.6954 24.444 80.2618 24.5579 80.8086 24.6816C81.3425 24.8118 81.821 24.9779 82.2442 25.1797C82.6999 25.3815 83.0482 25.6289 83.2891 25.9219C83.543 26.2409 83.67 26.6478 83.67 27.1426C83.67 27.6374 83.5691 28.0573 83.3672 28.4023C83.1524 28.7344 82.8724 29.0013 82.5274 29.2031C82.1823 29.3854 81.795 29.5189 81.3653 29.6035C80.9291 29.6947 80.4896 29.7402 80.0469 29.7402C78.9271 29.7402 77.9668 29.4668 77.1661 28.9199C76.3262 28.36 75.8998 27.4876 75.8868 26.3027H74.0899C74.1159 28.0345 74.7019 29.3073 75.8477 30.1211C76.9675 30.9349 78.3477 31.3418 79.9883 31.3418C81.362 31.3418 82.6218 31.0065 83.7676 30.3359C84.9265 29.6719 85.5254 28.5879 85.5645 27.084C85.5645 26.3874 85.4375 25.7982 85.1836 25.3164C84.9428 24.8411 84.5977 24.457 84.1485 24.1641C83.7188 23.8385 83.237 23.5846 82.7032 23.4023C82.4362 23.3047 82.1628 23.2168 81.8829 23.1387C81.6029 23.0736 81.3099 23.015 81.004 22.9629C80.4441 22.8262 79.8907 22.6992 79.3438 22.582C78.7969 22.4583 78.3054 22.3118 77.8692 22.1426C77.4395 21.9668 77.0977 21.7389 76.8438 21.459C76.5639 21.2051 76.4239 20.86 76.4239 20.4238C76.4369 19.4863 76.7722 18.8385 77.4297 18.4805C78.0678 18.1484 78.8002 17.9824 79.627 17.9824C81.6778 17.9564 82.8562 18.9297 83.1622 20.9023H84.9688ZM93.7114 31H95.6157V18.3242H100.372V16.7227H88.9555V18.3242H93.7114V31ZM101.028 31H102.981L104.583 26.7031H110.628L112.181 31H114.28L108.704 16.7227H106.604L101.028 31ZM107.6 18.4414H107.649L110.022 25.1016H105.188L107.6 18.4414ZM120.191 23.3047V18.3242H124.917C125.809 18.3372 126.46 18.5618 126.87 18.998C127.261 19.4538 127.456 20.0397 127.456 20.7559C127.456 21.2637 127.375 21.6771 127.212 21.9961C127.023 22.3346 126.776 22.6016 126.47 22.7969C125.845 23.1484 125.073 23.3177 124.156 23.3047H120.191ZM118.296 31H120.191V24.8965H124.829C125.298 24.8965 125.679 24.9583 125.972 25.082C126.265 25.2122 126.493 25.3978 126.656 25.6387C126.825 25.8796 126.952 26.153 127.036 26.459C127.115 26.778 127.173 27.1198 127.212 27.4844C127.29 27.8294 127.336 28.1745 127.349 28.5195C127.362 28.8646 127.378 29.1966 127.398 29.5156C127.411 29.8411 127.443 30.1211 127.495 30.3555C127.534 30.6224 127.613 30.8372 127.73 31H129.849C129.654 30.7461 129.507 30.4596 129.409 30.1406C129.305 29.8346 129.234 29.5156 129.195 29.1836C129.116 28.487 129.055 27.7806 129.009 27.0645C128.97 26.3418 128.81 25.7135 128.531 25.1797C128.374 24.9128 128.169 24.6849 127.915 24.4961C127.635 24.3268 127.287 24.2031 126.87 24.125V24.0762C127.723 23.8288 128.358 23.3763 128.775 22.7188C129.159 22.0807 129.351 21.3288 129.351 20.4629C129.299 18.0215 127.853 16.7747 125.015 16.7227H118.296V31ZM137.468 31H139.373V18.3242H144.129V16.7227H132.713V18.3242H137.468V31Z" fill="white"/>
<defs>
<clipPath id="clip0_4419_25105">
<rect width="22.9112" height="33.0347" fill="white" transform="matrix(-1 0 0 1 30.7258 0)"/>
</clipPath>
<clipPath id="clip1_4419_25105">
<rect width="22.9112" height="33.0347" fill="white" transform="matrix(-1 0 0 1 30.7258 12.9653)"/>
</clipPath>
<clipPath id="clip2_4419_25105">
<rect width="23" height="32.9077" fill="white" transform="matrix(-1 0 0 1 23 6.72314)"/>
</clipPath>
</defs>
</svg>
