<svg width="112" height="35" viewBox="0 0 112 35" fill="none" xmlns="http://www.w3.org/2000/svg">
  <path d="M9.864 28.456C14.04 28.456 16.296 26.008 16.368 20.704L16.44 10.24H15.288L15.36 20.512C15.384 24.952 13.8 26.728 10.848 26.728C8.064 26.728 6.528 25.12 6.528 20.704V18.4C6.528 15.64 6.528 12.928 6.576 10.24H3.048C3.12 12.952 3.12 15.688 3.12 18.4V21.064C3.12 26.512 5.88 28.456 9.864 28.456ZM0.936 11.032L4.584 11.344H5.232L8.976 11.032V10.24H0.936V11.032ZM12.504 11.032L15.504 11.368H16.176L18.864 11.032V10.24H12.504V11.032ZM22.3356 34.24H29.4156V33.544L26.8716 33.304H24.9516L22.3356 33.544V34.24ZM24.0876 34.24H27.4236C27.3756 32.224 27.3516 30.016 27.3516 28.336V26.512L27.3996 26.2V17.08L27.3516 16.96L27.1596 15.04L26.8476 14.8L22.1916 16.12V16.72L24.0876 16.888C24.1356 18.04 24.1596 19.024 24.1596 20.608V28.336C24.1596 30.016 24.1356 32.224 24.0876 34.24ZM30.9516 28.408C34.0956 28.408 36.6156 25.768 36.6156 21.496C36.6156 17.224 34.3836 14.776 31.4316 14.776C29.5836 14.776 27.8796 15.592 26.6796 17.512H26.4876L26.8236 17.896C28.0236 16.528 28.9356 16.24 29.9196 16.24C31.9116 16.24 33.1596 17.704 33.1596 21.52C33.1596 25.528 31.7436 26.896 29.7996 26.896C28.6956 26.896 27.8796 26.632 26.9916 25.672L26.5596 26.032H26.8476C27.9756 27.736 29.3916 28.408 30.9516 28.408ZM46.2611 28.408C49.7651 28.408 51.8051 26.776 51.8051 24.208C51.8051 22.336 50.7491 21.112 48.2531 20.296L46.9091 19.864C45.0851 19.312 44.5331 18.616 44.5331 17.656C44.5331 16.432 45.4691 15.64 47.0771 15.64C48.1571 15.64 48.8291 15.928 49.7891 16.552V15.832L48.7811 15.496L49.7171 18.712H50.9411L51.0851 15.832C49.7411 15.136 48.5651 14.776 47.0291 14.776C43.7171 14.776 41.8691 16.504 41.8691 18.832C41.8691 20.8 43.1171 21.976 45.2051 22.648L46.5491 23.104C48.4931 23.68 48.9971 24.376 48.9971 25.432C48.9971 26.776 47.9651 27.52 46.0211 27.52C44.7251 27.52 43.8611 27.208 42.8291 26.512V27.376L43.9811 27.52L43.2611 24.16H41.8931L41.7491 27.28C43.1411 28.024 44.4851 28.408 46.2611 28.408ZM59.8457 16.096H64.5737V15.16H59.8457V16.096ZM61.6697 28.408C63.3017 28.408 64.4057 27.784 65.1257 26.656L64.7417 26.272C64.0937 26.752 63.6617 26.992 63.0377 26.992C62.0297 26.992 61.4537 26.392 61.4537 25.048V15.544L61.5017 11.32H59.4137L58.3097 15.4L58.7417 15.088L56.1257 15.352V16.096H58.2137V22.384C58.2137 23.32 58.1897 23.944 58.1897 24.856C58.1897 27.328 59.3657 28.408 61.6697 28.408ZM72.7956 28.408C74.7396 28.408 75.6996 27.568 77.0916 26.032H77.9316L77.5716 24.76C75.9396 26.512 75.0996 26.92 74.3316 26.92C73.1556 26.92 72.3636 26.2 72.3636 24.76C72.3636 23.152 73.2516 22.072 74.9796 21.376C75.8196 21.064 77.2116 20.704 78.5076 20.368V19.744C77.2116 20.056 75.4596 20.488 74.2116 20.872C70.5396 21.88 69.3636 23.104 69.3636 25.192C69.3636 27.208 70.8036 28.408 72.7956 28.408ZM79.5156 28.384C80.8596 28.384 81.6996 27.88 82.2756 26.728L81.8676 26.392C81.4356 27.016 81.1716 27.208 80.7876 27.208C80.2596 27.208 79.9956 26.848 79.9956 25.744V19.456C79.9956 16.144 78.6036 14.776 75.4116 14.776C72.0276 14.776 70.0356 16.12 69.7476 18.256C69.9156 18.976 70.4436 19.36 71.2116 19.36C72.0036 19.36 72.6996 18.856 72.7716 17.464L73.0356 15.616L71.5236 16.216C72.6756 15.76 73.4916 15.568 74.3316 15.568C76.1796 15.568 76.8276 16.312 76.8276 18.856V25.768C77.0196 27.376 77.8596 28.384 79.5156 28.384ZM86.3306 28H93.6506V27.304L90.9866 27.016H88.9226L86.3306 27.304V28ZM88.0346 28H91.4186C91.3706 26.8 91.3466 24.04 91.3466 22.384V18.448L91.1786 15.016L90.8666 14.8L86.1626 16.12V16.72L88.0346 16.888C88.0826 18.04 88.1066 18.952 88.1066 20.56V22.384C88.1066 24.04 88.0826 26.8 88.0346 28ZM91.3466 20.32C91.9706 18.208 92.8106 17.08 94.2026 16.36L93.3146 16.24L93.8666 16.864C94.4666 17.656 94.9946 18.136 95.8106 18.136C96.8906 18.136 97.3706 17.392 97.3946 16.384C97.1546 15.184 96.2906 14.776 95.2106 14.776C93.6266 14.776 91.8746 16.24 91.2026 18.88H90.5546L91.3466 20.32ZM104.831 16.096H109.559V15.16H104.831V16.096ZM106.655 28.408C108.287 28.408 109.391 27.784 110.111 26.656L109.727 26.272C109.079 26.752 108.647 26.992 108.023 26.992C107.015 26.992 106.439 26.392 106.439 25.048V15.544L106.487 11.32H104.399L103.295 15.4L103.727 15.088L101.111 15.352V16.096H103.199V22.384C103.199 23.32 103.175 23.944 103.175 24.856C103.175 27.328 104.351 28.408 106.655 28.408Z" fill="#6B63DD"/>
</svg>
