<svg width="95" height="33" viewBox="0 0 95 33" fill="none" xmlns="http://www.w3.org/2000/svg">
  <path d="M8.22 24.38C11.7 24.38 13.58 22.34 13.64 17.92L13.7 9.2H12.74L12.8 17.76C12.82 21.46 11.5 22.94 9.04 22.94C6.72 22.94 5.44 21.6 5.44 17.92V16C5.44 13.7 5.44 11.44 5.48 9.2H2.54C2.6 11.46 2.6 13.74 2.6 16V18.22C2.6 22.76 4.9 24.38 8.22 24.38ZM0.78 9.86L3.82 10.12H4.36L7.48 9.86V9.2H0.78V9.86ZM10.42 9.86L12.92 10.14H13.48L15.72 9.86V9.2H10.42V9.86ZM18.613 29.2H24.513V28.62L22.393 28.42H20.793L18.613 28.62V29.2ZM20.073 29.2H22.853C22.813 27.52 22.793 25.68 22.793 24.28V22.76L22.833 22.5V14.9L22.793 14.8L22.633 13.2L22.373 13L18.493 14.1V14.6L20.073 14.74C20.113 15.7 20.133 16.52 20.133 17.84V24.28C20.133 25.68 20.113 27.52 20.073 29.2ZM25.793 24.34C28.413 24.34 30.513 22.14 30.513 18.58C30.513 15.02 28.653 12.98 26.193 12.98C24.653 12.98 23.233 13.66 22.233 15.26H22.073L22.353 15.58C23.353 14.44 24.113 14.2 24.933 14.2C26.593 14.2 27.633 15.42 27.633 18.6C27.633 21.94 26.453 23.08 24.833 23.08C23.913 23.08 23.233 22.86 22.493 22.06L22.133 22.36H22.373C23.313 23.78 24.493 24.34 25.793 24.34ZM38.5509 24.34C41.4709 24.34 43.1709 22.98 43.1709 20.84C43.1709 19.28 42.2909 18.26 40.2109 17.58L39.0909 17.22C37.5709 16.76 37.1109 16.18 37.1109 15.38C37.1109 14.36 37.8909 13.7 39.2309 13.7C40.1309 13.7 40.6909 13.94 41.4909 14.46V13.86L40.6509 13.58L41.4309 16.26H42.4509L42.5709 13.86C41.4509 13.28 40.4709 12.98 39.1909 12.98C36.4309 12.98 34.8909 14.42 34.8909 16.36C34.8909 18 35.9309 18.98 37.6709 19.54L38.7909 19.92C40.4109 20.4 40.8309 20.98 40.8309 21.86C40.8309 22.98 39.9709 23.6 38.3509 23.6C37.2709 23.6 36.5509 23.34 35.6909 22.76V23.48L36.6509 23.6L36.0509 20.8H34.9109L34.7909 23.4C35.9509 24.02 37.0709 24.34 38.5509 24.34ZM49.8714 14.08H53.8114V13.3H49.8714V14.08ZM51.3914 24.34C52.7514 24.34 53.6714 23.82 54.2714 22.88L53.9514 22.56C53.4114 22.96 53.0514 23.16 52.5314 23.16C51.6914 23.16 51.2114 22.66 51.2114 21.54V13.62L51.2514 10.1H49.5114L48.5914 13.5L48.9514 13.24L46.7714 13.46V14.08H48.5114V19.32C48.5114 20.1 48.4914 20.62 48.4914 21.38C48.4914 23.44 49.4714 24.34 51.3914 24.34ZM60.663 24.34C62.283 24.34 63.083 23.64 64.243 22.36H64.943L64.643 21.3C63.283 22.76 62.583 23.1 61.943 23.1C60.963 23.1 60.303 22.5 60.303 21.3C60.303 19.96 61.043 19.06 62.483 18.48C63.183 18.22 64.343 17.92 65.423 17.64V17.12C64.343 17.38 62.883 17.74 61.843 18.06C58.783 18.9 57.803 19.92 57.803 21.66C57.803 23.34 59.003 24.34 60.663 24.34ZM66.263 24.32C67.383 24.32 68.083 23.9 68.563 22.94L68.223 22.66C67.863 23.18 67.643 23.34 67.323 23.34C66.883 23.34 66.663 23.04 66.663 22.12V16.88C66.663 14.12 65.503 12.98 62.843 12.98C60.023 12.98 58.363 14.1 58.123 15.88C58.263 16.48 58.703 16.8 59.343 16.8C60.003 16.8 60.583 16.38 60.643 15.22L60.863 13.68L59.603 14.18C60.563 13.8 61.243 13.64 61.943 13.64C63.483 13.64 64.023 14.26 64.023 16.38V22.14C64.183 23.48 64.883 24.32 66.263 24.32ZM71.9422 24H78.0422V23.42L75.8222 23.18H74.1022L71.9422 23.42V24ZM73.3622 24H76.1822C76.1422 23 76.1222 20.7 76.1222 19.32V16.04L75.9822 13.18L75.7222 13L71.8022 14.1V14.6L73.3622 14.74C73.4022 15.7 73.4222 16.46 73.4222 17.8V19.32C73.4222 20.7 73.4022 23 73.3622 24ZM76.1222 17.6C76.6422 15.84 77.3422 14.9 78.5022 14.3L77.7622 14.2L78.2222 14.72C78.7222 15.38 79.1622 15.78 79.8422 15.78C80.7422 15.78 81.1422 15.16 81.1622 14.32C80.9622 13.32 80.2422 12.98 79.3422 12.98C78.0222 12.98 76.5622 14.2 76.0022 16.4H75.4622L76.1222 17.6ZM87.3589 14.08H91.2989V13.3H87.3589V14.08ZM88.8789 24.34C90.2389 24.34 91.1589 23.82 91.7589 22.88L91.4389 22.56C90.8989 22.96 90.5389 23.16 90.0189 23.16C89.1789 23.16 88.6989 22.66 88.6989 21.54V13.62L88.7389 10.1H86.9989L86.0789 13.5L86.4389 13.24L84.2589 13.46V14.08H85.9989V19.32C85.9989 20.1 85.9789 20.62 85.9789 21.38C85.9789 23.44 86.9589 24.34 88.8789 24.34Z" fill="white"/>
</svg>
